<svg xmlns="http://www.w3.org/2000/svg" xmlns:xlink="http://www.w3.org/1999/xlink" viewBox="0 0 1202.77 401.22"><defs><style>.a{fill:url(#a);}.b{opacity:0.07;}.aa,.ab,.ac,.ad,.ae,.af,.ag,.ah,.aj,.ak,.al,.am,.an,.ao,.ap,.aq,.ar,.as,.at,.au,.av,.aw,.ax,.ay,.az,.ba,.bb,.bc,.bd,.be,.bf,.bg,.bh,.bi,.bj,.bk,.bl,.bm,.bn,.bo,.by,.bz,.c,.cb,.cj,.ck,.d,.e,.f,.g,.h,.i,.j,.k,.l,.m,.n,.o,.p,.q,.r,.s,.t,.u,.v,.w,.x,.y,.z{fill:none;}.aa,.ab,.ac,.ad,.ae,.af,.ag,.ah,.aj,.ak,.al,.am,.an,.ao,.ap,.aq,.ar,.as,.at,.au,.av,.aw,.ax,.ay,.az,.ba,.bb,.bc,.bd,.be,.bf,.bg,.bh,.bi,.bj,.bk,.bl,.bm,.bn,.bo,.by,.bz,.c,.cj,.ck,.d,.e,.f,.g,.h,.i,.j,.k,.l,.m,.n,.o,.p,.q,.r,.s,.t,.u,.v,.w,.x,.y,.z{stroke-miterlimit:10;}.aa,.ab,.ac,.ad,.ae,.af,.ag,.ah,.c,.d,.e,.f,.g,.h,.i,.j,.k,.l,.m,.n,.o,.p,.q,.r,.s,.t,.u,.v,.w,.x,.y,.z{stroke-width:3.61px;}.c{stroke:url(#b);}.ak,.d{opacity:0.97;}.d{stroke:url(#c);}.al,.e{opacity:0.94;}.e{stroke:url(#d);}.am,.f{opacity:0.9;}.f{stroke:url(#e);}.an,.g{opacity:0.87;}.g{stroke:url(#f);}.ao,.h{opacity:0.84;}.h{stroke:url(#g);}.ap,.i{opacity:0.81;}.i{stroke:url(#h);}.aq,.j{opacity:0.77;}.j{stroke:url(#i);}.ar,.k{opacity:0.74;}.k{stroke:url(#j);}.as,.l{opacity:0.71;}.l{stroke:url(#k);}.at,.m{opacity:0.68;}.m{stroke:url(#l);}.au,.n{opacity:0.65;}.n{stroke:url(#m);}.av,.o{opacity:0.61;}.o{stroke:url(#n);}.aw,.p{opacity:0.58;}.p{stroke:url(#o);}.ax,.q{opacity:0.55;}.q{stroke:url(#p);}.ay,.r{opacity:0.52;}.r{stroke:url(#q);}.az,.s{opacity:0.48;}.s{stroke:url(#r);}.ba,.t{opacity:0.45;}.t{stroke:url(#s);}.bb,.u{opacity:0.42;}.u{stroke:url(#t);}.bc,.v{opacity:0.39;}.v{stroke:url(#u);}.bd,.w{opacity:0.35;}.w{stroke:url(#v);}.be,.x{opacity:0.32;}.x{stroke:url(#w);}.bf,.y{opacity:0.29;}.y{stroke:url(#x);}.bg,.z{opacity:0.26;}.z{stroke:url(#y);}.aa,.bh{opacity:0.23;}.aa{stroke:url(#z);}.ab,.bi{opacity:0.19;}.ab{stroke:url(#aa);}.ac,.bj{opacity:0.16;}.ac{stroke:url(#ab);}.ad,.bk{opacity:0.13;}.ad{stroke:url(#ac);}.ae,.bl{opacity:0.1;}.ae{stroke:url(#ad);}.af,.bm{opacity:0.06;}.af{stroke:url(#ae);}.ag,.bn{opacity:0.03;}.ag{stroke:url(#af);}.ah,.bo{opacity:0;}.ah{stroke:url(#ag);}.ai{opacity:0.3;}.aj{stroke-width:1.9px;stroke:url(#ah);}.ak{stroke-width:1.95px;stroke:url(#ai);}.al{stroke-width:1.99px;stroke:url(#aj);}.am{stroke-width:2.04px;stroke:url(#ak);}.an{stroke-width:2.08px;stroke:url(#al);}.ao{stroke-width:2.13px;stroke:url(#am);}.ap{stroke-width:2.17px;stroke:url(#an);}.aq{stroke-width:2.22px;stroke:url(#ao);}.ar{stroke-width:2.26px;stroke:url(#ap);}.as{stroke-width:2.31px;stroke:url(#aq);}.at{stroke-width:2.35px;stroke:url(#ar);}.au{stroke-width:2.4px;stroke:url(#as);}.av{stroke-width:2.44px;stroke:url(#at);}.aw{stroke-width:2.49px;stroke:url(#au);}.ax{stroke-width:2.53px;stroke:url(#av);}.ay{stroke-width:2.58px;stroke:url(#aw);}.az{stroke-width:2.62px;stroke:url(#ax);}.ba{stroke-width:2.67px;stroke:url(#ay);}.bb{stroke-width:2.71px;stroke:url(#az);}.bc{stroke-width:2.76px;stroke:url(#ba);}.bd{stroke-width:2.8px;stroke:url(#bb);}.be{stroke-width:2.85px;stroke:url(#bc);}.bf{stroke-width:2.89px;stroke:url(#bd);}.bg{stroke-width:2.94px;stroke:url(#be);}.bh{stroke-width:2.98px;stroke:url(#bf);}.bi{stroke-width:3.03px;stroke:url(#bg);}.bj{stroke-width:3.08px;stroke:url(#bh);}.bk{stroke-width:3.12px;stroke:url(#bi);}.bl{stroke-width:3.17px;stroke:url(#bj);}.bm{stroke-width:3.21px;stroke:url(#bk);}.bn{stroke-width:3.26px;stroke:url(#bl);}.bo{stroke-width:3.3px;stroke:url(#bm);}.bp{fill-opacity:0.33;fill:url(#bn);}.bq{fill:url(#bo);}.br{fill:#ce413a;}.bs,.cl{fill:#2c3e50;}.bt{fill:#3d566b;}.bu{fill:url(#bp);}.bv{opacity:0.1;}.bw{fill:#ecf0f1;}.bx{fill:#334856;}.by{stroke:#3c5366;stroke-width:3.62px;}.bz{stroke:#2c3e50;stroke-width:1.27px;}.ca{fill:#3c5366;}.cb{stroke-linecap:round;stroke-linejoin:round;stroke-width:1.64px;stroke-dasharray:9.86;stroke:url(#bq);}.cc,.ce,.cf,.cg{fill:#34c7db;}.cc{opacity:0.2;}.cd{fill:#34bbc9;}.cf{fill-opacity:0.36;}.cg{fill-opacity:0.19;}.ch{opacity:0.31;}.ci{fill:#2c464f;}.cj,.ck{stroke:#ecf0f1;stroke-width:2px;}.ck{stroke-dasharray:11.37 11.37;}.cl{opacity:0.23;}.cl,.cm,.cn,.co,.cp{isolation:isolate;}.cm,.cn,.co,.cp{fill:#e74c3c;}.cm{opacity:0.21;}.cn{opacity:0.18;}.co{opacity:0.25;}.cp{opacity:0.36;}</style><linearGradient id="a" x1="600" x2="600" y2="400" gradientTransform="matrix(1, 0, 0, -1, 1.54, 400)" gradientUnits="userSpaceOnUse"><stop offset="0" stop-color="#3399bc"/><stop offset="0.98" stop-color="#1c1d21"/></linearGradient><linearGradient id="b" x1="-1.46" y1="122.66" x2="1201.23" y2="122.66" gradientUnits="userSpaceOnUse"><stop offset="0" stop-color="#00aa94"/><stop offset="0.5" stop-color="#3399bc"/><stop offset="1" stop-color="#9a00e9"/></linearGradient><linearGradient id="c" x1="-1.45" y1="128.35" x2="1201.23" y2="128.35" xlink:href="#b"/><linearGradient id="d" x1="-1.44" y1="133.98" x2="1201.23" y2="133.98" xlink:href="#b"/><linearGradient id="e" x1="-1.43" y1="139.55" x2="1201.23" y2="139.55" xlink:href="#b"/><linearGradient id="f" x1="-1.42" y1="145.09" x2="1201.23" y2="145.09" xlink:href="#b"/><linearGradient id="g" x1="-1.41" y1="150.6" x2="1201.23" y2="150.6" xlink:href="#b"/><linearGradient id="h" x1="-1.4" y1="156.09" x2="1201.23" y2="156.09" xlink:href="#b"/><linearGradient id="i" x1="-1.39" y1="161.56" x2="1201.23" y2="161.56" xlink:href="#b"/><linearGradient id="j" x1="-1.38" y1="167.02" x2="1201.23" y2="167.02" xlink:href="#b"/><linearGradient id="k" x1="-1.37" y1="172.46" x2="1201.23" y2="172.46" xlink:href="#b"/><linearGradient id="l" x1="-1.36" y1="177.9" x2="1201.23" y2="177.9" xlink:href="#b"/><linearGradient id="m" x1="-1.35" y1="183.33" x2="1201.23" y2="183.33" xlink:href="#b"/><linearGradient id="n" x1="-1.34" y1="188.75" x2="1201.23" y2="188.75" xlink:href="#b"/><linearGradient id="o" x1="-1.33" y1="194.17" x2="1201.23" y2="194.17" xlink:href="#b"/><linearGradient id="p" x1="-1.32" y1="199.58" x2="1201.23" y2="199.58" xlink:href="#b"/><linearGradient id="q" x1="-1.31" y1="204.99" x2="1201.23" y2="204.99" xlink:href="#b"/><linearGradient id="r" x1="-1.3" y1="210.4" x2="1201.23" y2="210.4" xlink:href="#b"/><linearGradient id="s" x1="-1.29" y1="215.8" x2="1201.23" y2="215.8" xlink:href="#b"/><linearGradient id="t" x1="-1.28" y1="221.2" x2="1201.23" y2="221.2" xlink:href="#b"/><linearGradient id="u" x1="-1.27" y1="226.6" x2="1201.23" y2="226.6" xlink:href="#b"/><linearGradient id="v" x1="-1.26" y1="232" x2="1201.23" y2="232" xlink:href="#b"/><linearGradient id="w" x1="-1.25" y1="237.39" x2="1201.23" y2="237.39" xlink:href="#b"/><linearGradient id="x" x1="-1.24" y1="242.79" x2="1201.23" y2="242.79" xlink:href="#b"/><linearGradient id="y" x1="-1.23" y1="248.18" x2="1201.23" y2="248.18" xlink:href="#b"/><linearGradient id="z" x1="-1.22" y1="253.57" x2="1201.23" y2="253.57" xlink:href="#b"/><linearGradient id="aa" x1="-1.21" y1="258.97" x2="1201.23" y2="258.97" xlink:href="#b"/><linearGradient id="ab" x1="-1.2" y1="264.36" x2="1201.23" y2="264.36" xlink:href="#b"/><linearGradient id="ac" x1="-1.2" y1="269.75" x2="1201.23" y2="269.75" xlink:href="#b"/><linearGradient id="ad" x1="-1.19" y1="275.14" x2="1201.23" y2="275.14" xlink:href="#b"/><linearGradient id="ae" x1="-1.18" y1="280.52" x2="1201.23" y2="280.52" xlink:href="#b"/><linearGradient id="af" x1="-1.17" y1="285.91" x2="1201.23" y2="285.91" xlink:href="#b"/><linearGradient id="ag" x1="-1.16" y1="291.3" x2="1201.23" y2="291.3" xlink:href="#b"/><linearGradient id="ah" x1="-0.62" y1="208.69" x2="1200.37" y2="208.69" gradientUnits="userSpaceOnUse"><stop offset="0" stop-color="#9a00e9" stop-opacity="0.5"/><stop offset="1" stop-color="#e9a300"/></linearGradient><linearGradient id="ai" x1="-0.66" y1="213.31" x2="1200.39" y2="213.31" xlink:href="#ah"/><linearGradient id="aj" x1="-0.69" y1="217.94" x2="1200.42" y2="217.94" xlink:href="#ah"/><linearGradient id="ak" x1="-0.73" y1="222.57" x2="1200.44" y2="222.57" xlink:href="#ah"/><linearGradient id="al" x1="-0.77" y1="227.21" x2="1200.46" y2="227.21" xlink:href="#ah"/><linearGradient id="am" x1="-0.8" y1="231.85" x2="1200.49" y2="231.85" xlink:href="#ah"/><linearGradient id="an" x1="-0.83" y1="236.5" x2="1200.51" y2="236.5" xlink:href="#ah"/><linearGradient id="ao" x1="-0.87" y1="241.15" x2="1200.53" y2="241.15" xlink:href="#ah"/><linearGradient id="ap" x1="-0.9" y1="245.8" x2="1200.56" y2="245.8" xlink:href="#ah"/><linearGradient id="aq" x1="-0.93" y1="250.46" x2="1200.58" y2="250.46" xlink:href="#ah"/><linearGradient id="ar" x1="-0.96" y1="255.12" x2="1200.61" y2="255.12" xlink:href="#ah"/><linearGradient id="as" x1="-0.99" y1="259.78" x2="1200.63" y2="259.78" xlink:href="#ah"/><linearGradient id="at" x1="-1.02" y1="264.45" x2="1200.66" y2="264.45" xlink:href="#ah"/><linearGradient id="au" x1="-1.05" y1="269.12" x2="1200.68" y2="269.12" xlink:href="#ah"/><linearGradient id="av" x1="-1.08" y1="273.79" x2="1200.7" y2="273.79" xlink:href="#ah"/><linearGradient id="aw" x1="-1.11" y1="278.47" x2="1200.73" y2="278.47" xlink:href="#ah"/><linearGradient id="ax" x1="-1.14" y1="283.15" x2="1200.75" y2="283.15" xlink:href="#ah"/><linearGradient id="ay" x1="-1.17" y1="287.83" x2="1200.78" y2="287.83" xlink:href="#ah"/><linearGradient id="az" x1="-1.2" y1="292.51" x2="1200.8" y2="292.51" xlink:href="#ah"/><linearGradient id="ba" x1="-1.22" y1="297.19" x2="1200.83" y2="297.19" xlink:href="#ah"/><linearGradient id="bb" x1="-1.25" y1="301.87" x2="1200.85" y2="301.87" xlink:href="#ah"/><linearGradient id="bc" x1="-1.28" y1="306.56" x2="1200.87" y2="306.56" xlink:href="#ah"/><linearGradient id="bd" x1="-1.31" y1="311.24" x2="1200.9" y2="311.24" xlink:href="#ah"/><linearGradient id="be" x1="-1.33" y1="315.93" x2="1200.92" y2="315.93" xlink:href="#ah"/><linearGradient id="bf" x1="-1.36" y1="320.61" x2="1200.95" y2="320.61" xlink:href="#ah"/><linearGradient id="bg" x1="-1.39" y1="325.54" x2="1200.97" y2="325.54" xlink:href="#ah"/><linearGradient id="bh" x1="-1.41" y1="330.6" x2="1200.99" y2="330.6" xlink:href="#ah"/><linearGradient id="bi" x1="-1.44" y1="335.65" x2="1201.02" y2="335.65" xlink:href="#ah"/><linearGradient id="bj" x1="-1.46" y1="340.7" x2="1201.04" y2="340.7" xlink:href="#ah"/><linearGradient id="bk" x1="-1.49" y1="345.73" x2="1201.06" y2="345.73" xlink:href="#ah"/><linearGradient id="bl" x1="-1.51" y1="350.76" x2="1201.09" y2="350.76" xlink:href="#ah"/><linearGradient id="bm" x1="-1.54" y1="355.77" x2="1201.11" y2="355.77" xlink:href="#ah"/><radialGradient id="bn" cx="629.54" cy="292.9" r="60.3" gradientUnits="userSpaceOnUse"><stop offset="0" stop-color="#ffff9e"/><stop offset="0.05" stop-color="#ebf89d" stop-opacity="0.92"/><stop offset="0.2" stop-color="#ade49b" stop-opacity="0.68"/><stop offset="0.35" stop-color="#78d299" stop-opacity="0.47"/><stop offset="0.5" stop-color="#4dc497" stop-opacity="0.3"/><stop offset="0.64" stop-color="#2cb996" stop-opacity="0.17"/><stop offset="0.77" stop-color="#14b195" stop-opacity="0.08"/><stop offset="0.9" stop-color="#05ac94" stop-opacity="0.02"/><stop offset="1" stop-color="#00aa94" stop-opacity="0"/></radialGradient><linearGradient id="bo" x1="601.54" y1="400" x2="601.54" y2="244.1" gradientUnits="userSpaceOnUse"><stop offset="0" stop-color="#bc6e49"/><stop offset="0.35" stop-color="#b85b40" stop-opacity="0.67"/><stop offset="1" stop-color="#af342e" stop-opacity="0"/></linearGradient><linearGradient id="bp" x1="601.54" y1="400" x2="601.54" y2="269.3" gradientUnits="userSpaceOnUse"><stop offset="0" stop-color="#750041"/><stop offset="0.09" stop-color="#89123a"/><stop offset="0.2" stop-color="#9a2135"/><stop offset="0.33" stop-color="#a62c31"/><stop offset="0.52" stop-color="#ad322f"/><stop offset="1" stop-color="#af342e"/></linearGradient><linearGradient id="bq" x1="56.37" y1="245.33" x2="146.8" y2="154.9" gradientUnits="userSpaceOnUse"><stop offset="0" stop-color="#fff" stop-opacity="0"/><stop offset="0.1" stop-color="#fff" stop-opacity="0.02"/><stop offset="0.23" stop-color="#fff" stop-opacity="0.08"/><stop offset="0.36" stop-color="#fff" stop-opacity="0.17"/><stop offset="0.5" stop-color="#fff" stop-opacity="0.3"/><stop offset="0.65" stop-color="#fff" stop-opacity="0.47"/><stop offset="0.8" stop-color="#fff" stop-opacity="0.68"/><stop offset="0.95" stop-color="#fff" stop-opacity="0.92"/><stop offset="1" stop-color="#fff"/></linearGradient></defs><title>about_billboard</title><polygon class="a" points="1.54 0 1201.54 0 1201.54 370 1.54 400 1.54 0"/><g class="b"><path class="c" d="M0,186.2C142.12-8.39,258.6,164.65,373.11,164.65,510,164.65,546,77.26,682.4,64.48c126.51-11.85,180.74-4.64,310.33,66.69,52,28.63,138.64,80.46,207.27,16.93" transform="translate(1.54)"/><path class="d" d="M0,192.25C79.74,83.08,147.88,87.69,213.69,112.65c55.3,21,107.08,57,159.19,58a295.16,295.16,0,0,0,34.79-1.45c109.23-11.61,150.19-88.34,274.7-100,126.82-11.88,179.52.33,310.36,69.65,53.9,28.56,138.64,76.27,207.27,12.73" transform="translate(1.54)"/><path class="e" d="M0,198.3c81.81-112,148.1-106.23,213.53-81.3,55.64,21.29,106.84,57.85,159.1,59.65a282.77,282.77,0,0,0,34.82-.88C516.54,166.08,557.41,85.6,682.35,73.9,809.48,62,860.7,79.13,992.73,146.5,1048.53,175,1131.37,218.57,1200,155" transform="translate(1.54)"/><path class="f" d="M0,204.34c83.89-114.86,148.33-107.9,213.37-83,56,21.56,106.59,58.59,159,61.3a279.05,279.05,0,0,0,34.85-.32c108.87-8,149.69-92,275-103.73,127.44-11.94,177.23,10.08,310.41,75.56,57.72,28.37,138.64,67.88,207.27,4.35" transform="translate(1.54)"/><path class="g" d="M0,210.39C86,92.69,148.59,100.82,213.25,125.7,269.56,147.53,319.6,185,372.19,188.65a275.48,275.48,0,0,0,34.88.25c108.67-6.27,149.44-93.8,275.22-105.59,127.76-12,176.14,14.88,310.44,78.51,59.65,28.26,138.64,63.69,207.27.15" transform="translate(1.54)"/><path class="h" d="M0,216.44c88-120.55,148.78-111.25,213.06-86.39,56.64,22.1,106.09,60.05,158.86,64.59a272,272,0,0,0,34.92.82C515.35,190.87,556.07,99.84,682.27,88c128.07-12,175.09,19.63,310.46,81.47,61.59,28.14,138.64,59.49,207.27-4" transform="translate(1.54)"/><path class="i" d="M0.06,222.49c90.13-123.4,149-112.92,212.9-88.09,57,22.38,105.84,60.77,158.78,66.24A268.76,268.76,0,0,0,406.68,202c108.26-2.92,148.94-97.44,275.56-109.31,128.38-12,174.07,24.32,310.49,84.42,63.55,28,138.64,55.3,207.27-8.23" transform="translate(1.54)"/><path class="j" d="M0.07,228.54C92.27,102.3,149.31,114,212.81,138.76c57.31,22.65,105.59,61.49,158.7,67.89a265.61,265.61,0,0,0,35,1.95c108-1.26,148.69-99.26,275.73-111.17,128.69-12.06,173.08,29,310.51,87.38,65.52,27.84,138.64,51.11,207.27-12.43" transform="translate(1.54)"/><path class="k" d="M0.08,234.59C94.36,105.5,149.6,118.19,212.66,143.11c57.7,22.8,105.34,62.2,158.62,69.54a227.44,227.44,0,0,0,35,2.52c107.82-1.92,148.44-101.08,275.9-113,129-12.09,172.12,33.59,310.54,90.33,67.49,27.67,138.64,46.91,207.27-16.62" transform="translate(1.54)"/><path class="l" d="M0.09,240.64C96.45,108.7,149.84,122.56,212.51,147.46c58,23.06,105.08,62.9,158.54,71.18a259.75,259.75,0,0,0,35,3.08c107.62,2,148.19-102.9,276.08-114.88C811.48,94.73,853.33,145,992.73,200.13c69.48,27.48,138.64,42.72,207.27-20.82" transform="translate(1.54)"/><path class="m" d="M0.1,246.69c98.44-134.79,150-119.76,212.27-94.88,58.38,23.32,104.83,63.6,158.45,72.83a257,257,0,0,0,35.07,3.65c107.4,3.62,147.95-104.72,276.25-116.74,129.63-12.15,170.25,42.68,310.59,96.24,71.47,27.27,138.64,38.53,207.27-25" transform="translate(1.54)"/><path class="n" d="M0.11,252.74C100.63,115.1,150.32,131.31,212.22,156.17c58.71,23.59,104.57,64.28,158.37,74.48a254.46,254.46,0,0,0,35.1,4.22c107.17,5.22,147.7-106.54,276.42-118.6,129.94-12.18,169.34,47.18,310.62,99.2,73.47,27.05,138.64,34.33,207.27-29.2" transform="translate(1.54)"/><path class="o" d="M0.12,258.79c102.6-140.48,150.45-123.11,212-98.27,59.05,23.85,104.32,65,158.29,76.13a252,252,0,0,0,35.13,4.78c107,6.81,147.45-108.36,276.59-120.46,130.25-12.21,168.44,51.63,310.65,102.15,75.48,26.82,138.64,30.14,207.27-33.4" transform="translate(1.54)"/><path class="p" d="M0.13,264.84c104.68-143.33,150.68-124.79,211.8-100C271.31,189,316,230.51,370.13,242.65A249.72,249.72,0,0,0,405.29,248C512,256.38,552.49,137.81,682.06,125.67c130.57-12.23,167.56,56.06,310.67,105.11,77.5,26.56,138.64,25.95,207.27-37.59" transform="translate(1.54)"/><path class="q" d="M0.14,270.89C106.9,124.71,151,144.43,211.77,169.22c59.73,24.39,103.81,66.31,158.13,79.42a247.56,247.56,0,0,0,35.19,5.92C511.6,264.5,552,142.56,682,130.38c130.88-12.26,166.69,60.45,310.7,108.06,79.52,26.29,138.64,21.75,207.27-41.78" transform="translate(1.54)"/><path class="r" d="M0.15,276.94C109,127.91,151.28,148.81,211.63,173.58c60.06,24.66,103.56,67,158,81.07a245.53,245.53,0,0,0,35.22,6.48c106.29,11.49,146.7-113.82,277.11-126,131.19-12.29,165.82,64.82,310.72,111,81.54,26,138.64,17.56,207.27-46" transform="translate(1.54)"/><path class="s" d="M0.15,283c110.92-151.87,151.37-129.8,211.32-105.06,60.4,24.93,103.31,67.63,158,82.71a243.63,243.63,0,0,0,35.25,7.05c106.07,13,146.45-115.64,277.28-127.9,131.5-12.32,165,69.16,310.75,114,83.57,25.69,138.64,13.37,207.27-50.17" transform="translate(1.54)"/><path class="t" d="M0.16,289c113-154.72,151.59-131.47,211.17-106.76,60.73,25.2,103.06,68.28,157.88,84.36a241.87,241.87,0,0,0,35.29,7.62C510.35,288.81,550.7,156.8,682,144.5,813.77,132.15,846.07,218,992.73,261.43c85.61,25.37,138.64,9.17,207.27-54.36" transform="translate(1.54)"/><path class="u" d="M0.17,295.09C115.26,137.52,152,161.95,211.18,186.63c61.07,25.47,102.82,68.93,157.8,86a240.23,240.23,0,0,0,35.32,8.19c105.64,16.06,146-119.28,277.62-131.62C814.05,136.83,845.19,227,992.73,269.09c87.65,25,138.64,5,207.27-58.56" transform="translate(1.54)"/><path class="v" d="M0.18,301.14C117.35,140.72,152.23,166.33,211,191c61.4,25.75,102.58,69.56,157.72,87.66a238.72,238.72,0,0,0,35.35,8.75C509.53,305,549.81,166.29,681.9,153.92c132.44-12.41,162.43,82,310.83,122.84,89.69,24.67,138.64.78,207.27-62.75" transform="translate(1.54)"/><path class="w" d="M0.19,307.19c119.24-163.26,152.27-136.47,210.7-111.85,61.74,26,102.34,70.2,157.64,89.3A237.33,237.33,0,0,0,403.91,294c105.21,19,145.46-122.92,278-135.34,132.75-12.44,161.58,86.26,310.86,125.79,91.73,24.3,138.64-3.41,207.27-66.94" transform="translate(1.54)"/><path class="x" d="M0.2,313.24C121.52,147.12,152.7,175.1,210.74,199.69c62.07,26.3,102.1,70.82,157.56,91a236.07,236.07,0,0,0,35.41,9.89c105,20.52,145.21-124.74,278.14-137.2s160.75,90.48,310.88,128.75c93.78,23.91,138.64-7.6,207.27-71.14" transform="translate(1.54)"/><path class="y" d="M0.21,319.29c123.4-169,152.72-139.8,210.38-115.24,62.4,26.58,101.87,71.44,157.48,92.6a234.92,234.92,0,0,0,35.44,10.45c104.81,22,145-126.56,278.31-139.06s159.91,94.68,310.91,131.71c95.83,23.5,138.64-11.8,207.27-75.33" transform="translate(1.54)"/><path class="z" d="M0.22,325.34C125.7,153.53,153.17,183.87,210.45,208.39c62.73,26.86,101.64,72.06,157.4,94.25a233.89,233.89,0,0,0,35.47,11C507.92,337.11,548,185.28,681.79,172.75S840.86,271.6,992.73,307.41c97.87,23.08,138.64-16,207.27-79.52" transform="translate(1.54)"/><path class="aa" d="M0.23,331.38c127.56-174.65,153.13-143,210.07-118.64,63,27.26,101.41,72.67,157.31,95.89a233,233,0,0,0,35.5,11.59C507.53,345.13,547.57,190,681.77,177.45c134-12.56,158.23,103,311,137.62,99.93,22.64,138.64-20.18,207.27-83.72" transform="translate(1.54)"/><path class="ab" d="M0.24,337.43C129.88,159.93,153.6,192.75,210.15,217.1c63.35,27.53,101.19,73.27,157.23,97.54a232.17,232.17,0,0,0,35.53,12.15c104.23,26.34,144.21-132,278.83-144.63,134.31-12.59,157.39,107.16,311,140.57,102,22.18,138.64-24.38,207.27-87.91" transform="translate(1.54)"/><path class="ac" d="M0.25,343.48C132,163.13,153.84,197.12,210,221.45c63.68,27.81,101,73.87,157.15,99.19a231.47,231.47,0,0,0,35.56,12.72c104.05,27.78,144-133.84,279-146.49,134.62-12.61,156.55,111.29,311,143.53,104,21.71,138.64-28.57,207.27-92.11" transform="translate(1.54)"/><path class="ad" d="M0.26,349.53c133.8-183.2,153.81-148,209.59-123.73,64,28.08,100.76,74.47,157.07,100.84a230.89,230.89,0,0,0,35.59,13.29c103.88,29.2,143.71-135.66,279.17-148.35,134.94-12.64,155.71,115.41,311,146.48,106.08,21.22,138.64-32.76,207.27-96.3" transform="translate(1.54)"/><path class="ae" d="M0.27,355.58c135.88-186,154-149.7,209.44-125.43,64.35,28.35,100.55,75.06,157,102.48a230.4,230.4,0,0,0,35.62,13.85C506,377.11,545.79,209,681.66,196.28c135.25-12.67,154.86,119.51,311.07,149.44,108.13,20.72,138.64-37,207.27-100.49" transform="translate(1.54)"/><path class="af" d="M0.28,361.63c138-188.89,154.27-151.38,209.28-127.12,64.69,28.62,100.34,75.65,156.91,104.13a230,230,0,0,0,35.66,14.42c103.54,32,143.22-139.3,279.51-152.07,135.56-12.7,154,123.59,311.09,152.39,110.19,20.2,138.64-41.15,207.27-104.69" transform="translate(1.54)"/><path class="ag" d="M0.29,367.68c140-191.74,154.5-153,209.12-128.82,65,28.89,100.18,76.15,156.83,105.78a233.7,233.7,0,0,0,35.69,15c103.43,33.29,143-141.12,279.69-153.93C817.48,193,834.76,333.36,992.73,361,1105,380.71,1131.37,315.7,1200,252.16" transform="translate(1.54)"/><path class="ah" d="M0.3,373.73C142.42,179.14,155,219,209.26,243.21c78,34.79,112.14,95.88,192.46,123C505,401,544.44,223.25,681.58,210.4c136.19-12.76,152.3,131.73,311.15,158.3C1107,387.83,1131.37,319.17,1200,255.63" transform="translate(1.54)"/></g><g class="ai"><path class="aj" d="M0,220.2c29.38-25.31,58.36-55.64,134.52-59.9C264.47,153,313.77,241,496.08,256c181.94,15,272.56-87.17,509.31-62.86,83.44,8.57,133.23,15.93,194.62,41.69" transform="translate(1.54)"/><path class="ak" d="M0,225.81c29.38-27,58.36-55.88,134.52-60.41C264.47,157.66,313.77,244,496.08,260c181.94,16,272.52-85.26,509.31-61.9,85.63,8.19,132.75,14.88,194.62,42" transform="translate(1.54)"/><path class="al" d="M0,231.41c29.38-28.59,58.36-56.11,134.52-60.92C264.47,162.29,313.77,247,496.08,264c181.94,16.94,272.41-82.66,509.31-60.93,87.8,8.06,132.27,13.83,194.62,42.4" transform="translate(1.54)"/><path class="am" d="M0,237c29.38-30.24,58.36-56.34,134.52-61.43C264.47,166.91,313.77,250,496.08,268c181.94,17.92,272.35-80.46,509.31-60,90,7.79,131.8,12.77,194.62,42.76" transform="translate(1.54)"/><path class="an" d="M0,242.63C29.38,210.75,58.36,186,134.52,180.69c129.95-9.15,179.25,72.39,361.56,91.31,181.94,18.89,272.3-78.3,509.31-59,92.18,7.51,131.32,11.72,194.62,43.12" transform="translate(1.54)"/><path class="ao" d="M0,248.23c29.38-33.52,58.36-56.81,134.52-62.45C264.47,176.16,313.77,256.1,496.08,276c181.94,19.86,272.24-76.17,509.31-58,94.37,7.22,130.84,10.67,194.62,43.48" transform="translate(1.54)"/><path class="ap" d="M0,253.84c29.38-35.17,58.36-57,134.52-63C264.47,180.79,313.77,259.13,496.08,280c181.94,20.84,272.2-74.07,509.31-57.05,96.56,6.93,130.37,9.62,194.62,43.84" transform="translate(1.54)"/><path class="aq" d="M0,259.45C29.38,222.64,58.36,202.17,134.52,196c129.95-10.56,179.25,66.17,361.56,88,181.94,21.81,272.15-72,509.31-56.09,98.75,6.63,129.89,8.56,194.62,44.2" transform="translate(1.54)"/><path class="ar" d="M0,265.05c29.38-38.45,58.36-57.51,134.52-64,129.95-11,179.25,64.1,361.56,86.93,181.94,22.78,272.11-70,509.31-55.12,100.94,6.32,129.41,7.51,194.62,44.55" transform="translate(1.54)"/><path class="as" d="M0,270.66c29.38-40.09,58.36-57.74,134.52-64.49,129.95-11.51,179.25,62,361.56,85.84,181.94,23.76,272.07-67.94,509.31-54.15,103.14,6,128.94,6.46,194.62,44.91" transform="translate(1.54)"/><path class="at" d="M0,276.26c29.38-41.74,58.36-58,134.52-65,129.95-12,179.25,60,361.56,84.74,181.94,24.73,272-65.94,509.31-53.18,105.33,5.67,128.46,5.4,194.62,45.27" transform="translate(1.54)"/><path class="au" d="M0,281.87c29.38-43.38,58.36-58.21,134.52-65.51C264.47,203.92,313.77,274.26,496.08,300c181.94,25.7,272-64,509.31-52.21,107.53,5.33,128,4.35,194.62,45.63" transform="translate(1.54)"/><path class="av" d="M0,287.48c29.38-45,58.36-58.44,134.52-66C264.47,208.54,313.77,277.28,496.08,304c181.94,26.68,272-62,509.31-51.24,109.72,5,127.51,3.3,194.62,46" transform="translate(1.54)"/><path class="aw" d="M0,293.08c29.38-46.67,58.36-58.68,134.52-66.53C264.47,213.17,313.77,280.31,496.08,308,678,335.67,768,247.93,1005.38,257.74c111.92,4.63,127,2.25,194.62,46.35" transform="translate(1.54)"/><path class="ax" d="M0,298.69c29.38-48.31,58.36-58.91,134.52-67C264.47,217.79,313.77,283.34,496.08,312,678,340.64,768,253.84,1005.38,262.71c114.12,4.26,126.55,1.19,194.62,46.7" transform="translate(1.54)"/><path class="ay" d="M0,304.3c29.38-50,58.36-59.14,134.52-67.54C264.47,222.42,313.77,286.36,496.08,316,678,345.62,768,259.74,1005.38,267.68c116.31,3.89,126.08.14,194.62,47.06" transform="translate(1.54)"/><path class="az" d="M0,309.9c29.38-51.6,58.36-59.38,134.52-68.05C264.47,227,313.77,289.39,496.08,320c181.94,30.57,271.85-54.4,509.31-47.37,118.51,3.51,125.6-.91,194.62,47.42" transform="translate(1.54)"/><path class="ba" d="M0,315.51c29.38-53.24,58.36-59.61,134.52-68.56C264.47,231.67,313.77,292.41,496.08,324c181.94,31.55,271.82-52.54,509.31-46.4,120.71,3.12,125.12-2,194.62,47.78" transform="translate(1.54)"/><path class="bb" d="M0,321.12C29.38,266.23,58.36,261.27,134.52,252c129.95-15.75,179.25,43.4,361.56,76,181.94,32.52,271.79-50.69,509.31-45.43,122.91,2.72,124.65-3,194.62,48.14" transform="translate(1.54)"/><path class="bc" d="M0,326.72c29.38-56.52,58.36-60.07,134.52-69.58C264.47,240.92,313.77,298.47,496.08,332c181.94,33.49,271.75-48.86,509.31-44.47,125.1,2.31,124.17-4.07,194.62,48.5" transform="translate(1.54)"/><path class="bd" d="M0,332.33C29.38,274.16,58.36,272,134.52,262.24,264.47,245.54,313.77,301.49,496.08,336,678,370.5,767.8,289,1005.38,292.53c127.3,1.9,123.69-5.12,194.62,48.85" transform="translate(1.54)"/><path class="be" d="M0,337.94c29.38-59.81,58.36-60.54,134.52-70.6,129.95-17.16,179.25,37.19,361.56,72.7C678,375.47,767.77,294.8,1005.38,297.5c129.5,1.47,123.21-6.18,194.62,49.21" transform="translate(1.54)"/><path class="bf" d="M0,343.54c29.38-61.45,58.36-60.77,134.52-71.11,129.95-17.64,179.25,35.12,361.56,71.6C678,380.45,767.74,300.6,1005.38,302.47c131.7,1,122.74-7.23,194.62,49.57" transform="translate(1.54)"/><path class="bg" d="M0,349.15c29.38-63.1,58.36-61,134.52-71.62,129.95-18.11,179.25,33,361.56,70.51C678,385.42,767.7,306.39,1005.38,307.44c133.89,0.6,122.26-8.28,194.62,49.93" transform="translate(1.54)"/><path class="bh" d="M0,354.75C29.38,290,58.36,293.51,134.52,282.62,264.47,264,313.77,313.6,496.08,352,678,390.4,767.67,312.16,1005.38,312.41c136.09,0.14,121.78-9.33,194.62,50.29" transform="translate(1.54)"/><path class="bi" d="M0,360.36C29.38,294,58.36,298.89,134.52,287.72c129.95-19.05,179.25,28.9,361.56,68.32,181.94,39.33,271.56-38.11,509.31-38.66C1143.66,317.07,1126.69,307,1200,368" transform="translate(1.54)"/><path class="bj" d="M0,366c29.38-68,58.36-61.71,134.52-73.15C264.47,273.3,313.77,319.65,496.08,360,678,400.35,767.6,323.68,1005.38,322.35c140.48-.78,120.83-11.44,194.62,51" transform="translate(1.54)"/><path class="bk" d="M0,371.57c29.38-69.67,58.36-61.94,134.52-73.66,129.95-20,179.25,24.76,361.56,66.13,181.94,41.28,271.48-34.62,509.31-36.72,142.67-1.26,120.35-12.49,194.62,51.36" transform="translate(1.54)"/><path class="bl" d="M0,377.18C29.38,305.87,58.36,315,134.52,303c129.95-20.47,179.25,22.69,361.56,65C678,410.3,767.52,335.16,1005.38,332.29c144.87-1.75,119.88-13.55,194.62,51.72" transform="translate(1.54)"/><path class="bm" d="M0,382.79c29.38-73,58.36-62.41,134.52-74.68C264.47,287.17,313.77,328.73,496.08,372c181.94,43.23,271.4-31.56,509.31-34.78,147.05-2.49,119.4-14.6,194.62,52.08" transform="translate(1.54)"/><path class="bn" d="M0,388.39c29.38-74.6,58.36-62.64,134.52-75.19C264.47,291.8,313.77,331.76,496.08,376c181.94,44.2,271.36-29.65,509.31-33.81,149.25-2.87,118.92-15.65,194.62,52.44" transform="translate(1.54)"/><path class="bo" d="M0,394c29.38-76.24,58.36-62.87,134.52-75.7,129.95-21.88,179.25,16.48,361.56,61.75C678,425.23,767.39,352.32,1005.38,347.2c151.44-3.26,118.45-16.7,194.62,52.8" transform="translate(1.54)"/></g><circle class="bp" cx="629.54" cy="292.9" r="60.3"/><polygon class="bq" points="1.64 275.6 33.84 244.1 132.64 311.5 195.44 289.4 258.24 334.7 378.04 355.7 452.44 334.8 538.44 356 696.54 356 723.34 342.9 741.94 356 801.54 356 961.74 300.1 1058.24 347.6 1201.54 346.4 1201.54 400 1.54 400 1.64 275.6"/><polyline class="br" points="102.34 304.3 160.54 349.7 269.84 362 454.54 362 496.64 328.6 528.04 362 771.04 356.7 1031.54 348.5 1117.54 356.7 1190.84 296.2 1201.54 317.1 1201.54 394 1.54 394 1.84 368.3"/><path class="bs" d="M1158.8,353.3c0,14.4-19.3,10.2-43.1,10.2s-43.1,4.2-43.1-10.2,19.3-26,43.1-26S1158.8,338.9,1158.8,353.3Z" transform="translate(1.54)"/><ellipse class="bt" cx="1117.24" cy="332.9" rx="16.7" ry="3.5"/><rect class="bt" x="1074.14" y="354.1" width="86.2" height="18.7"/><path class="bs" d="M776.4,360.5c0,5.8-7.8,4.1-17.4,4.1s-17.4,1.7-17.4-4.1S749.4,350,759,350,776.4,354.7,776.4,360.5Z" transform="translate(1.54)"/><ellipse class="bt" cx="760.54" cy="352.3" rx="6.7" ry="1.4"/><rect class="bt" x="743.14" y="360.8" width="34.8" height="7.5"/><path class="bs" d="M164.4,364.7c0,5.8-7.8,4.1-17.4,4.1s-17.4,1.7-17.4-4.1,7.8-10.5,17.4-10.5S164.4,358.9,164.4,364.7Z" transform="translate(1.54)"/><ellipse class="bt" cx="148.54" cy="356.5" rx="6.7" ry="1.4"/><rect class="bt" x="131.14" y="365.1" width="34.8" height="7.5"/><polygon class="bu" points="1.54 304.3 36.14 269.3 137.34 368 803.54 368 855.94 327.8 966.34 325.5 1033.84 368 1138.54 368 1201.54 323.1 1201.54 400 1.54 400 1.54 304.3"/><g class="bv"><ellipse class="bw" cx="596.54" cy="347.8" rx="12.9" ry="10.8"/><ellipse class="bw" cx="606.84" cy="359.9" rx="12.9" ry="10.8"/><ellipse class="bw" cx="621.54" cy="352.5" rx="12.9" ry="10.8"/><ellipse class="bw" cx="635.14" cy="361.4" rx="12.9" ry="10.8"/><ellipse class="bw" cx="646.54" cy="349.1" rx="12.9" ry="10.8"/><ellipse class="bw" cx="663.34" cy="339.8" rx="12.9" ry="10.8"/><ellipse class="bw" cx="581.64" cy="347" rx="12.9" ry="10.8"/><ellipse class="bw" cx="599.64" cy="334.9" rx="12.9" ry="10.8"/><ellipse class="bw" cx="622.24" cy="336.2" rx="9.3" ry="7.8"/><ellipse class="bw" cx="661.94" cy="362.6" rx="12.9" ry="10.8"/><ellipse class="bw" cx="671.04" cy="350.6" rx="12.9" ry="10.8"/><ellipse class="bw" cx="681.24" cy="338.3" rx="12.9" ry="10.8"/><ellipse class="bw" cx="665.04" cy="330.2" rx="12.9" ry="10.8"/><ellipse class="bw" cx="612.54" cy="323" rx="12.9" ry="10.8"/><ellipse class="bw" cx="634.44" cy="323" rx="12.9" ry="10.8"/><ellipse class="bw" cx="650.44" cy="320.3" rx="12.9" ry="10.8"/><ellipse class="bw" cx="630.84" cy="312.2" rx="12.9" ry="10.8"/></g><rect class="bx" x="144.35" y="112.48" width="12.81" height="6.9" transform="translate(-36.81 136.11) rotate(-43.65)"/><path class="bx" d="M144.57,130.75a0.31,0.31,0,0,1-.49,0L135.7,122a0.31,0.31,0,0,1,0-.49l3-2.87a0.31,0.31,0,0,1,.49,0l8.38,8.71a0.31,0.31,0,0,1,0,.49Z" transform="translate(1.54)"/><line class="by" x1="144.14" y1="113.92" x2="131.25" y2="100.45"/><path class="bt" d="M134.31,111.21l-15-15.69a2.18,2.18,0,0,1,.08-3l2.79-2.71a2.18,2.18,0,0,1,3,.08l15,15.69a2.18,2.18,0,0,1-.08,3l-2.79,2.71A2.26,2.26,0,0,1,134.31,111.21Z" transform="translate(1.54)"/><line class="bz" x1="123.53" y1="89.94" x2="141.43" y2="108.75"/><line class="bz" x1="120.98" y1="92.32" x2="138.97" y2="111.13"/><line class="bz" x1="134.2" y1="97.66" x2="128.29" y2="103.33"/><line class="bz" x1="141.76" y1="105.54" x2="135.85" y2="111.21"/><line class="bz" x1="126.65" y1="89.94" x2="120.74" y2="95.61"/><path class="ca" d="M147.77,130.51a0.31,0.31,0,0,1-.49,0l-11.17-11.66a0.31,0.31,0,0,1,0-.49l10.59-10.1a0.31,0.31,0,0,1,.49,0l11.09,11.66a0.31,0.31,0,0,1,0,.49Z" transform="translate(1.54)"/><line class="by" x1="153.83" y1="124.27" x2="166.64" y2="137.65"/><path class="bt" d="M154.67,132.64l15,15.69a2.18,2.18,0,0,0,3,.08l2.79-2.71a2.18,2.18,0,0,0,.08-3l-15-15.69a2.18,2.18,0,0,0-3-.08l-2.79,2.71A2.11,2.11,0,0,0,154.67,132.64Z" transform="translate(1.54)"/><line class="bz" x1="176.83" y1="145.95" x2="158.84" y2="127.14"/><line class="bz" x1="174.28" y1="148.33" x2="156.38" y2="129.52"/><line class="bz" x1="169.6" y1="134.86" x2="163.69" y2="140.53"/><line class="bz" x1="162.13" y1="126.98" x2="156.21" y2="132.64"/><line class="bz" x1="176.99" y1="142.83" x2="171.08" y2="148.49"/><path class="bw" d="M163.38,114.08c-1.81,1.72-5.5.74-8.29-2.22s-3.61-6.65-1.81-8.38,2.79,1.81,5.58,4.76S165.19,112.36,163.38,114.08Z" transform="translate(1.54)"/><circle class="bx" cx="159.21" cy="107.93" r="1.72" transform="translate(-28.95 139.73) rotate(-43.65)"/><path class="bx" d="M141.7,131.33a0.31,0.31,0,0,1-.49,0L135,124.84a0.31,0.31,0,0,1,0-.49l2.14-2.05a0.31,0.31,0,0,1,.49,0l6.16,6.49a0.31,0.31,0,0,1,0,.49Z" transform="translate(1.54)"/><path class="cb" d="M128.39,137.65l-35.4,22a1.28,1.28,0,0,0-.25,2.05l45.5,45.09a1.69,1.69,0,0,1,0,2.38L81.5,269.3" transform="translate(1.54)"/><polygon class="cc" points="1100.54 102.95 1102.88 107.32 1107.24 109.66 1102.88 112.07 1100.54 116.36 1098.13 112.07 1093.84 109.66 1098.13 107.32 1100.54 102.95"/><polygon class="cd" points="11.54 98.6 12.34 100.2 13.94 101 12.34 101.9 11.54 103.4 10.64 101.9 9.14 101 10.64 100.2 11.54 98.6"/><polygon class="cd" points="153.54 266.6 154.34 268.2 155.94 269 154.34 269.9 153.54 271.4 152.64 269.9 151.14 269 152.64 268.2 153.54 266.6"/><polygon class="cd" points="560.54 319.6 561.34 321.2 562.94 322 561.34 322.9 560.54 324.4 559.64 322.9 558.14 322 559.64 321.2 560.54 319.6"/><polygon class="cd" points="817.54 332.6 818.34 334.2 819.94 335 818.34 335.9 817.54 337.4 816.64 335.9 815.14 335 816.64 334.2 817.54 332.6"/><polygon class="ce" points="869.54 243.7 870.64 245.8 872.84 247 870.64 248.2 869.54 250.3 868.34 248.2 866.24 247 868.34 245.8 869.54 243.7"/><polygon class="ce" points="250.14 199.8 251.84 203 255.04 204.7 251.84 206.4 250.14 209.5 248.44 206.4 245.34 204.7 248.44 203 250.14 199.8"/><polygon class="cf" points="708.14 159.8 709.84 163 713.04 164.7 709.84 166.4 708.14 169.5 706.44 166.4 703.34 164.7 706.44 163 708.14 159.8"/><polygon class="cf" points="1062.14 245.8 1063.84 249 1067.04 250.7 1063.84 252.4 1062.14 255.5 1060.44 252.4 1057.34 250.7 1060.44 249 1062.14 245.8"/><polygon class="cg" points="388.14 271.8 389.84 275 393.04 276.7 389.84 278.4 388.14 281.5 386.44 278.4 383.34 276.7 386.44 275 388.14 271.8"/><polygon class="cg" points="866.14 43.8 867.84 47 871.04 48.7 867.84 50.4 866.14 53.5 864.44 50.4 861.34 48.7 864.44 47 866.14 43.8"/><polygon class="cg" points="492.14 98.8 493.84 102 497.04 103.7 493.84 105.4 492.14 108.5 490.44 105.4 487.34 103.7 490.44 102 492.14 98.8"/><polygon class="cg" points="239.69 48.65 241.39 51.85 244.59 53.55 241.39 55.25 239.69 58.35 237.99 55.25 234.89 53.55 237.99 51.85 239.69 48.65"/><g class="ch"><path class="ci" d="M624,296" transform="translate(1.54)"/><path class="ci" d="M628.1,303.1" transform="translate(1.54)"/><rect class="ci" x="622.84" y="219.4" width="13.6" height="67.9"/><ellipse class="ci" cx="629.64" cy="220.2" rx="6.8" ry="8.5"/><path class="ci" d="M623,270.6c0-.3-0.3-0.3-0.4,0l-10.4,25.7c-0.1.2-.1,0.3,0.1,0.1l10.2-11.3a1.77,1.77,0,0,0,.5-0.8V270.6h0Z" transform="translate(1.54)"/><path class="ci" d="M633,269.9h0l10.3,25.6c0.1,0.2,0,.3-0.2.1l-9.9-11.3a1.2,1.2,0,0,1-.2-0.8V269.9h0Z" transform="translate(1.54)"/></g><g class="ch"><line class="cj" x1="629.64" y1="299" x2="629.64" y2="305"/><line class="ck" x1="629.64" y1="316.4" x2="629.64" y2="333.4"/><line class="cj" x1="629.64" y1="339.1" x2="629.64" y2="345.1"/></g><rect class="cl" x="604.64" y="351.8" width="50" height="4.2"/><polygon class="cm" points="254.24 390 254.64 385.2 240.64 375.3 225.34 382.8 224.84 390 254.24 390"/><polygon class="cn" points="879.64 386 880.04 382.2 862.54 374.1 843.24 380.2 842.54 386 879.64 386"/><polygon class="cm" points="1180.64 386 1177.94 382.1 1175.24 378.2 1181.74 376.5 1188.34 374.9 1184.54 380.5 1180.64 386"/><polygon class="co" points="473.34 378.5 473.64 381.8 473.94 385 468.14 383.9 462.24 382.8 467.84 380.7 473.34 378.5"/><polygon class="co" points="1015.34 369.5 1015.64 372.8 1015.94 376 1010.14 374.9 1004.24 373.8 1009.84 371.7 1015.34 369.5"/><polygon class="cp" points="80.44 369.9 83.24 364.1 85.94 358.2 88.54 363 91.14 367.8 85.84 368.8 80.44 369.9"/></svg>