<?xml version="1.0" encoding="utf-8"?>
<!-- Generator: Adobe Illustrator 19.2.0, SVG Export Plug-In . SVG Version: 6.00 Build 0)  -->
<svg version="1.1" xmlns="http://www.w3.org/2000/svg" xmlns:xlink="http://www.w3.org/1999/xlink" x="0px" y="0px"
	 viewBox="0 0 1200 400" style="enable-background:new 0 0 1200 400;" xml:space="preserve">
<style type="text/css">
	.st0{fill:url(#SVGID_1_);}
	.st1{fill:#E74C3C;}
	.st2{fill:#CE413A;}
	.st3{fill:#2C3E50;}
	.st4{fill:#3D566B;}
	.st5{fill:#AF342E;}
	.st6{opacity:0.1;}
	.st7{fill:#ECF0F1;}
	.st8{fill:#334856;}
	.st9{fill:none;stroke:#3C5366;stroke-width:4.406;stroke-miterlimit:10;}
	.st10{fill:none;stroke:#2C3E50;stroke-width:1.5421;stroke-miterlimit:10;}
	.st11{fill:#3C5366;}
	
		.st12{fill:none;stroke:#ECF0F1;stroke-width:2;stroke-linecap:round;stroke-linejoin:round;stroke-miterlimit:10;stroke-dasharray:12;}
	.st13{fill:#34C7DB;}
	.st14{fill:#34BBC9;}
	.st15{fill:#34C7DB;fill-opacity:0.36;}
	.st16{fill:#34C7DB;fill-opacity:0.19;}
	.st17{opacity:0.31;}
	.st18{fill:#2C464F;}
	.st19{fill:none;stroke:#ECF0F1;stroke-width:2;stroke-miterlimit:10;}
	.st20{fill:none;stroke:#ECF0F1;stroke-width:2;stroke-miterlimit:10;stroke-dasharray:11.3741,11.3741;}
	.st21{opacity:0.23;fill:#2C3E50;}
	.st22{opacity:0.21;fill:#E74C3C;}
	.st23{opacity:0.18;fill:#E74C3C;}
	.st24{opacity:0.25;fill:#E74C3C;}
	.st25{opacity:0.36;fill:#E74C3C;}
</style>
<g id="Sky">
	<linearGradient id="SVGID_1_" gradientUnits="userSpaceOnUse" x1="600" y1="400" x2="600" y2="-2.693741e-08">
		<stop  offset="0" style="stop-color:#339999"/>
		<stop  offset="0.6905" style="stop-color:#3399BC"/>
		<stop  offset="0.9811" style="stop-color:#3399CC"/>
	</linearGradient>
	<rect class="st0" width="1200" height="400"/>
</g>
<g id="Layer_2">
	<polygon class="st1" points="0.1,275.6 32.3,244.1 131.1,311.5 193.9,289.4 256.7,334.7 376.5,355.7 450.9,334.8 536.9,356 
		695,356 721.8,342.9 740.4,356 800,356 960.2,300.1 1056.7,347.6 1200,346.4 1200,400 0,400 	"/>
	<polyline class="st2" points="100.8,304.3 159,349.7 268.3,362 453,362 495.1,328.6 526.5,362 769.5,356.7 1030,348.5 1116,356.7 
		1189.3,296.2 1200,317.1 1200,394 0,394 0.3,368.3 	"/>
	<g>
		<path class="st3" d="M1158.8,353.3c0,14.4-19.3,10.2-43.1,10.2c-23.8,0-43.1,4.2-43.1-10.2s19.3-26,43.1-26
			C1139.5,327.3,1158.8,338.9,1158.8,353.3z"/>
		<ellipse class="st4" cx="1115.7" cy="332.9" rx="16.7" ry="3.5"/>
		<rect x="1072.6" y="354.1" class="st4" width="86.2" height="18.7"/>
	</g>
	<g>
		<path class="st3" d="M776.4,360.5c0,5.8-7.8,4.1-17.4,4.1c-9.6,0-17.4,1.7-17.4-4.1S749.4,350,759,350
			C768.6,350,776.4,354.7,776.4,360.5z"/>
		<ellipse class="st4" cx="759" cy="352.3" rx="6.7" ry="1.4"/>
		<rect x="741.6" y="360.8" class="st4" width="34.8" height="7.5"/>
	</g>
	<g>
		<path class="st3" d="M164.4,364.7c0,5.8-7.8,4.1-17.4,4.1s-17.4,1.7-17.4-4.1s7.8-10.5,17.4-10.5S164.4,358.9,164.4,364.7z"/>
		<ellipse class="st4" cx="147" cy="356.5" rx="6.7" ry="1.4"/>
		<rect x="129.6" y="365.1" class="st4" width="34.8" height="7.5"/>
	</g>
	<polygon class="st5" points="0,304.3 34.6,269.3 135.8,368 802,368 854.4,327.8 964.8,325.5 1032.3,368 1137,368 1200,323.1 
		1200,400 0,400 	"/>
</g>
<g id="Layer_3">
	<g class="st6">
		<ellipse class="st7" cx="595" cy="347.8" rx="12.9" ry="10.8"/>
		<ellipse class="st7" cx="605.3" cy="359.9" rx="12.9" ry="10.8"/>
		<ellipse class="st7" cx="620" cy="352.5" rx="12.9" ry="10.8"/>
		<ellipse class="st7" cx="633.6" cy="361.4" rx="12.9" ry="10.8"/>
		<ellipse class="st7" cx="645" cy="349.1" rx="12.9" ry="10.8"/>
		<ellipse class="st7" cx="661.8" cy="339.8" rx="12.9" ry="10.8"/>
		<ellipse class="st7" cx="580.1" cy="347" rx="12.9" ry="10.8"/>
		<ellipse class="st7" cx="598.1" cy="334.9" rx="12.9" ry="10.8"/>
		<ellipse class="st7" cx="620.7" cy="336.2" rx="9.3" ry="7.8"/>
		<ellipse class="st7" cx="660.4" cy="362.6" rx="12.9" ry="10.8"/>
		<ellipse class="st7" cx="669.5" cy="350.6" rx="12.9" ry="10.8"/>
		<ellipse class="st7" cx="679.7" cy="338.3" rx="12.9" ry="10.8"/>
		<ellipse class="st7" cx="663.5" cy="330.2" rx="12.9" ry="10.8"/>
		<ellipse class="st7" cx="611" cy="323" rx="12.9" ry="10.8"/>
		<ellipse class="st7" cx="632.9" cy="323" rx="12.9" ry="10.8"/>
		<ellipse class="st7" cx="648.9" cy="320.3" rx="12.9" ry="10.8"/>
		<ellipse class="st7" cx="629.3" cy="312.2" rx="12.9" ry="10.8"/>
	</g>
	<g>
		
			<rect x="158.1" y="78.4" transform="matrix(-0.7236 0.6903 -0.6903 -0.7236 342.896 27.7976)" class="st8" width="15.6" height="8.4"/>
		<g>
			<path class="st8" d="M158.3,100.6c-0.2,0.2-0.5,0.2-0.6,0l-10.2-10.7c-0.2-0.2-0.2-0.5,0-0.6l3.7-3.5c0.2-0.2,0.5-0.2,0.6,0
				L162,96.4c0.2,0.2,0.2,0.5,0,0.6L158.3,100.6z"/>
		</g>
		<line class="st9" x1="155.9" y1="80.1" x2="140.2" y2="63.7"/>
		<g>
			<path class="st4" d="M145.8,76.8l-18.3-19.1c-1-1-0.9-2.7,0.1-3.7l3.4-3.3c1-1,2.7-0.9,3.7,0.1L153,69.9c1,1,0.9,2.7-0.1,3.7
				l-3.4,3.3C148.4,77.8,146.8,77.8,145.8,76.8z"/>
			<line class="st10" x1="130.8" y1="50.9" x2="152.6" y2="73.8"/>
			<line class="st10" x1="127.7" y1="53.8" x2="149.6" y2="76.7"/>
			<line class="st10" x1="143.8" y1="60.3" x2="136.6" y2="67.2"/>
			<line class="st10" x1="153" y1="69.9" x2="145.8" y2="76.8"/>
		</g>
		<line class="st10" x1="134.6" y1="50.9" x2="127.4" y2="57.8"/>
		<g>
			<path class="st11" d="M162.2,100.3c-0.2,0.2-0.5,0.2-0.6,0L148,86.1c-0.2-0.2-0.2-0.5,0-0.6l12.9-12.3c0.2-0.2,0.5-0.2,0.6,0
				l13.5,14.2c0.2,0.2,0.2,0.5,0,0.6L162.2,100.3z"/>
		</g>
		<line class="st9" x1="167.7" y1="92.7" x2="183.3" y2="109"/>
		<g>
			<path class="st4" d="M170.6,102.9l18.3,19.1c1,1,2.6,1.1,3.7,0.1l3.4-3.3c1-1,1.1-2.6,0.1-3.7L177.8,96c-1-1-2.6-1.1-3.7-0.1
				l-3.4,3.3C169.6,100.2,169.6,101.9,170.6,102.9z"/>
			<line class="st10" x1="195.7" y1="119.1" x2="173.8" y2="96.2"/>
			<line class="st10" x1="192.6" y1="122" x2="170.8" y2="99.1"/>
			<line class="st10" x1="186.9" y1="105.6" x2="179.7" y2="112.5"/>
			<line class="st10" x1="177.8" y1="96" x2="170.6" y2="102.9"/>
		</g>
		<line class="st10" x1="195.9" y1="115.3" x2="188.7" y2="122.2"/>
		<path class="st7" d="M181.2,80.3c-2.2,2.1-6.7,0.9-10.1-2.7c-3.4-3.6-4.4-8.1-2.2-10.2c2.2-2.1,3.4,2.2,6.8,5.8
			C179.1,76.7,183.4,78.2,181.2,80.3z"/>
		<g>
			
				<ellipse transform="matrix(0.7236 -0.6903 0.6903 0.7236 -1.5549 141.6943)" class="st8" cx="176.1" cy="72.8" rx="2.1" ry="2.1"/>
		</g>
		<g>
			<path class="st8" d="M154.8,101.3c-0.2,0.2-0.5,0.2-0.6,0l-7.5-7.9c-0.2-0.2-0.2-0.5,0-0.6l2.6-2.5c0.2-0.2,0.5-0.2,0.6,0
				l7.5,7.9c0.2,0.2,0.2,0.5,0,0.6L154.8,101.3z"/>
		</g>
	</g>
	<g>
		<path class="st12" d="M138.6,109l-43.1,26.8c-0.9,0.6-1.1,1.7-0.3,2.5l55.4,54.9c0.8,0.8,0.8,2.1,0,2.9l-69.1,73.2"/>
	</g>
	<polygon class="st13" points="1081.1,65.2 1084.2,71 1090,74.1 1084.2,77.3 1081.1,83 1077.9,77.3 1072.2,74.1 1077.9,71 	"/>
	<polygon class="st14" points="10,98.6 10.8,100.2 12.4,101 10.8,101.9 10,103.4 9.1,101.9 7.6,101 9.1,100.2 	"/>
	<polygon class="st14" points="82,13.6 82.8,15.2 84.4,16 82.8,16.9 82,18.4 81.1,16.9 79.6,16 81.1,15.2 	"/>
	<polygon class="st14" points="152,266.6 152.8,268.2 154.4,269 152.8,269.9 152,271.4 151.1,269.9 149.6,269 151.1,268.2 	"/>
	<polygon class="st14" points="559,319.6 559.8,321.2 561.4,322 559.8,322.9 559,324.4 558.1,322.9 556.6,322 558.1,321.2 	"/>
	<polygon class="st14" points="816,332.6 816.8,334.2 818.4,335 816.8,335.9 816,337.4 815.1,335.9 813.6,335 815.1,334.2 	"/>
	<polygon class="st13" points="364.2,36 366.4,40 370.5,42.2 366.4,44.5 364.2,48.5 362,44.5 357.9,42.2 362,40 	"/>
	<polygon class="st13" points="868,243.7 869.1,245.8 871.3,247 869.1,248.2 868,250.3 866.8,248.2 864.7,247 866.8,245.8 	"/>
	<polygon class="st13" points="248.6,199.8 250.3,203 253.5,204.7 250.3,206.4 248.6,209.5 246.9,206.4 243.8,204.7 246.9,203 	"/>
	<polygon class="st15" points="706.6,159.8 708.3,163 711.5,164.7 708.3,166.4 706.6,169.5 704.9,166.4 701.8,164.7 704.9,163 	"/>
	<polygon class="st15" points="1060.6,245.8 1062.3,249 1065.5,250.7 1062.3,252.4 1060.6,255.5 1058.9,252.4 1055.8,250.7 
		1058.9,249 	"/>
	<polygon class="st16" points="386.6,271.8 388.3,275 391.5,276.7 388.3,278.4 386.6,281.5 384.9,278.4 381.8,276.7 384.9,275 	"/>
	<polygon class="st16" points="864.6,43.8 866.3,47 869.5,48.7 866.3,50.4 864.6,53.5 862.9,50.4 859.8,48.7 862.9,47 	"/>
	<polygon class="st16" points="490.6,98.8 492.3,102 495.5,103.7 492.3,105.4 490.6,108.5 488.9,105.4 485.8,103.7 488.9,102 	"/>
	<g class="st17">
		<path class="st18" d="M624,296"/>
		<path class="st18" d="M628.1,303.1"/>
		<g>
			<g>
				<rect x="621.3" y="219.4" class="st18" width="13.6" height="67.9"/>
				<ellipse class="st18" cx="628.1" cy="220.2" rx="6.8" ry="8.5"/>
			</g>
			<g>
				<path class="st18" d="M623,270.6c0-0.3-0.3-0.3-0.4,0l-10.4,25.7c-0.1,0.2-0.1,0.3,0.1,0.1l10.2-11.3c0.2-0.2,0.5-0.6,0.5-0.8
					V270.6z"/>
			</g>
			<g>
				<path class="st18" d="M633,269.9C633,269.6,633,269.6,633,269.9l10.3,25.6c0.1,0.2,0,0.3-0.2,0.1l-9.9-11.3
					c-0.2-0.2-0.2-0.6-0.2-0.8V269.9z"/>
			</g>
		</g>
	</g>
	<g class="st17">
		<g>
			<line class="st19" x1="628.1" y1="299" x2="628.1" y2="305"/>
			<line class="st20" x1="628.1" y1="316.4" x2="628.1" y2="333.4"/>
			<line class="st19" x1="628.1" y1="339.1" x2="628.1" y2="345.1"/>
		</g>
	</g>
	<rect x="603.1" y="351.8" class="st21" width="50" height="4.2"/>
	<polygon class="st22" points="252.7,390 253.1,385.2 239.1,375.3 223.8,382.8 223.3,390 	"/>
	<polygon class="st23" points="878.1,386 878.5,382.2 861,374.1 841.7,380.2 841,386 	"/>
	<polygon class="st22" points="1179.1,386 1176.4,382.1 1173.7,378.2 1180.2,376.5 1186.8,374.9 1183,380.5 	"/>
	<polygon class="st24" points="471.8,378.5 472.1,381.8 472.4,385 466.6,383.9 460.7,382.8 466.3,380.7 	"/>
	<polygon class="st24" points="1013.8,369.5 1014.1,372.8 1014.4,376 1008.6,374.9 1002.7,373.8 1008.3,371.7 	"/>
	<polygon class="st25" points="78.9,369.9 81.7,364.1 84.4,358.2 87,363 89.6,367.8 84.3,368.8 	"/>
</g>
</svg>
