<svg id="Layer_1" data-name="Layer 1" xmlns="http://www.w3.org/2000/svg" xmlns:xlink="http://www.w3.org/1999/xlink" viewBox="0 0 400 400"><defs><style>.cls-1{fill:#445878;}.cls-2{opacity:0.17;}.cls-3{fill:url(#linear-gradient);}.cls-4{fill:#ecf0f1;}.cls-5{fill:#c8cbcc;}.cls-6{fill:#b3b3b3;}.cls-7{fill:#2c3e50;}.cls-8{fill:#2980b9;}.cls-9{fill:#999;}.cls-10{fill:url(#linear-gradient-2);}.cls-11{fill:#34c7db;}.cls-12,.cls-13,.cls-14,.cls-15,.cls-16,.cls-17,.cls-18,.cls-19,.cls-20,.cls-21,.cls-22,.cls-23,.cls-24,.cls-25,.cls-26,.cls-27,.cls-28,.cls-29,.cls-30,.cls-31,.cls-32,.cls-33{fill:none;stroke-miterlimit:10;}.cls-12,.cls-13,.cls-14,.cls-15,.cls-16,.cls-17,.cls-18,.cls-19,.cls-20,.cls-21,.cls-22{stroke:#2980b9;}.cls-12{stroke-width:0.43px;}.cls-13{stroke-width:0.47px;}.cls-14{stroke-width:0.51px;}.cls-15{stroke-width:0.56px;}.cls-16{stroke-width:0.61px;}.cls-17{stroke-width:0.66px;}.cls-18{stroke-width:0.72px;}.cls-19{stroke-width:0.78px;}.cls-20{stroke-width:0.85px;}.cls-21{stroke-width:0.92px;}.cls-23,.cls-24,.cls-25,.cls-26,.cls-27,.cls-28,.cls-29,.cls-30,.cls-31,.cls-32,.cls-33{stroke:#b3b3b3;}.cls-23{stroke-width:0.25px;}.cls-24{stroke-width:0.27px;}.cls-25{stroke-width:0.29px;}.cls-26{stroke-width:0.32px;}.cls-27{stroke-width:0.34px;}.cls-28{stroke-width:0.37px;}.cls-29{stroke-width:0.41px;}.cls-30{stroke-width:0.44px;}.cls-31{stroke-width:0.48px;}.cls-32{stroke-width:0.52px;}.cls-33{stroke-width:0.57px;}</style><linearGradient id="linear-gradient" x1="162.53" y1="366.94" x2="239.61" y2="289.87" gradientUnits="userSpaceOnUse"><stop offset="0" stop-color="#fff"/><stop offset="1"/></linearGradient><linearGradient id="linear-gradient-2" x1="197.59" y1="310.11" x2="197.59" y2="124" gradientUnits="userSpaceOnUse"><stop offset="0" stop-color="#fff"/><stop offset="1" stop-opacity="0"/></linearGradient></defs><title>and-more</title><circle class="cls-1" cx="200" cy="200" r="200"/><g class="cls-2"><path class="cls-3" d="M274.51,325.34a2.7,2.7,0,0,0-1.57-.61H121.18c-0.5,0-.6.27-0.24,0.61l6.7,6.12a2.7,2.7,0,0,0,1.57.61H281c0.5,0,.6-0.27.24-0.61Z"/></g><rect class="cls-4" x="131.16" y="227.93" width="132.87" height="97.13" rx="1.13" ry="1.13"/><path class="cls-5" d="M274.63,324.31a1.5,1.5,0,0,1-1.39,1.1H121.94a1.5,1.5,0,0,1-1.39-1.1L118.39,315a0.86,0.86,0,0,1,.88-1.1H275.92a0.86,0.86,0,0,1,.88,1.1Z"/><polygon class="cls-6" points="221.14 317.05 174.04 317.05 173.22 313.74 221.96 313.74 221.14 317.05"/><rect class="cls-7" x="138.62" y="234.44" width="117.94" height="75.23" rx="1.17" ry="1.17"/><rect class="cls-5" x="147.44" y="241.09" width="100.3" height="63.94" rx="1.13" ry="1.13"/><rect class="cls-8" x="147.44" y="249.2" width="100.3" height="55.84"/><ellipse class="cls-9" cx="151.95" cy="245.41" rx="1.56" ry="1.74"/><ellipse class="cls-9" cx="156.75" cy="245.41" rx="1.56" ry="1.74"/><ellipse class="cls-9" cx="161.12" cy="245.41" rx="1.56" ry="1.74"/><polygon class="cls-10" points="257.05 310.11 138.13 310.11 68.13 124 327.05 124 257.05 310.11"/><circle class="cls-5" cx="105.82" cy="139.53" r="8.1"/><rect class="cls-5" x="109.87" y="104.42" width="4.05" height="35.11"/><rect class="cls-5" x="109.87" y="100.37" width="32.85" height="6.05"/><circle class="cls-5" cx="134.73" cy="135.48" r="8.1"/><rect class="cls-5" x="138.78" y="100.37" width="4.05" height="35.11"/><circle class="cls-5" cx="247.06" cy="84.99" r="5.32"/><rect class="cls-5" x="249.72" y="61.92" width="2.66" height="23.07"/><rect class="cls-5" x="249.72" y="59.26" width="21.59" height="4.66"/><circle class="cls-5" cx="266.06" cy="82.33" r="5.32"/><rect class="cls-5" x="268.73" y="59.26" width="2.66" height="23.07"/><polygon class="cls-11" points="266.07 156.09 271.16 165.39 280.46 170.48 271.16 175.57 266.07 184.87 260.98 175.57 251.68 170.48 260.98 165.39 266.07 156.09"/><polygon class="cls-11" points="190.91 63.84 184.6 72.02 183.71 82.32 175.53 76.01 165.23 75.12 171.54 66.93 172.43 56.64 180.62 62.94 190.91 63.84"/><polygon class="cls-12" points="177.01 185.33 168.35 185.33 164.01 177.82 168.35 170.32 177.01 170.32 181.35 177.82 177.01 185.33"/><polygon class="cls-13" points="176.51 186.43 167.14 185.44 163.31 176.84 168.85 169.22 178.22 170.2 182.05 178.81 176.51 186.43"/><polygon class="cls-14" points="175.85 187.56 165.83 185.43 162.66 175.69 169.52 168.08 179.53 170.21 182.7 179.95 175.85 187.56"/><polygon class="cls-15" points="175 188.71 164.41 185.27 162.1 174.38 170.37 166.94 180.95 170.38 183.27 181.26 175 188.71"/><polygon class="cls-16" points="173.95 189.85 162.89 184.93 161.63 172.9 171.42 165.79 182.47 170.71 183.74 182.74 173.95 189.85"/><polygon class="cls-17" points="172.68 190.97 161.29 184.4 161.29 171.25 172.68 164.67 184.07 171.25 184.07 184.4 172.68 190.97"/><polygon class="cls-18" points="171.19 192.04 159.62 183.64 161.12 169.42 174.18 163.61 185.74 172.01 184.25 186.22 171.19 192.04"/><polygon class="cls-19" points="169.45 193.02 157.91 182.62 161.13 167.43 175.91 162.63 187.46 173.02 184.23 188.22 169.45 193.02"/><polygon class="cls-20" points="167.46 193.88 156.16 181.33 161.38 165.27 177.9 161.76 189.2 174.31 183.98 190.37 167.46 193.88"/><polygon class="cls-21" points="165.22 194.59 154.43 179.74 161.89 162.97 180.15 161.05 190.94 175.9 183.47 192.67 165.22 194.59"/><polygon class="cls-22" points="162.71 195.1 152.73 177.82 162.71 160.54 182.66 160.54 192.63 177.82 182.66 195.1 162.71 195.1"/><polygon class="cls-23" points="227.8 132.25 224.09 129.03 225.03 124.21 229.67 122.6 233.38 125.82 232.45 130.65 227.8 132.25"/><polygon class="cls-24" points="227.18 132.54 223.53 128.63 225.09 123.52 230.29 122.32 233.94 126.22 232.38 131.33 227.18 132.54"/><polygon class="cls-25" points="226.47 132.77 222.97 128.14 225.24 122.79 231 122.08 234.5 126.72 232.24 132.06 226.47 132.77"/><polygon class="cls-26" points="225.68 132.95 222.43 127.54 225.48 122.02 231.79 121.91 235.05 127.31 231.99 132.84 225.68 132.95"/><polygon class="cls-27" points="224.81 133.05 221.9 126.83 225.83 121.21 232.67 121.8 235.57 128.02 231.64 133.64 224.81 133.05"/><polygon class="cls-28" points="223.85 133.06 221.42 126.01 226.3 120.38 233.63 121.8 236.06 128.84 231.17 134.48 223.85 133.06"/><polygon class="cls-29" points="222.81 132.96 220.99 125.06 226.91 119.53 234.66 121.89 236.49 129.79 230.57 135.32 222.81 132.96"/><polygon class="cls-30" points="221.71 132.74 220.63 123.99 227.66 118.68 235.77 122.12 236.85 130.86 229.82 136.17 221.71 132.74"/><polygon class="cls-31" points="220.53 132.37 220.36 122.79 228.56 117.85 236.94 122.49 237.12 132.06 228.91 137 220.53 132.37"/><polygon class="cls-32" points="219.31 131.83 220.21 121.46 229.64 117.06 238.17 123.02 237.27 133.39 227.84 137.8 219.31 131.83"/><polygon class="cls-33" points="218.04 131.12 220.19 120.01 230.89 116.32 239.43 123.73 237.28 134.84 226.59 138.53 218.04 131.12"/></svg>