<?xml version="1.0" encoding="utf-8"?>
<!-- Generator: Adobe Illustrator 19.2.0, SVG Export Plug-In . SVG Version: 6.00 Build 0)  -->
<svg version="1.1" id="Layer_1" xmlns="http://www.w3.org/2000/svg" xmlns:xlink="http://www.w3.org/1999/xlink" x="0px" y="0px"
	 viewBox="0 0 400 400" style="enable-background:new 0 0 400 400;" xml:space="preserve">
<style type="text/css">
	.st0{fill:#445878;}
	.st1{fill:#C8CBCC;}
	.st2{fill:#2C3E50;}
	.st3{fill:#999999;}
	.st4{fill:#34C7DB;}
	.st5{fill:#ECF0F1;}
	.st6{fill:#2980B9;}
	.st7{fill:#34BBC9;}
	.st8{fill:#3498DB;}
	.st9{fill:none;stroke:#34C7DB;stroke-width:3;stroke-miterlimit:10;}
</style>
<circle class="st0" cx="200" cy="200" r="200"/>
<g>
	<path class="st1" d="M238,220.9c0,1.2-0.9,2.1-2.1,2.1H53.1c-1.2,0-2.1-0.9-2.1-2.1V106.1c0-1.2,0.9-2.1,2.1-2.1h182.8
		c1.2,0,2.1,0.9,2.1,2.1V220.9z"/>
</g>
<rect x="51" y="119" class="st2" width="187" height="105"/>
<ellipse class="st3" cx="59.2" cy="112.4" rx="2.9" ry="3.3"/>
<ellipse class="st3" cx="68.2" cy="112.4" rx="2.9" ry="3.3"/>
<ellipse class="st3" cx="76.4" cy="112.4" rx="2.9" ry="3.3"/>
<g>
	<circle class="st4" cx="121.8" cy="167.4" r="20.9"/>
	<circle class="st5" cx="121.8" cy="167.4" r="9.4"/>
	<rect x="115.2" y="137.7" class="st4" width="13.2" height="13.2"/>
	
		<rect x="98.9" y="144.5" transform="matrix(0.7071 -0.7071 0.7071 0.7071 -75.9265 118.8299)" class="st4" width="13.2" height="13.2"/>
	
		<rect x="92.1" y="160.8" transform="matrix(4.495344e-11 -1 1 4.495344e-11 -68.7119 266.1212)" class="st4" width="13.2" height="13.2"/>
	
		<rect x="98.9" y="177.2" transform="matrix(-0.7071 -0.7071 0.7071 -0.7071 50.118 388.2931)" class="st4" width="13.2" height="13.2"/>
	
		<rect x="115.2" y="183.9" transform="matrix(-1 -8.990643e-11 8.990643e-11 -1 243.6548 381.0785)" class="st4" width="13.2" height="13.2"/>
	
		<rect x="131.6" y="177.2" transform="matrix(-0.7071 0.7071 -0.7071 -0.7071 365.8267 216.0032)" class="st4" width="13.2" height="13.2"/>
	
		<rect x="138.3" y="160.8" transform="matrix(-1.347217e-10 1 -1 -1.347217e-10 312.3666 22.4665)" class="st4" width="13.2" height="13.2"/>
	
		<rect x="131.6" y="144.5" transform="matrix(0.7071 0.7071 -0.7071 0.7071 147.2913 -53.46)" class="st4" width="13.2" height="13.2"/>
</g>
<g>
	<circle class="st4" cx="169.8" cy="179.8" r="14.6"/>
	<circle class="st5" cx="169.8" cy="179.8" r="6.6"/>
	<rect x="165.2" y="159" class="st4" width="9.3" height="9.3"/>
	
		<rect x="153.7" y="163.7" transform="matrix(0.7071 -0.7071 0.7071 0.7071 -72.6567 161.2991)" class="st4" width="9.3" height="9.3"/>
	
		<rect x="149" y="175.2" transform="matrix(4.496409e-11 -1 1 4.496409e-11 -26.2013 333.4512)" class="st4" width="9.3" height="9.3"/>
	
		<rect x="153.7" y="186.7" transform="matrix(-0.7071 -0.7071 0.7071 -0.7071 135.0978 438.5565)" class="st4" width="9.3" height="9.3"/>
	
		<rect x="165.2" y="191.4" transform="matrix(-1 -8.973235e-11 8.973235e-11 -1 339.6985 392.1012)" class="st4" width="9.3" height="9.3"/>
	
		<rect x="176.7" y="186.7" transform="matrix(-0.7071 0.7071 -0.7071 -0.7071 444.8039 198.3534)" class="st4" width="9.3" height="9.3"/>
	
		<rect x="181.4" y="175.2" transform="matrix(-1.345983e-10 1 -1 -1.345983e-10 365.8999 -6.2474)" class="st4" width="9.3" height="9.3"/>
	
		<rect x="176.7" y="163.7" transform="matrix(0.7071 0.7071 -0.7071 0.7071 172.1521 -78.904)" class="st4" width="9.3" height="9.3"/>
</g>
<g>
	<g>
		<path class="st5" d="M343.2,301.8c0,2.5-2.1,4.6-4.6,4.6h-176c-2.5,0-4.6-2.1-4.6-4.6V189.2c0-2.5,2.1-4.6,4.6-4.6h176
			c2.5,0,4.6,2.1,4.6,4.6V301.8z"/>
	</g>
	<g>
		<rect x="172" y="193" class="st6" width="158" height="105"/>
		<rect x="172" y="193" class="st7" width="42" height="105"/>
		<rect x="176" y="208" class="st8" width="17" height="3"/>
		<rect x="176" y="238" class="st6" width="8" height="2"/>
		<rect x="190" y="264" class="st6" width="9" height="2"/>
		<rect x="176" y="217" class="st6" width="17" height="2"/>
		<rect x="176" y="264" class="st6" width="12" height="2"/>
		<rect x="188" y="238" class="st6" width="7" height="2"/>
		<rect x="176" y="250" class="st8" width="17" height="3"/>
		<rect x="176" y="279" class="st8" width="19" height="2"/>
		<rect x="176" y="225" class="st8" width="12" height="3"/>
		<rect x="190" y="225" class="st8" width="9" height="3"/>
		<rect x="199" y="279" class="st8" width="4" height="2"/>
		<g>
			<path class="st8" d="M318,223.1c0,1.1-0.9,1.9-1.9,1.9h-89.1c-1.1,0-1.9-0.9-1.9-1.9v-16.1c0-1.1,0.9-1.9,1.9-1.9h89.1
				c1.1,0,1.9,0.9,1.9,1.9V223.1z"/>
		</g>
		<g>
			<path class="st8" d="M318,254.1c0,1.1-0.9,1.9-1.9,1.9h-89.1c-1.1,0-1.9-0.9-1.9-1.9v-16.1c0-1.1,0.9-1.9,1.9-1.9h89.1
				c1.1,0,1.9,0.9,1.9,1.9V254.1z"/>
		</g>
		<g>
			<path class="st8" d="M318,284.1c0,1.1-0.9,1.9-1.9,1.9h-89.1c-1.1,0-1.9-0.9-1.9-1.9v-16.1c0-1.1,0.9-1.9,1.9-1.9h89.1
				c1.1,0,1.9,0.9,1.9,1.9V284.1z"/>
		</g>
	</g>
	<g>
		<path class="st2" d="M339,264.9c0,2.5-0.9,4.6-2,4.6s-2-2.1-2-4.6v-38.8c0-2.5,0.9-4.6,2-4.6s2,2.1,2,4.6V264.9z"/>
	</g>
	<ellipse class="st2" cx="164.5" cy="245.6" rx="3.8" ry="4.4"/>
	<ellipse class="st2" cx="164.5" cy="259.6" rx="3.8" ry="4.4"/>
	<ellipse class="st2" cx="164.5" cy="230" rx="3.8" ry="4.4"/>
</g>
<g>
	<g>
		<path class="st9" d="M308.9,173.2c0,0,12.5-34.7-54.7-35.5"/>
		<g>
			<polygon class="st4" points="264.5,125.8 266.5,128.1 255.4,137.8 265.9,148.2 263.8,150.3 251,137.7 			"/>
		</g>
	</g>
</g>
<g>
	<g>
		<path class="st9" d="M76.4,239.5c0,0-0.5,44.4,58.6,36.7"/>
		<g>
			<polygon class="st4" points="126.4,289.4 124.1,287.4 133.8,276.2 121.9,267.4 123.7,265 138.2,275.7 			"/>
		</g>
	</g>
</g>
</svg>
