<svg id="Layer_1" data-name="Layer 1" xmlns="http://www.w3.org/2000/svg" viewBox="0 0 400 400"><defs><style>.cls-1{fill:#445878;}.cls-2{fill:#c8cbcc;}.cls-3{fill:#2c3e50;}.cls-4{fill:#999;}.cls-10,.cls-16,.cls-5,.cls-7,.cls-8{fill:#34c7db;}.cls-10,.cls-15,.cls-5,.cls-6,.cls-7,.cls-8,.cls-9{stroke:#34c7db;stroke-miterlimit:10;}.cls-5{stroke-width:10.53px;}.cls-11,.cls-6,.cls-9{fill:#ecf0f1;}.cls-6,.cls-7{stroke-width:4.74px;}.cls-8{stroke-width:7.39px;}.cls-10,.cls-9{stroke-width:3.33px;}.cls-12{fill:#2980b9;}.cls-13{fill:#34bbc9;}.cls-14{fill:#3498db;}.cls-15{fill:none;stroke-width:3px;}</style></defs><title>back-end-development</title><circle class="cls-1" cx="200" cy="200" r="200"/><rect class="cls-2" x="51" y="104" width="187" height="119" rx="2.12" ry="2.12"/><rect class="cls-3" x="51" y="119" width="187" height="105"/><ellipse class="cls-4" cx="59.22" cy="112.37" rx="2.91" ry="3.26"/><ellipse class="cls-4" cx="68.2" cy="112.37" rx="2.91" ry="3.26"/><ellipse class="cls-4" cx="76.36" cy="112.37" rx="2.91" ry="3.26"/><circle class="cls-5" cx="121.83" cy="167.42" r="20.87"/><circle class="cls-6" cx="121.83" cy="167.42" r="9.39"/><rect class="cls-7" x="115.21" y="137.68" width="13.23" height="13.23"/><rect class="cls-7" x="98.86" y="144.45" width="13.23" height="13.23" transform="translate(-75.93 118.83) rotate(-45)"/><rect class="cls-7" x="92.09" y="160.8" width="13.23" height="13.23" transform="translate(-68.71 266.12) rotate(-90)"/><rect class="cls-7" x="98.86" y="177.15" width="13.23" height="13.23" transform="translate(50.12 388.29) rotate(-135)"/><rect class="cls-7" x="115.21" y="183.92" width="13.23" height="13.23" transform="translate(243.65 381.08) rotate(-180)"/><rect class="cls-7" x="131.56" y="177.15" width="13.23" height="13.23" transform="translate(365.83 216) rotate(135)"/><rect class="cls-7" x="138.33" y="160.8" width="13.23" height="13.23" transform="translate(312.37 22.47) rotate(90)"/><rect class="cls-7" x="131.56" y="144.45" width="13.23" height="13.23" transform="translate(147.29 -53.46) rotate(45)"/><circle class="cls-8" cx="169.85" cy="179.83" r="14.64"/><circle class="cls-9" cx="169.85" cy="179.83" r="6.59"/><rect class="cls-10" x="165.21" y="158.96" width="9.28" height="9.28"/><rect class="cls-10" x="153.73" y="163.71" width="9.28" height="9.28" transform="translate(-72.66 161.3) rotate(-45)"/><rect class="cls-10" x="148.98" y="175.18" width="9.28" height="9.28" transform="translate(-26.2 333.45) rotate(-90)"/><rect class="cls-10" x="153.73" y="186.66" width="9.28" height="9.28" transform="translate(135.1 438.56) rotate(-135)"/><rect class="cls-10" x="165.21" y="191.41" width="9.28" height="9.28" transform="translate(339.7 392.1) rotate(-180)"/><rect class="cls-10" x="176.68" y="186.66" width="9.28" height="9.28" transform="translate(444.8 198.35) rotate(135)"/><rect class="cls-10" x="181.43" y="175.18" width="9.28" height="9.28" transform="translate(365.9 -6.25) rotate(90)"/><rect class="cls-10" x="176.68" y="163.71" width="9.28" height="9.28" transform="translate(172.15 -78.9) rotate(45)"/><rect class="cls-11" x="158.04" y="184.57" width="185.18" height="121.85" rx="4.6" ry="4.6"/><rect class="cls-12" x="172" y="193" width="158" height="105"/><rect class="cls-13" x="172" y="193" width="42" height="105"/><rect class="cls-14" x="176" y="208" width="17" height="3"/><rect class="cls-12" x="176" y="238" width="8" height="2"/><rect class="cls-12" x="190" y="264" width="9" height="2"/><rect class="cls-12" x="176" y="217" width="17" height="2"/><rect class="cls-12" x="176" y="264" width="12" height="2"/><rect class="cls-12" x="188" y="238" width="7" height="2"/><rect class="cls-14" x="176" y="250" width="17" height="3"/><rect class="cls-14" x="176" y="279" width="19" height="2"/><rect class="cls-14" x="176" y="225" width="12" height="3"/><rect class="cls-14" x="190" y="225" width="9" height="3"/><rect class="cls-14" x="199" y="279" width="4" height="2"/><rect class="cls-14" x="225" y="205" width="93" height="20" rx="1.95" ry="1.95"/><rect class="cls-14" x="225" y="236" width="93" height="20" rx="1.95" ry="1.95"/><rect class="cls-14" x="225" y="266" width="93" height="20" rx="1.95" ry="1.95"/><path class="cls-3" d="M339,264.91c0,2.53-.9,4.6-2,4.6s-2-2.07-2-4.6V226.09c0-2.53.9-4.6,2-4.6s2,2.07,2,4.6v38.82Z"/><ellipse class="cls-3" cx="164.49" cy="245.57" rx="3.75" ry="4.43"/><ellipse class="cls-3" cx="164.49" cy="259.57" rx="3.75" ry="4.43"/><ellipse class="cls-3" cx="164.49" cy="230" rx="3.75" ry="4.43"/><path class="cls-15" d="M308.95,173.24s12.48-34.7-54.69-35.54"/><polygon class="cls-16" points="264.55 125.8 266.53 128.05 255.4 137.8 265.94 148.19 263.83 150.32 251 137.68 264.55 125.8"/><path class="cls-15" d="M76.36,239.5S75.84,283.92,135,276.21"/><polygon class="cls-16" points="126.41 289.38 124.13 287.42 133.8 276.23 121.93 267.4 123.72 264.99 138.18 275.75 126.41 289.38"/></svg>