<svg id="Layer_1" data-name="Layer 1" xmlns="http://www.w3.org/2000/svg" xmlns:xlink="http://www.w3.org/1999/xlink" viewBox="0 0 400 400"><defs><style>.cls-1{fill:#445878;}.cls-2{opacity:0.17;}.cls-3{fill:url(#linear-gradient);}.cls-4{fill:#ecf0f1;}.cls-5{fill:#c8cbcc;}.cls-6{fill:#b3b3b3;}.cls-7{fill:#2c3e50;}.cls-8{fill:#2980b9;}.cls-9{fill:#999;}.cls-10{fill:#34bbc9;}.cls-11{fill:#3498db;}</style><linearGradient id="linear-gradient" x1="130" y1="362.43" x2="274" y2="218.44" gradientUnits="userSpaceOnUse"><stop offset="0" stop-color="#fff"/><stop offset="1"/></linearGradient></defs><title>front-end-development</title><circle class="cls-1" cx="200" cy="200" r="200"/><g class="cls-2"><path class="cls-3" d="M339.2,284.72a5,5,0,0,0-2.93-1.14H52.73c-0.93,0-1.13.51-.44,1.14L64.8,296.15a5,5,0,0,0,2.93,1.14H351.27c0.93,0,1.13-.51.44-1.14Z"/></g><rect class="cls-4" x="71.38" y="102.71" width="248.24" height="181.47" rx="2.12" ry="2.12"/><path class="cls-5" d="M339.43,282.79a2.8,2.8,0,0,1-2.59,2.06H54.16a2.8,2.8,0,0,1-2.59-2.06l-4-17.43a1.61,1.61,0,0,1,1.64-2.06H341.84a1.61,1.61,0,0,1,1.64,2.06Z"/><polygon class="cls-6" points="239.5 269.23 151.5 269.23 149.97 263.03 241.03 263.03 239.5 269.23"/><rect class="cls-7" x="85.32" y="114.88" width="220.36" height="140.55" rx="2.19" ry="2.19"/><rect class="cls-5" x="101.8" y="127.31" width="187.4" height="119.46" rx="2.12" ry="2.12"/><rect class="cls-8" x="101.8" y="142.45" width="187.4" height="104.32"/><ellipse class="cls-9" cx="110.22" cy="135.37" rx="2.91" ry="3.26"/><ellipse class="cls-9" cx="119.2" cy="135.37" rx="2.91" ry="3.26"/><ellipse class="cls-9" cx="127.36" cy="135.37" rx="2.91" ry="3.26"/><rect class="cls-10" x="101.8" y="142.45" width="50.04" height="104.32"/><rect class="cls-11" x="107.31" y="157.42" width="19.51" height="2.54"/><rect class="cls-8" x="107.31" y="186.68" width="9.76" height="2.54"/><rect class="cls-8" x="124.43" y="212.57" width="9.76" height="2.54"/><rect class="cls-8" x="107.31" y="165.84" width="20.05" height="2.54"/><rect class="cls-8" x="107.31" y="212.57" width="14.81" height="2.54"/><rect class="cls-8" x="120.52" y="186.68" width="9.76" height="2.54"/><rect class="cls-11" x="107.31" y="199.08" width="19.51" height="2.54"/><rect class="cls-11" x="106.53" y="227.92" width="23.74" height="2.54"/><rect class="cls-11" x="107.31" y="174.27" width="14.81" height="2.54"/><rect class="cls-11" x="124.45" y="174.27" width="9.73" height="2.54"/><rect class="cls-11" x="134.18" y="227.92" width="4.86" height="2.54"/><rect class="cls-11" x="165.68" y="154.41" width="109.46" height="19.56" rx="2.12" ry="2.12"/><rect class="cls-11" x="165.68" y="184.78" width="109.46" height="19.56" rx="2.12" ry="2.12"/><rect class="cls-11" x="165.68" y="214.96" width="109.46" height="19.56" rx="2.12" ry="2.12"/></svg>