<svg id="Layer_1" data-name="Layer 1" xmlns="http://www.w3.org/2000/svg" viewBox="0 0 400 400"><defs><style>.cls-1{fill:#445878;}.cls-2,.cls-6,.cls-7,.cls-9{fill:none;}.cls-2,.cls-8,.cls-9{stroke:#2c3e50;}.cls-2,.cls-3,.cls-6,.cls-7,.cls-8,.cls-9{stroke-miterlimit:10;}.cls-2,.cls-3{stroke-width:3.3px;}.cls-3{fill:#3498db;stroke:#2980b9;}.cls-4{fill:#34c7db;}.cls-5{fill:#ecf0f1;}.cls-6,.cls-7{stroke:#ecf0f1;}.cls-6,.cls-8{stroke-width:1.1px;}.cls-7,.cls-9{stroke-width:4.4px;}.cls-8{fill:#2c3e50;}</style></defs><title>machine-learning</title><circle class="cls-1" cx="200" cy="200" r="200"/><line class="cls-2" x1="321.72" y1="200" x2="237.27" y2="78.88"/><line class="cls-2" x1="260.86" y1="200" x2="237.27" y2="78.88"/><line class="cls-2" x1="200" y1="200" x2="237.27" y2="78.88"/><line class="cls-2" x1="139.14" y1="200" x2="237.27" y2="78.88"/><line class="cls-2" x1="78.28" y1="200" x2="237.27" y2="78.88"/><line class="cls-3" x1="321.72" y1="200" x2="162.73" y2="78.88"/><line class="cls-2" x1="260.86" y1="200" x2="162.73" y2="78.88"/><line class="cls-3" x1="200" y1="200" x2="162.73" y2="78.88"/><line class="cls-2" x1="139.14" y1="200" x2="162.73" y2="78.88"/><line class="cls-2" x1="78.28" y1="200" x2="162.73" y2="78.88"/><line class="cls-2" x1="288.95" y1="321.12" x2="321.72" y2="200"/><line class="cls-3" x1="200" y1="321.12" x2="321.72" y2="200"/><line class="cls-2" x1="111.05" y1="321.12" x2="321.72" y2="200"/><line class="cls-2" x1="288.95" y1="321.12" x2="260.86" y2="200"/><line class="cls-2" x1="200" y1="321.12" x2="260.86" y2="200"/><line class="cls-2" x1="111.05" y1="321.12" x2="260.86" y2="200"/><line class="cls-2" x1="288.95" y1="321.12" x2="200" y2="200"/><line class="cls-3" x1="200" y1="321.12" x2="200" y2="200"/><line class="cls-3" x1="111.05" y1="321.12" x2="200" y2="200"/><line class="cls-2" x1="288.95" y1="321.12" x2="139.14" y2="200"/><line class="cls-2" x1="200" y1="321.12" x2="139.14" y2="200"/><line class="cls-2" x1="111.05" y1="321.12" x2="139.14" y2="200"/><line class="cls-2" x1="288.95" y1="321.12" x2="78.28" y2="200"/><line class="cls-2" x1="200" y1="321.12" x2="78.28" y2="200"/><line class="cls-2" x1="111.05" y1="321.12" x2="78.28" y2="200"/><ellipse class="cls-4" cx="200" cy="321.12" rx="23.59" ry="24.59"/><ellipse class="cls-4" cx="111.05" cy="321.12" rx="23.59" ry="24.59"/><ellipse class="cls-4" cx="162.73" cy="78.88" rx="23.59" ry="24.59"/><ellipse class="cls-5" cx="237.27" cy="78.88" rx="23.59" ry="24.59"/><ellipse class="cls-4" cx="200" cy="200" rx="23.59" ry="24.59"/><ellipse class="cls-5" cx="139.14" cy="200" rx="23.59" ry="24.59"/><ellipse class="cls-5" cx="260.86" cy="200" rx="23.59" ry="24.59"/><ellipse class="cls-5" cx="78.28" cy="200" rx="23.59" ry="24.59"/><ellipse class="cls-4" cx="321.72" cy="200" rx="23.59" ry="24.59"/><ellipse class="cls-5" cx="288.95" cy="321.12" rx="23.59" ry="24.59"/><path class="cls-5" d="MNaN,NaNLNaN,NaN,NaN,NaN,NaN,NaN,NaN,NaNZ"/><ellipse class="cls-5" cx="155.53" cy="73.4" rx="5.54" ry="5.78"/><ellipse class="cls-5" cx="170.87" cy="73.11" rx="5.54" ry="5.78"/><path class="cls-6" d="M176.41,89.31"/><path class="cls-7" d="M150,85.94s11.89,15.16,26.43,0"/><ellipse class="cls-8" cx="229.85" cy="73.4" rx="5.54" ry="5.78"/><ellipse class="cls-8" cx="245.19" cy="73.11" rx="5.54" ry="5.78"/><path class="cls-9" d="M224.31,92.68s11.89-15.16,26.43,0"/></svg>