<?xml version="1.0" encoding="utf-8"?>
<!-- Generator: Adobe Illustrator 19.2.0, SVG Export Plug-In . SVG Version: 6.00 Build 0)  -->
<svg version="1.1" xmlns="http://www.w3.org/2000/svg" xmlns:xlink="http://www.w3.org/1999/xlink" x="0px" y="0px"
	 viewBox="0 0 1200 400" style="enable-background:new 0 0 1200 400;" xml:space="preserve">
<style type="text/css">
	.st0{fill:#1C1D21;}
	.st1{clip-path:url(#SVGID_2_);fill:url(#SVGID_3_);}
</style>
<g id="Layer_1">
	<rect class="st0" width="1200" height="400"/>
</g>
<g id="Layer_2">
	<g>
		<defs>
			<path id="SVGID_1_" d="M707.8,430.5c-219.6,0-438.6-0.1-653.5-0.3l-78.6,0l0-2.2l78.6,0c383.5,0.2,780,0.5,1170,0l0,2.2
				C1052.8,430.4,880.1,430.5,707.8,430.5z M600,417.5c51.2,0,103.1-3.9,153.2-7.7c44.2-3.3,89.9-6.7,135-7.5
				c60.8-1.1,122.6,1.8,182.3,4.6c50.4,2.3,102.5,4.7,153.8,4.8l0-2.2c-51.3-0.1-103.3-2.5-153.7-4.8c-59.8-2.8-121.6-5.6-182.5-4.6
				c-45.2,0.8-90.9,4.2-135.1,7.5c-50.1,3.8-101.9,7.6-153,7.7c-0.6,0-1.1,0-1.7,0c-56.6,0-114-2.6-169.5-5.1
				c-48.3-2.2-98.3-4.4-147.4-5c-56.1-0.6-113.2,0.7-168.4,2c-45,1-91.5,2.1-137.3,2.2l0,2.2c45.8,0,92.4-1.1,137.4-2.2
				c55.2-1.3,112.2-2.6,168.3-2c49.1,0.5,99.1,2.8,147.4,5c55.6,2.5,113,5.1,169.6,5.1C598.9,417.5,599.4,417.5,600,417.5z
				 M600,407.2c52.9-0.4,105.6-9.6,156.7-18.6c42.7-7.5,86.9-15.2,130.8-17.7c64-3.6,129.1,3.6,192.1,10.6
				c47.4,5.3,96.4,10.7,144.7,11.5l0-2.2c-48.1-0.8-97.1-6.2-144.5-11.5c-63.1-7-128.3-14.2-192.5-10.6
				c-44.1,2.5-88.3,10.2-131.1,17.7c-50.9,8.9-103.6,18.2-156.3,18.5c-67.6,0.5-136.2-6-202.6-12.3c-51.5-4.9-104.8-9.9-157.3-11.7
				c-50.3-1.7-101.2,1.5-150.5,4.6c-37.3,2.4-75.9,4.8-113.9,5.1l0,2.2c38.1-0.3,76.7-2.7,114.1-5.1c49.2-3.1,100.1-6.3,150.3-4.6
				c52.4,1.8,105.6,6.8,157.1,11.7c64.1,6.1,130.4,12.3,195.8,12.3C595.3,407.2,597.7,407.2,600,407.2z M599.9,386.4
				c53.2-0.3,106.6-8.9,158.1-17.2c41.4-6.7,84.2-13.6,126.6-16.1c64.6-3.9,130.3,3.2,193.8,10.1c47,5.1,95.6,10.4,143.4,11.1l0-2.2
				c-47.7-0.8-96.3-6-143.2-11.1c-63.6-6.9-129.4-14-194.2-10.1c-42.6,2.6-85.4,9.5-126.9,16.2c-51.5,8.3-104.8,16.9-157.8,17.2
				c-68.1,0.4-137.3-5.5-204.3-11.1c-49.4-4.2-100.5-8.5-150.8-10.3c-51.7-1.8-104.1,1.2-154.8,4.1c-36.6,2.1-74.5,4.3-111.9,4.6
				l0,2.2c37.4-0.3,75.3-2.5,112-4.6c50.6-2.9,103-5.9,154.6-4.1c50.2,1.8,101.3,6.1,150.7,10.3c64.9,5.5,132,11.2,198.2,11.1
				C595.8,386.4,597.8,386.4,599.9,386.4z M1210.7,355.2V353c-0.1,0-0.2,0-0.3,0c-53.9,0-108.7-2.1-161.6-4.1
				c-53-2-107.8-4.1-161.8-4.1c-0.5,0-1.1,0-1.6,0c-47.2,0-95.2,1-141.6,2c-47.1,1-95.8,2-143.7,2c-87.9,0-177.2,0.3-263.6,0.6
				c-113.3,0.4-230.5,0.8-345.8,0.6l0,2.2c115.3,0.3,232.5-0.2,345.8-0.6c86.4-0.3,175.7-0.6,263.6-0.6c47.9,0,96.6-1,143.7-2
				c46.4-1,94.4-2,141.6-2c0.5,0,1.1,0,1.6,0c54,0,108.7,2.1,161.7,4.1c53,2,107.8,4.1,161.7,4.1
				C1210.5,355.2,1210.6,355.2,1210.7,355.2z M1092.6,337c36.3-0.3,73.9-0.7,110.9-0.7v-2.2c-36.9,0-74.5,0.4-110.9,0.7
				c-66.8,0.6-135.9,1.3-203.8-0.2c-44.4-0.9-89.4-4.3-132.9-7.6c-51-3.8-103.8-7.8-155.9-7.8c-52.3,0-105.1,4-156.3,7.8
				c-43.4,3.3-88.2,6.7-132.5,7.6c-59.8,1.2-120.7-0.6-179.5-2.4c-43.7-1.3-88.8-2.7-133.2-2.8l0,2.2c44.4,0.1,89.5,1.5,133.1,2.8
				c58.9,1.8,119.7,3.7,179.6,2.4c44.3-0.9,89.2-4.3,132.6-7.6c51-3.8,103.6-7.8,155.6-7.8c0.2,0,0.3,0,0.5,0
				c52,0,104.7,4,155.7,7.8c43.5,3.3,88.6,6.7,133,7.6c30.1,0.6,60.5,0.8,90.8,0.8C1017.5,337.7,1055.4,337.4,1092.6,337z
				 M1210.7,315.8c-46.8,0-94-4-139.7-7.9c-48.7-4.1-99-8.4-149-7.9c-53.4,0.6-107.7,3.6-160.1,6.6c-58.5,3.3-119,6.7-178.6,6.7
				c-0.2,0-0.4,0-0.5,0c-53.5,0-107.5-5.5-159.7-10.8c-48.6-4.9-98.9-10-148.6-10.7c-49-0.7-98.2,5-145.7,10.5
				c-44.8,5.2-91,10.5-137.1,10.5c-0.3,0-0.7,0-1,0l0,2.2c0.3,0,0.7,0,1,0c46.2,0,92.5-5.3,137.3-10.5
				c47.4-5.5,96.5-11.1,145.4-10.4c49.7,0.7,99.9,5.8,148.4,10.7c52.3,5.3,106.3,10.8,159.9,10.8c0.2,0,0.4,0,0.5,0
				c59.7,0,120.2-3.4,178.7-6.7c52.4-2.9,106.6-6,160-6.6c49.8-0.5,100.1,3.7,148.7,7.9c45.7,3.9,93,7.9,139.9,7.9V315.8z
				 M718.5,297.8c13.5-2.4,27.5-4.8,41-7c13.4-2.2,27.1-4.5,40.3-6.7c57.8-9.6,117.6-19.6,176.8-24.4c43.2-3.5,83,1,121.6,13.7
				c41.2,13.5,78.9,24.9,123.6,26.3l0.1-2.2c-44.4-1.4-82-12.7-123-26.2c-38.9-12.8-79-17.3-122.5-13.8
				c-59.3,4.8-119.2,14.8-177,24.4c-13.2,2.2-26.9,4.5-40.3,6.7c-13.6,2.2-27.6,4.6-41.1,7c-53.3,9.3-108.5,18.9-162.2,18.4
				c-62.8-0.6-124.1-20.6-183.3-39.9C325.6,259,277.1,243.2,228,237c-41.1-5.2-81.2,1.7-122.6,21c-42.4,19.7-79,36.8-127.2,39.1
				l0.1,2.2c48.6-2.4,85.4-19.5,128-39.3c41-19.1,80.7-25.9,121.4-20.8c48.9,6.1,97.3,21.9,144.2,37.1c59.4,19.3,120.9,39.3,184,40
				c1.4,0,2.9,0,4.3,0C612.7,316.3,666.5,306.9,718.5,297.8z M715.6,282.4c11-2.1,22.3-4.2,33.3-6.1c16.2-2.9,32.6-5.9,48.6-8.9
				c60.3-11.2,122.7-22.8,184.7-27.5c42-3.2,81,1.8,119.1,15.3c40.7,14.4,78,26.4,123,27.6l0.1-2.2c-44.6-1.3-81.8-13.2-122.3-27.5
				c-38.4-13.6-77.6-18.6-120-15.4c-62.1,4.7-124.5,16.3-184.9,27.5c-15.9,3-32.4,6-48.5,8.9c-11,2-22.4,4.1-33.3,6.1
				c-52.7,9.9-107.2,20.1-160.4,19.7c-62.6-0.4-123.2-21.6-181.8-42.1c-48-16.8-97.6-34.1-148.2-40.1c-50.8-6-95,12.7-137.7,30.7
				c-35.1,14.8-71.4,30.1-111.5,32l0.1,2.2c40.5-2,77-17.3,112.2-32.2c42.5-17.9,86.4-36.4,136.6-30.5c50.4,5.9,99.9,23.2,147.7,40
				c58.8,20.5,119.5,41.8,182.5,42.2c0.9,0,1.8,0,2.7,0C610.1,302.1,663.7,292.1,715.6,282.4z M581.3,284.5
				c63.3-0.1,126.7-10.1,188.1-19.8c51.9-8.2,105.6-16.7,158.9-19.1c54-2.5,107.8,5.5,159.9,13.2c44.4,6.6,90.3,13.4,136.1,13.7
				l0-2.2c-45.7-0.4-91.5-7.1-135.8-13.7c-52.2-7.7-106.1-15.7-160.3-13.3c-53.4,2.4-107.1,10.9-159.1,19.2
				c-61.3,9.7-124.7,19.7-187.8,19.8c-53.5,0.1-106.7-10.1-158.2-19.9c-44.6-8.5-90.8-17.3-137-19.5c-56.4-2.6-112.8,5.6-167.2,13.5
				c-46.7,6.8-95,13.8-143.1,14l0,2.2c48.3-0.2,96.7-7.2,143.4-14c54.4-7.9,110.6-16,166.8-13.4c46.1,2.1,92.2,10.9,136.7,19.4
				c51.4,9.8,104.5,20,158,20C580.9,284.5,581.1,284.5,581.3,284.5z M599.9,266.5c51.6-0.3,103.7-5.9,154.1-11.3
				c44.2-4.7,89.9-9.6,135.1-10.9c61.3-1.7,123.4,3,183.5,7.5c49.7,3.8,101,7.6,151.7,7.9l0-2.2c-50.6-0.2-101.9-4.1-151.5-7.9
				c-60.1-4.6-122.3-9.3-183.7-7.5c-45.3,1.3-91,6.2-135.3,10.9c-50.3,5.4-102.3,11-153.8,11.2c-48.4,0.2-97.5-2.1-145-4.4
				c-41-2-83.4-4-125.2-4.3c-63.8-0.5-128.7,0.2-191.4,0.9c-53.3,0.6-108.4,1.2-162.7,1l0,2.2c54.2,0.2,109.4-0.4,162.7-1
				c62.7-0.7,127.6-1.4,191.3-0.9c41.7,0.3,84.1,2.4,125.1,4.3c45.2,2.2,91.8,4.4,137.9,4.4C595.1,266.5,597.5,266.5,599.9,266.5z"
				/>
		</defs>
		<clipPath id="SVGID_2_">
			<use xlink:href="#SVGID_1_"  style="overflow:visible;"/>
		</clipPath>
		<linearGradient id="SVGID_3_" gradientUnits="userSpaceOnUse" x1="617.858" y1="200.252" x2="617.858" y2="451.4148">
			<stop  offset="0" style="stop-color:#662D91"/>
			<stop  offset="3.115035e-02" style="stop-color:#682C8F;stop-opacity:0"/>
			<stop  offset="1" style="stop-color:#9E005D"/>
		</linearGradient>
		<rect x="-6.4" y="200.3" class="st1" width="1248.6" height="251.2"/>
	</g>
</g>
</svg>
