<?xml version="1.0" encoding="utf-8"?>
<!-- Generator: Adobe Illustrator 19.2.0, SVG Export Plug-In . SVG Version: 6.00 Build 0)  -->
<svg version="1.1" xmlns="http://www.w3.org/2000/svg" xmlns:xlink="http://www.w3.org/1999/xlink" x="0px" y="0px"
	 viewBox="0 0 800 400" style="enable-background:new 0 0 800 400;" xml:space="preserve">
<style type="text/css">
	.st0{fill:#F2385A;}
	.st1{fill:#4AD9D9;}
	.st2{fill:#F5A503;}
	.st3{fill:#36B1BF;}
	.st4{fill:#E9F1DF;}
</style>
<g id="Layer_1">
	<polygon class="st0" points="-0.2,400 -33.2,342.8 -0.2,285.7 65.8,285.7 98.8,342.8 65.8,400 	"/>
	<polygon class="st1" points="-0.2,285.3 -33.2,228.1 -0.2,170.9 65.8,170.9 98.8,228.1 65.8,285.3 	"/>
	<polygon class="st2" points="98.7,342.4 65.7,285.2 98.7,228.1 164.7,228.1 197.7,285.2 164.7,342.4 	"/>
	<polygon class="st3" points="98.8,457.2 65.8,400 98.8,342.8 164.8,342.8 197.8,400 164.8,457.2 	"/>
	<polygon class="st0" points="-0.2,170.9 -33.2,113.8 -0.2,56.6 65.8,56.6 98.8,113.8 65.8,170.9 	"/>
	<polygon class="st1" points="-0.2,56.2 -33.2,-0.9 -0.2,-58.1 65.8,-58.1 98.8,-0.9 65.8,56.2 	"/>
	<polygon class="st2" points="98.7,113.3 65.7,56.2 98.7,-1 164.7,-1 197.7,56.2 164.7,113.3 	"/>
	<polygon class="st3" points="98.8,228.1 65.8,170.9 98.8,113.8 164.8,113.8 197.8,170.9 164.8,228.1 	"/>
	<polygon class="st0" points="197.5,400.5 164.5,343.3 197.5,286.1 263.5,286.1 296.5,343.3 263.5,400.5 	"/>
	<polygon class="st1" points="197.5,285.7 164.5,228.6 197.5,171.4 263.5,171.4 296.5,228.6 263.5,285.7 	"/>
	<polygon class="st2" points="296.4,342.9 263.4,285.7 296.4,228.5 362.4,228.5 395.4,285.7 362.4,342.9 	"/>
	<polygon class="st3" points="296.5,457.6 263.5,400.5 296.5,343.3 362.5,343.3 395.5,400.5 362.5,457.6 	"/>
	<polygon class="st0" points="197.5,171.4 164.5,114.3 197.5,57.1 263.5,57.1 296.5,114.3 263.5,171.4 	"/>
	<polygon class="st1" points="197.5,56.7 164.5,-0.5 197.5,-57.6 263.5,-57.6 296.5,-0.5 263.5,56.7 	"/>
	<polygon class="st2" points="296.4,113.8 263.4,56.6 296.4,-0.5 362.4,-0.5 395.4,56.6 362.4,113.8 	"/>
	<polygon class="st3" points="296.5,228.6 263.5,171.4 296.5,114.3 362.5,114.3 395.5,171.4 362.5,228.6 	"/>
	<polygon class="st0" points="395.4,400.2 362.4,343.1 395.4,285.9 461.4,285.9 494.4,343.1 461.4,400.2 	"/>
	<polygon class="st1" points="395.4,285.5 362.4,228.3 395.4,171.2 461.4,171.2 494.4,228.3 461.4,285.5 	"/>
	<polygon class="st2" points="494.3,342.6 461.3,285.5 494.3,228.3 560.3,228.3 593.3,285.5 560.3,342.6 	"/>
	<polygon class="st3" points="494.4,457.4 461.4,400.2 494.4,343.1 560.4,343.1 593.4,400.2 560.4,457.4 	"/>
	<polygon class="st0" points="395.4,171.2 362.4,114 395.4,56.9 461.4,56.9 494.4,114 461.4,171.2 	"/>
	<polygon class="st1" points="395.4,56.5 362.4,-0.7 395.4,-57.9 461.4,-57.9 494.4,-0.7 461.4,56.5 	"/>
	<polygon class="st2" points="494.3,113.6 461.3,56.4 494.3,-0.8 560.3,-0.8 593.3,56.4 560.3,113.6 	"/>
	<polygon class="st3" points="494.4,228.3 461.4,171.2 494.4,114 560.4,114 593.4,171.2 560.4,228.3 	"/>
	<polygon class="st0" points="593,400.7 560,343.5 593,286.4 659.1,286.4 692.1,343.5 659.1,400.7 	"/>
	<polygon class="st1" points="593,286 560,228.8 593,171.7 659.1,171.7 692.1,228.8 659.1,286 	"/>
	<polygon class="st2" points="692,343.1 659,285.9 692,228.8 758,228.8 791,285.9 758,343.1 	"/>
	<polygon class="st3" points="692.1,457.9 659.1,400.7 692.1,343.5 758.1,343.5 791.1,400.7 758.1,457.9 	"/>
	<polygon class="st0" points="593,171.7 560,114.5 593,57.3 659.1,57.3 692.1,114.5 659.1,171.7 	"/>
	<polygon class="st1" points="593,56.9 560,-0.2 593,-57.4 659.1,-57.4 692.1,-0.2 659.1,56.9 	"/>
	<polygon class="st2" points="692,114 659,56.9 692,-0.3 758,-0.3 791,56.9 758,114 	"/>
	<polygon class="st3" points="692.1,228.8 659.1,171.7 692.1,114.5 758.1,114.5 791.1,171.7 758.1,228.8 	"/>
	<polygon class="st0" points="790.6,400.5 757.6,343.3 790.6,286.1 856.6,286.1 889.6,343.3 856.6,400.5 	"/>
	<polygon class="st1" points="790.6,285.7 757.6,228.6 790.6,171.4 856.6,171.4 889.6,228.6 856.6,285.7 	"/>
	<polygon class="st0" points="790.6,171.4 757.6,114.3 790.6,57.1 856.6,57.1 889.6,114.3 856.6,171.4 	"/>
	<polygon class="st1" points="790.6,56.7 757.6,-0.5 790.6,-57.6 856.6,-57.6 889.6,-0.5 856.6,56.7 	"/>
</g>
<g id="Layer_2">
	<g>
		<path class="st4" d="M203.8,238.4h-14v-6.3l14-16.6h6.7v17h3.5v6h-3.5v5.2h-6.7V238.4z M203.8,232.5v-8.7l-7.4,8.7H203.8z"/>
		<path class="st4" d="M216.3,229.7c0-5.3,0.9-8.9,2.8-11c1.9-2.1,4.8-3.1,8.6-3.1c1.9,0,3.4,0.2,4.6,0.7c1.2,0.5,2.2,1.1,2.9,1.8
			s1.3,1.5,1.8,2.3c0.4,0.8,0.8,1.8,1,2.8c0.5,2.1,0.8,4.2,0.8,6.4c0,5-0.8,8.7-2.5,11s-4.6,3.5-8.8,3.5c-2.3,0-4.2-0.4-5.6-1.1
			c-1.4-0.7-2.6-1.8-3.5-3.3c-0.7-1-1.2-2.4-1.6-4.2C216.5,233.8,216.3,231.8,216.3,229.7z M223.9,229.7c0,3.5,0.3,5.9,0.9,7.2
			c0.6,1.3,1.5,1.9,2.7,1.9c0.8,0,1.5-0.3,2-0.8c0.6-0.5,1-1.4,1.3-2.6c0.3-1.2,0.4-3,0.4-5.5c0-3.7-0.3-6.1-0.9-7.4
			c-0.6-1.3-1.6-1.9-2.8-1.9c-1.3,0-2.2,0.6-2.8,1.9C224.2,223.8,223.9,226.2,223.9,229.7z"/>
		<path class="st4" d="M255.2,238.4h-14v-6.3l14-16.6h6.7v17h3.5v6h-3.5v5.2h-6.7V238.4z M255.2,232.5v-8.7l-7.4,8.7H255.2z"/>
	</g>
</g>
</svg>
