<svg id="Layer_2" data-name="Layer 2" xmlns="http://www.w3.org/2000/svg" xmlns:xlink="http://www.w3.org/1999/xlink" viewBox="0 0 400 200"><defs><style>.cls-1{fill:#1c1d21;}.cls-10,.cls-11,.cls-12,.cls-13,.cls-14,.cls-15,.cls-16,.cls-17,.cls-18,.cls-19,.cls-2,.cls-20,.cls-21,.cls-22,.cls-23,.cls-24,.cls-25,.cls-26,.cls-27,.cls-28,.cls-29,.cls-3,.cls-30,.cls-31,.cls-32,.cls-33,.cls-34,.cls-35,.cls-36,.cls-37,.cls-38,.cls-39,.cls-4,.cls-40,.cls-41,.cls-42,.cls-5,.cls-6,.cls-7,.cls-8,.cls-9{fill:none;stroke-miterlimit:10;}.cls-2{stroke-width:0.19px;stroke:url(#linear-gradient);}.cls-3{stroke-width:0.2px;stroke:url(#linear-gradient-2);}.cls-4{stroke-width:0.21px;stroke:url(#linear-gradient-3);}.cls-5{stroke-width:0.21px;stroke:url(#linear-gradient-4);}.cls-6{stroke-width:0.22px;stroke:url(#linear-gradient-5);}.cls-7{stroke-width:0.23px;stroke:url(#linear-gradient-6);}.cls-8{stroke-width:0.24px;stroke:url(#linear-gradient-7);}.cls-9{stroke-width:0.25px;stroke:url(#linear-gradient-8);}.cls-10{stroke-width:0.26px;stroke:url(#linear-gradient-9);}.cls-11{stroke-width:0.27px;stroke:url(#linear-gradient-10);}.cls-12{stroke-width:0.29px;stroke:url(#linear-gradient-11);}.cls-13{stroke-width:0.3px;stroke:url(#linear-gradient-12);}.cls-14{stroke-width:0.31px;stroke:url(#linear-gradient-13);}.cls-15{stroke-width:0.32px;stroke:url(#linear-gradient-14);}.cls-16{stroke-width:0.34px;stroke:url(#linear-gradient-15);}.cls-17{stroke-width:0.35px;stroke:url(#linear-gradient-16);}.cls-18{stroke-width:0.37px;stroke:url(#linear-gradient-17);}.cls-19{stroke-width:0.38px;stroke:url(#linear-gradient-18);}.cls-20{stroke-width:0.4px;stroke:url(#linear-gradient-19);}.cls-21{stroke-width:0.42px;stroke:url(#linear-gradient-20);}.cls-22{stroke-width:0.43px;stroke:url(#linear-gradient-21);}.cls-23{stroke-width:0.45px;stroke:url(#linear-gradient-22);}.cls-24{stroke-width:0.47px;stroke:url(#linear-gradient-23);}.cls-25{stroke-width:0.49px;stroke:url(#linear-gradient-24);}.cls-26{stroke-width:0.51px;stroke:url(#linear-gradient-25);}.cls-27{stroke-width:0.54px;stroke:url(#linear-gradient-26);}.cls-28{stroke-width:0.56px;stroke:url(#linear-gradient-27);}.cls-29{stroke-width:0.58px;stroke:url(#linear-gradient-28);}.cls-30{stroke-width:0.61px;stroke:url(#linear-gradient-29);}.cls-31{stroke-width:0.63px;stroke:url(#linear-gradient-30);}.cls-32{stroke-width:0.66px;stroke:url(#linear-gradient-31);}.cls-33{stroke-width:0.69px;stroke:url(#linear-gradient-32);}.cls-34{stroke-width:0.72px;stroke:url(#linear-gradient-33);}.cls-35{stroke-width:0.75px;stroke:url(#linear-gradient-34);}.cls-36{stroke-width:0.78px;stroke:url(#linear-gradient-35);}.cls-37{stroke-width:0.81px;stroke:url(#linear-gradient-36);}.cls-38{stroke-width:0.85px;stroke:url(#linear-gradient-37);}.cls-39{stroke-width:0.88px;stroke:url(#linear-gradient-38);}.cls-40{stroke-width:0.92px;stroke:url(#linear-gradient-39);}.cls-41{stroke-width:0.96px;stroke:url(#linear-gradient-40);}.cls-42{stroke:url(#linear-gradient-41);}.cls-43{fill:#fdfdff;}.cls-44{opacity:0.1;}</style><linearGradient id="linear-gradient" x1="155.54" y1="100" x2="244.46" y2="100" gradientTransform="matrix(-0.2, 0.14, -0.13, -0.09, 252.08, 81.45)" gradientUnits="userSpaceOnUse"><stop offset="0" stop-color="#f15a24"/><stop offset="1" stop-color="#29abe2"/></linearGradient><linearGradient id="linear-gradient-2" x1="155.54" y1="100" x2="244.46" y2="100" gradientTransform="matrix(-0.21, 0.13, -0.12, -0.11, 253.74, 85.86)" xlink:href="#linear-gradient"/><linearGradient id="linear-gradient-3" x1="155.53" y1="100" x2="244.47" y2="100" gradientTransform="matrix(-0.22, 0.11, -0.1, -0.14, 254.92, 90.82)" xlink:href="#linear-gradient"/><linearGradient id="linear-gradient-4" x1="155.53" y1="100" x2="244.47" y2="100" gradientTransform="matrix(-0.23, 0.1, -0.09, -0.16, 255.58, 96.32)" xlink:href="#linear-gradient"/><linearGradient id="linear-gradient-5" x1="155.53" y1="100" x2="244.47" y2="100" gradientTransform="matrix(-0.24, 0.08, -0.07, -0.18, 255.66, 102.34)" xlink:href="#linear-gradient"/><linearGradient id="linear-gradient-6" x1="155.52" y1="100" x2="244.48" y2="100" gradientTransform="matrix(-0.25, 0.06, -0.05, -0.2, 255.11, 108.85)" xlink:href="#linear-gradient"/><linearGradient id="linear-gradient-7" x1="155.52" y1="100" x2="244.48" y2="100" gradientTransform="matrix(-0.25, 0.03, -0.03, -0.23, 253.88, 115.83)" xlink:href="#linear-gradient"/><linearGradient id="linear-gradient-8" x1="155.51" y1="100" x2="244.49" y2="100" gradientTransform="matrix(-0.26, 0.01, -0.01, -0.25, 251.93, 123.23)" xlink:href="#linear-gradient"/><linearGradient id="linear-gradient-9" x1="155.51" y1="100" x2="244.49" y2="100" gradientTransform="matrix(-0.26, -0.02, 0.02, -0.27, 249.22, 131.01)" xlink:href="#linear-gradient"/><linearGradient id="linear-gradient-10" x1="155.5" y1="100" x2="244.5" y2="100" gradientTransform="matrix(-0.25, -0.05, 0.05, -0.29, 245.71, 139.12)" xlink:href="#linear-gradient"/><linearGradient id="linear-gradient-11" x1="155.49" y1="100" x2="244.51" y2="100" gradientTransform="matrix(-0.25, -0.08, 0.08, -0.31, 241.37, 147.48)" xlink:href="#linear-gradient"/><linearGradient id="linear-gradient-12" x1="155.49" y1="100" x2="244.51" y2="100" gradientTransform="matrix(-0.24, -0.12, 0.11, -0.32, 236.18, 156.03)" xlink:href="#linear-gradient"/><linearGradient id="linear-gradient-13" x1="155.48" y1="100" x2="244.52" y2="100" gradientTransform="matrix(-0.22, -0.15, 0.14, -0.34, 230.12, 164.68)" xlink:href="#linear-gradient"/><linearGradient id="linear-gradient-14" x1="155.48" y1="100" x2="244.52" y2="100" gradientTransform="matrix(-0.2, -0.19, 0.18, -0.35, 223.2, 173.34)" xlink:href="#linear-gradient"/><linearGradient id="linear-gradient-15" x1="155.47" y1="100" x2="244.53" y2="100" gradientTransform="matrix(-0.18, -0.23, 0.21, -0.36, 215.41, 181.91)" xlink:href="#linear-gradient"/><linearGradient id="linear-gradient-16" x1="155.46" y1="100" x2="244.54" y2="100" gradientTransform="matrix(-0.16, -0.27, 0.25, -0.36, 206.76, 190.3)" xlink:href="#linear-gradient"/><linearGradient id="linear-gradient-17" x1="155.45" y1="100" x2="244.55" y2="100" gradientTransform="matrix(-0.13, -0.31, 0.28, -0.36, 197.28, 198.38)" xlink:href="#linear-gradient"/><linearGradient id="linear-gradient-18" x1="155.45" y1="100" x2="244.55" y2="100" gradientTransform="matrix(-0.1, -0.35, 0.32, -0.36, 187.01, 206.04)" xlink:href="#linear-gradient"/><linearGradient id="linear-gradient-19" x1="155.44" y1="100" x2="244.56" y2="100" gradientTransform="matrix(-0.06, -0.39, 0.36, -0.35, 176, 213.16)" xlink:href="#linear-gradient"/><linearGradient id="linear-gradient-20" x1="155.43" y1="100" x2="244.57" y2="100" gradientTransform="matrix(-0.02, -0.43, 0.39, -0.34, 164.3, 219.6)" xlink:href="#linear-gradient"/><linearGradient id="linear-gradient-21" x1="155.42" y1="100" x2="244.58" y2="100" gradientTransform="matrix(0.03, -0.46, 0.43, -0.33, 152, 225.23)" xlink:href="#linear-gradient"/><linearGradient id="linear-gradient-22" x1="155.41" y1="100" x2="244.59" y2="100" gradientTransform="matrix(0.08, -0.5, 0.46, -0.3, 139.17, 229.92)" xlink:href="#linear-gradient"/><linearGradient id="linear-gradient-23" x1="155.4" y1="100" x2="244.6" y2="100" gradientTransform="matrix(0.13, -0.53, 0.49, -0.28, 125.92, 233.53)" xlink:href="#linear-gradient"/><linearGradient id="linear-gradient-24" x1="155.39" y1="100" x2="244.61" y2="100" gradientTransform="matrix(0.18, -0.56, 0.51, -0.24, 112.37, 235.93)" xlink:href="#linear-gradient"/><linearGradient id="linear-gradient-25" x1="155.38" y1="100" x2="244.62" y2="100" gradientTransform="matrix(0.24, -0.58, 0.54, -0.2, 98.64, 236.98)" xlink:href="#linear-gradient"/><linearGradient id="linear-gradient-26" x1="155.37" y1="100" x2="244.63" y2="100" gradientTransform="matrix(0.3, -0.6, 0.55, -0.16, 84.88, 236.56)" xlink:href="#linear-gradient"/><linearGradient id="linear-gradient-27" x1="155.36" y1="100" x2="244.64" y2="100" gradientTransform="matrix(0.36, -0.62, 0.57, -0.11, 71.24, 234.55)" xlink:href="#linear-gradient"/><linearGradient id="linear-gradient-28" x1="155.35" y1="100" x2="244.65" y2="100" gradientTransform="matrix(0.42, -0.63, 0.58, -0.05, 57.88, 230.82)" xlink:href="#linear-gradient"/><linearGradient id="linear-gradient-29" x1="155.33" y1="100" x2="244.67" y2="100" gradientTransform="matrix(0.49, -0.63, 0.58, 0.01, 44.98, 225.26)" xlink:href="#linear-gradient"/><linearGradient id="linear-gradient-30" x1="155.32" y1="100" x2="244.68" y2="100" gradientTransform="matrix(0.55, -0.63, 0.58, 0.07, 32.74, 217.8)" xlink:href="#linear-gradient"/><linearGradient id="linear-gradient-31" x1="155.31" y1="100" x2="244.69" y2="100" gradientTransform="matrix(0.61, -0.61, 0.56, 0.14, 21.34, 208.34)" xlink:href="#linear-gradient"/><linearGradient id="linear-gradient-32" x1="155.29" y1="100" x2="244.71" y2="100" gradientTransform="matrix(0.67, -0.59, 0.55, 0.22, 11, 196.81)" xlink:href="#linear-gradient"/><linearGradient id="linear-gradient-33" x1="155.28" y1="100" x2="244.72" y2="100" gradientTransform="matrix(0.73, -0.57, 0.52, 0.3, 1.91, 183.18)" xlink:href="#linear-gradient"/><linearGradient id="linear-gradient-34" x1="155.26" y1="100" x2="244.74" y2="100" gradientTransform="matrix(0.79, -0.53, 0.49, 0.38, -5.7, 167.41)" xlink:href="#linear-gradient"/><linearGradient id="linear-gradient-35" x1="155.25" y1="100" x2="244.75" y2="100" gradientTransform="matrix(0.84, -0.48, 0.44, 0.47, -11.62, 149.5)" xlink:href="#linear-gradient"/><linearGradient id="linear-gradient-36" x1="155.23" y1="100" x2="244.77" y2="100" gradientTransform="matrix(0.88, -0.43, 0.39, 0.56, -15.63, 129.47)" xlink:href="#linear-gradient"/><linearGradient id="linear-gradient-37" x1="155.21" y1="100" x2="244.79" y2="100" gradientTransform="matrix(0.92, -0.36, 0.33, 0.65, -17.53, 107.35)" xlink:href="#linear-gradient"/><linearGradient id="linear-gradient-38" x1="155.2" y1="100" x2="244.8" y2="100" gradientTransform="matrix(0.95, -0.28, 0.26, 0.74, -17.11, 83.23)" xlink:href="#linear-gradient"/><linearGradient id="linear-gradient-39" x1="155.18" y1="100" x2="244.82" y2="100" gradientTransform="matrix(0.98, -0.2, 0.18, 0.83, -14.17, 57.21)" xlink:href="#linear-gradient"/><linearGradient id="linear-gradient-40" x1="155.16" y1="100" x2="244.84" y2="100" gradientTransform="translate(0 8) scale(1 0.92)" xlink:href="#linear-gradient"/><linearGradient id="linear-gradient-41" x1="155.14" y1="100" x2="244.86" y2="100" gradientTransform="matrix(1, 0, 0, 1, 0, 0)" xlink:href="#linear-gradient"/></defs><title>404</title><rect class="cls-1" width="400" height="200"/><path class="cls-2" d="M191.27,106.14c-3.12-2.24-1.74-6.8,3.08-10.19s11.26-4.33,14.38-2.09,1.74,6.8-3.08,10.19S194.39,108.38,191.27,106.14Z"/><path class="cls-3" d="M190.68,105.65c-2.87-2.77-1-7.55,4.13-10.67s11.65-3.4,14.52-.62,1,7.55-4.13,10.67S193.55,108.42,190.68,105.65Z"/><path class="cls-4" d="M190.14,105c-2.56-3.33-.23-8.28,5.22-11.07s11.94-2.35,14.5,1,0.23,8.28-5.22,11.07S192.7,108.37,190.14,105Z"/><path class="cls-5" d="M189.67,104.33c-2.2-3.89.64-9,6.35-11.37s12.12-1.18,14.32,2.7-0.64,9-6.35,11.37S191.87,108.22,189.67,104.33Z"/><path class="cls-6" d="M189.27,103.51c-1.78-4.45,1.57-9.63,7.5-11.57s12.18,0.1,14,4.55-1.57,9.63-7.5,11.57S191.05,108,189.27,103.51Z"/><path class="cls-7" d="M189,102.58c-1.31-5,2.57-10.23,8.67-11.65s12.1,1.49,13.41,6.5-2.57,10.23-8.67,11.65S190.27,107.59,189,102.58Z"/><path class="cls-8" d="M188.75,101.53C188,96,192.38,90.76,198.59,89.92s11.88,3,12.66,8.55-3.63,10.77-9.84,11.61S189.53,107.1,188.75,101.53Z"/><path class="cls-9" d="M188.65,100.38a11.36,11.36,0,1,1,11.69,10.68A11.24,11.24,0,0,1,188.65,100.38Z"/><path class="cls-10" d="M188.68,99.12c0.45-6.62,5.88-11.6,12.13-11.11s11,6.25,10.51,12.88-5.88,11.6-12.13,11.11S188.23,105.74,188.68,99.12Z"/><path class="cls-11" d="M188.83,97.76c1.14-7.11,7.06-11.87,13.23-10.63s10.25,8,9.11,15.11-7.06,11.87-13.23,10.63S187.69,104.87,188.83,97.76Z"/><path class="cls-12" d="M189.13,96.31c1.88-7.56,8.26-12,14.27-10s9.35,9.82,7.48,17.37-8.26,12-14.27,10S187.25,103.87,189.13,96.31Z"/><path class="cls-13" d="M189.57,94.78c2.65-8,9.48-12.07,15.24-9.18s8.28,11.67,5.62,19.63-9.48,12.07-15.24,9.18S186.92,102.73,189.57,94.78Z"/><path class="cls-14" d="M190.17,93.17c3.47-8.3,10.69-12,16.11-8.19s7,13.56,3.54,21.86-10.69,12-16.11,8.19S186.7,101.47,190.17,93.17Z"/><path class="cls-15" d="M190.94,91.5c4.32-8.58,11.88-11.72,16.88-7s5.55,15.46,1.23,24-11.88,11.72-16.88,7S186.62,100.07,190.94,91.5Z"/><path class="cls-16" d="M191.88,89.78c5.19-8.78,13-11.32,17.52-5.68s3.91,17.34-1.28,26.12-13,11.32-17.52,5.68S186.69,98.56,191.88,89.78Z"/><path class="cls-17" d="M193,88c6.08-8.9,14.15-10.76,18-4.15s2.07,19.19-4,28.09-14.15,10.76-18,4.15S186.91,96.93,193,88Z"/><path class="cls-18" d="M194.28,86.26c7-8.93,15.2-10,18.35-2.44s0.06,21-6.92,29.91-15.2,10-18.35,2.44S187.3,95.19,194.28,86.26Z"/><path class="cls-19" d="M195.75,84.5c7.87-8.86,16.16-9.11,18.51-.55s-2.13,22.68-10,31.54-16.16,9.11-18.51.55S187.88,93.36,195.75,84.5Z"/><path class="cls-20" d="M197.39,82.76c8.76-8.68,17-8,18.46,1.51s-4.49,24.28-13.25,33-17,8-18.46-1.51S188.64,91.45,197.39,82.76Z"/><path class="cls-21" d="M199.21,81.07c9.62-8.39,17.77-6.72,18.2,3.73s-7,25.73-16.63,34.13-17.77,6.72-18.2-3.73S189.59,89.46,199.21,81.07Z"/><path class="cls-22" d="M201.19,79.45c10.44-8,18.37-5.25,17.71,6.1s-9.66,27-20.1,35-18.37,5.25-17.71-6.1S190.75,87.43,201.19,79.45Z"/><path class="cls-23" d="M203.34,77.92c11.22-7.44,18.82-3.59,17,8.61s-12.43,28.11-23.65,35.55-18.82,3.59-17-8.61S192.12,85.36,203.34,77.92Z"/><path class="cls-24" d="M205.63,76.51c11.94-6.77,19.09-1.74,16,11.24s-15.3,29-27.24,35.75-19.09,1.74-16-11.24S193.69,83.28,205.63,76.51Z"/><path class="cls-25" d="M208,75.25c12.58-6,19.17.29,14.72,14S204.53,118.79,192,124.75s-19.17-.29-14.72-14S195.47,81.21,208,75.25Z"/><path class="cls-26" d="M210.59,74.15c13.13-5,19,2.49,13.18,16.77s-21.24,29.91-34.37,34.92-19-2.49-13.18-16.77S197.46,79.17,210.59,74.15Z"/><path class="cls-27" d="M213.24,73.26c13.58-3.93,18.67,4.86,11.36,19.62s-24.25,29.92-37.83,33.85-18.67-4.86-11.36-19.62S199.65,77.19,213.24,73.26Z"/><path class="cls-28" d="M216,72.6c13.92-2.7,18.06,7.37,9.25,22.5S198,124.69,184,127.4,166,120,174.79,104.89,202,75.31,216,72.6Z"/><path class="cls-29" d="M218.74,72.2c14.13-1.34,17.19,10,6.84,25.38s-30.19,28.89-44.31,30.23-17.19-10-6.84-25.38S204.61,73.54,218.74,72.2Z"/><path class="cls-30" d="M221.54,72.07c14.19,0.16,16,12.79,4.15,28.21s-33,27.8-47.23,27.64-16-12.79-4.15-28.21S207.35,71.92,221.54,72.07Z"/><path class="cls-31" d="M224.34,72.26c14.1,1.78,14.62,15.64,1.18,31s-35.77,26.3-49.86,24.52-14.62-15.64-1.18-31S210.24,70.48,224.34,72.26Z"/><path class="cls-32" d="M227.11,72.78C240.94,76.3,240,91.35,225,106.39s-38.32,24.36-52.15,20.84S160,108.65,175,93.61,213.27,69.25,227.11,72.78Z"/><path class="cls-33" d="M229.8,73.65c13.39,5.38,10.9,21.54-5.56,36.1s-40.66,22-54,16.6-10.9-21.54,5.56-36.1S216.42,68.27,229.8,73.65Z"/><path class="cls-34" d="M232.39,74.9c12.75,7.34,8.59,24.53-9.31,38.39s-42.73,19.15-55.48,11.8-8.59-24.53,9.31-38.39S219.64,67.56,232.39,74.9Z"/><path class="cls-35" d="M234.84,76.55c11.91,9.38,6,27.49-13.27,40.44s-44.5,15.84-56.41,6.46S159.19,96,178.43,83,222.93,67.17,234.84,76.55Z"/><path class="cls-36" d="M237.1,78.61c10.87,11.5,3.07,30.4-17.42,42.21s-45.91,12.07-56.78.57S159.83,91,180.32,79.18,226.23,67.11,237.1,78.61Z"/><path class="cls-37" d="M239.13,81.09c9.61,13.66-.13,33.21-21.74,43.65s-46.92,7.83-56.53-5.83S161,85.7,182.61,75.26,229.53,67.43,239.13,81.09Z"/><path class="cls-38" d="M240.89,84c8.13,15.86-3.6,35.88-26.18,44.71s-47.48,3.13-55.61-12.73,3.6-35.88,26.18-44.71S232.77,68.14,240.89,84Z"/><path class="cls-39" d="M242.34,87.36c6.42,18.07-7.33,38.38-30.71,45.36s-47.55-2-54-20.08S165,74.26,188.37,67.28,235.92,69.29,242.34,87.36Z"/><path class="cls-40" d="M243.43,91.15c4.5,20.26-11.3,40.66-35.29,45.55s-47.08-7.57-51.58-27.84,11.3-40.66,35.29-45.55S238.93,70.88,243.43,91.15Z"/><ellipse class="cls-41" cx="200" cy="100" rx="44.36" ry="40.81" transform="translate(-9.36 21.45) rotate(-6)"/><circle class="cls-42" cx="200" cy="100" r="44.36"/><path class="cls-43" d="M195.94,51.72V49.84a0.33,0.33,0,0,1,.65,0v1.88a0.33,0.33,0,0,1,0,.65V53.7a0.33,0.33,0,0,1-.65,0V52.37H194V49.28a0.33,0.33,0,1,1,.65,0v2.43h1.26Z"/><path class="cls-43" d="M201,49a0.65,0.65,0,0,1,.65.65v3.76A0.64,0.64,0,0,1,201,54H199a0.64,0.64,0,0,1-.65-0.65V49.61A0.65,0.65,0,0,1,199,49H201Zm0,4.41V49.61H199v3.76H201Z"/><path class="cls-43" d="M205.32,51.72V49.84a0.33,0.33,0,0,1,.65,0v1.88a0.33,0.33,0,0,1,0,.65V53.7a0.33,0.33,0,0,1-.65,0V52.37h-1.91V49.28a0.33,0.33,0,0,1,.65,0v2.43h1.26Z"/><path class="cls-43" d="M163,68.73l-1.33-1.33a0.33,0.33,0,0,1,.46-0.46l1.33,1.33a0.33,0.33,0,0,1,.46.46l0.94,0.94a0.33,0.33,0,1,1-.46.46l-0.94-.94-1.35,1.35-2.18-2.18a0.33,0.33,0,0,1,.46-0.46l1.72,1.72Z"/><path class="cls-43" d="M164.58,63.23a0.65,0.65,0,0,1,.92,0l2.66,2.66a0.64,0.64,0,0,1,0,.92l-1.35,1.35a0.64,0.64,0,0,1-.92,0l-2.66-2.66a0.65,0.65,0,0,1,0-.92Zm3.12,3.12L165,63.69,163.69,65l2.66,2.66Z"/><path class="cls-43" d="M169.62,62.1l-1.33-1.33a0.33,0.33,0,1,1,.46-0.46l1.33,1.33a0.33,0.33,0,0,1,.46.46L171.48,63a0.33,0.33,0,0,1-.46.46l-0.94-.94-1.35,1.35-2.18-2.18a0.33,0.33,0,0,1,.46-0.46L168.73,63Z"/><path class="cls-43" d="M151.72,104.06h-1.88a0.33,0.33,0,0,1,0-.65h1.88a0.33,0.33,0,0,1,.65,0h1.33a0.33,0.33,0,0,1,0,.65h-1.33V106h-3.09a0.33,0.33,0,1,1,0-.65h2.43v-1.26Z"/><path class="cls-43" d="M149,99a0.65,0.65,0,0,1,.65-0.65h3.76A0.64,0.64,0,0,1,154,99V101a0.64,0.64,0,0,1-.65.65h-3.76A0.65,0.65,0,0,1,149,101V99Zm4.41,0h-3.76V101h3.76V99Z"/><path class="cls-43" d="M151.72,94.68h-1.88a0.33,0.33,0,0,1,0-.65h1.88a0.33,0.33,0,0,1,.65,0h1.33a0.33,0.33,0,0,1,0,.65h-1.33v1.91h-3.09a0.33,0.33,0,0,1,0-.65h2.43V94.68Z"/><path class="cls-43" d="M168.73,137l-1.33,1.33a0.33,0.33,0,0,1-.46-0.46l1.33-1.33a0.33,0.33,0,0,1,.46-0.46l0.94-.94a0.33,0.33,0,1,1,.46.46l-0.94.94,1.35,1.35-2.18,2.18a0.33,0.33,0,0,1-.46-0.46l1.72-1.72Z"/><path class="cls-43" d="M163.23,135.42a0.65,0.65,0,0,1,0-.92l2.66-2.66a0.64,0.64,0,0,1,.92,0l1.35,1.35a0.64,0.64,0,0,1,0,.92l-2.66,2.66a0.65,0.65,0,0,1-.92,0Zm3.12-3.12L163.69,135l1.35,1.35,2.66-2.66Z"/><path class="cls-43" d="M162.1,130.38l-1.33,1.33a0.33,0.33,0,0,1-.46-0.46l1.33-1.33a0.33,0.33,0,0,1,.46-0.46l0.94-.94a0.33,0.33,0,0,1,.46.46l-0.94.94,1.35,1.35-2.18,2.18a0.33,0.33,0,1,1-.46-0.46l1.72-1.72Z"/><path class="cls-43" d="M204.06,148.28v1.88a0.33,0.33,0,0,1-.65,0v-1.88a0.33,0.33,0,0,1,0-.65V146.3a0.33,0.33,0,0,1,.65,0v1.33H206v3.09a0.33,0.33,0,1,1-.65,0v-2.43h-1.26Z"/><path class="cls-43" d="M199,151a0.65,0.65,0,0,1-.65-0.65v-3.76A0.64,0.64,0,0,1,199,146H201a0.64,0.64,0,0,1,.65.65v3.76a0.65,0.65,0,0,1-.65.65H199Zm0-4.41v3.76H201v-3.76H199Z"/><path class="cls-43" d="M194.68,148.28v1.88a0.33,0.33,0,0,1-.65,0v-1.88a0.33,0.33,0,0,1,0-.65V146.3a0.33,0.33,0,0,1,.65,0v1.33h1.91v3.09a0.33,0.33,0,0,1-.65,0v-2.43h-1.26Z"/><path class="cls-43" d="M237,131.27l1.33,1.33a0.33,0.33,0,0,1-.46.46l-1.33-1.33a0.33,0.33,0,0,1-.46-0.46l-0.94-.94a0.33,0.33,0,1,1,.46-0.46l0.94,0.94,1.35-1.35,2.18,2.18a0.33,0.33,0,0,1-.46.46l-1.72-1.72Z"/><path class="cls-43" d="M235.42,136.77a0.65,0.65,0,0,1-.92,0l-2.66-2.66a0.64,0.64,0,0,1,0-.92l1.35-1.35a0.64,0.64,0,0,1,.92,0l2.66,2.66a0.65,0.65,0,0,1,0,.92Zm-3.12-3.12,2.66,2.66,1.35-1.35-2.66-2.66Z"/><path class="cls-43" d="M230.38,137.9l1.33,1.33a0.33,0.33,0,0,1-.46.46l-1.33-1.33a0.33,0.33,0,0,1-.46-0.46l-0.94-.94a0.33,0.33,0,0,1,.46-0.46l0.94,0.94,1.35-1.35,2.18,2.18a0.33,0.33,0,1,1-.46.46L231.27,137Z"/><path class="cls-43" d="M248.28,95.94h1.88a0.33,0.33,0,0,1,0,.65h-1.88a0.33,0.33,0,0,1-.65,0H246.3a0.33,0.33,0,0,1,0-.65h1.33V94h3.09a0.33,0.33,0,0,1,0,.65h-2.43v1.26Z"/><path class="cls-43" d="M251,101a0.65,0.65,0,0,1-.65.65h-3.76A0.64,0.64,0,0,1,246,101V99a0.64,0.64,0,0,1,.65-0.65h3.76A0.65,0.65,0,0,1,251,99V101Zm-4.41,0h3.76V99h-3.76V101Z"/><path class="cls-43" d="M248.28,105.32h1.88a0.33,0.33,0,0,1,0,.65h-1.88a0.33,0.33,0,0,1-.65,0H246.3a0.33,0.33,0,0,1,0-.65h1.33v-1.91h3.09a0.33,0.33,0,0,1,0,.65h-2.43v1.26Z"/><path class="cls-43" d="M231.27,63l1.33-1.33a0.33,0.33,0,1,1,.46.46l-1.33,1.33a0.33,0.33,0,1,1-.46.46l-0.94.94a0.33,0.33,0,1,1-.46-0.46l0.94-.94-1.35-1.35,2.18-2.18a0.33,0.33,0,0,1,.46.46l-1.72,1.72Z"/><path class="cls-43" d="M236.77,64.58a0.65,0.65,0,0,1,0,.92l-2.66,2.66a0.64,0.64,0,0,1-.92,0l-1.35-1.35a0.64,0.64,0,0,1,0-.92l2.66-2.66a0.65,0.65,0,0,1,.92,0Zm-3.12,3.12L236.31,65,235,63.69l-2.66,2.66Z"/><path class="cls-43" d="M237.9,69.62l1.33-1.33a0.33,0.33,0,0,1,.46.46l-1.33,1.33a0.33,0.33,0,0,1-.46.46l-0.94.94A0.33,0.33,0,0,1,236.5,71l0.94-.94-1.35-1.35,2.18-2.18a0.33,0.33,0,1,1,.46.46L237,68.73Z"/><g class="cls-44"><path class="cls-43" d="M177.77,56.95l-0.72-1.74a0.33,0.33,0,0,1,.6-0.25l0.72,1.74a0.33,0.33,0,0,1,.25.6l0.51,1.23a0.33,0.33,0,1,1-.6.25L178,57.55l-1.77.73-1.18-2.85a0.33,0.33,0,0,1,.6-0.25l0.93,2.25Z"/><path class="cls-43" d="M181.35,52.48a0.65,0.65,0,0,1,.85.35l1.44,3.48a0.64,0.64,0,0,1-.35.85l-1.77.73a0.64,0.64,0,0,1-.85-0.35l-1.44-3.48a0.65,0.65,0,0,1,.35-0.85ZM183,56.55l-1.44-3.48-1.77.73,1.44,3.48Z"/><path class="cls-43" d="M186.44,53.36l-0.72-1.74a0.33,0.33,0,1,1,.6-0.25L187,53.11a0.33,0.33,0,1,1,.25.6l0.51,1.23a0.33,0.33,0,1,1-.6.25L186.69,54l-1.77.73-1.18-2.85a0.33,0.33,0,0,1,.6-0.25l0.93,2.25Z"/></g><g class="cls-44"><path class="cls-43" d="M153.84,85.27l-1.74-.72a0.33,0.33,0,0,1,.25-0.6l1.74,0.72a0.33,0.33,0,0,1,.6.25l1.23,0.51a0.33,0.33,0,1,1-.25.6l-1.23-.51-0.73,1.77-2.85-1.18a0.33,0.33,0,0,1,.25-0.6l2.25,0.93Z"/><path class="cls-43" d="M153.21,79.58a0.65,0.65,0,0,1,.85-0.35l3.48,1.44a0.64,0.64,0,0,1,.35.85l-0.73,1.77a0.64,0.64,0,0,1-.85.35l-3.48-1.44a0.65,0.65,0,0,1-.35-0.85Zm4.08,1.69-3.48-1.44-0.73,1.77L156.55,83Z"/><path class="cls-43" d="M157.43,76.61l-1.74-.72a0.33,0.33,0,1,1,.25-0.6L157.68,76a0.33,0.33,0,0,1,.6.25l1.23,0.51a0.33,0.33,0,1,1-.25.6L158,76.86l-0.73,1.77-2.85-1.18a0.33,0.33,0,1,1,.25-0.6l2.25,0.93Z"/></g><g class="cls-44"><path class="cls-43" d="M156.95,122.23l-1.74.72a0.33,0.33,0,1,1-.25-0.6l1.74-.72a0.33,0.33,0,1,1,.6-0.25l1.23-.51a0.33,0.33,0,1,1,.25.6l-1.23.51,0.73,1.77-2.85,1.18a0.33,0.33,0,1,1-.25-0.6l2.25-.93Z"/><path class="cls-43" d="M152.48,118.65a0.65,0.65,0,0,1,.35-0.85l3.48-1.44a0.64,0.64,0,0,1,.85.35l0.73,1.77a0.64,0.64,0,0,1-.35.85l-3.48,1.44a0.65,0.65,0,0,1-.85-0.35Zm4.08-1.69-3.48,1.44,0.73,1.77,3.48-1.44Z"/><path class="cls-43" d="M153.36,113.56l-1.74.72a0.33,0.33,0,1,1-.25-0.6l1.74-.72a0.33,0.33,0,1,1,.6-0.25l1.23-.51a0.33,0.33,0,1,1,.25.6l-1.23.51,0.73,1.77-2.85,1.18a0.33,0.33,0,1,1-.25-0.6l2.25-.93Z"/></g><g class="cls-44"><path class="cls-43" d="M185.27,146.16l-0.72,1.74a0.33,0.33,0,0,1-.6-0.25l0.72-1.74a0.33,0.33,0,0,1,.25-0.6l0.51-1.23a0.33,0.33,0,1,1,.6.25l-0.51,1.23,1.77,0.73-1.18,2.85a0.33,0.33,0,0,1-.6-0.25l0.93-2.25Z"/><path class="cls-43" d="M179.58,146.79a0.65,0.65,0,0,1-.35-0.85l1.44-3.48a0.64,0.64,0,0,1,.85-0.35l1.77,0.73a0.64,0.64,0,0,1,.35.85l-1.44,3.48a0.65,0.65,0,0,1-.85.35Zm1.69-4.08-1.44,3.48,1.77,0.73,1.44-3.48Z"/><path class="cls-43" d="M176.61,142.57l-0.72,1.74a0.33,0.33,0,1,1-.6-0.25l0.72-1.74a0.33,0.33,0,0,1,.25-0.6l0.51-1.23a0.33,0.33,0,1,1,.6.25L176.86,142l1.77,0.73-1.18,2.85a0.33,0.33,0,1,1-.6-0.25l0.93-2.25Z"/></g><g class="cls-44"><path class="cls-43" d="M222.23,143.05l0.72,1.74a0.33,0.33,0,1,1-.6.25l-0.72-1.74a0.33,0.33,0,1,1-.25-0.6l-0.51-1.23a0.33,0.33,0,0,1,.6-0.25l0.51,1.23,1.77-.73,1.18,2.85a0.33,0.33,0,1,1-.6.25l-0.93-2.25Z"/><path class="cls-43" d="M218.65,147.52a0.65,0.65,0,0,1-.85-0.35l-1.44-3.48a0.64,0.64,0,0,1,.35-0.85l1.77-.73a0.64,0.64,0,0,1,.85.35l1.44,3.48a0.65,0.65,0,0,1-.35.85ZM217,143.45l1.44,3.48,1.77-.73-1.44-3.48Z"/><path class="cls-43" d="M213.56,146.64l0.72,1.74a0.33,0.33,0,1,1-.6.25L213,146.89a0.33,0.33,0,1,1-.25-0.6l-0.51-1.23a0.33,0.33,0,0,1,.6-0.25l0.51,1.23,1.77-.73,1.18,2.85a0.33,0.33,0,0,1-.6.25l-0.93-2.25Z"/></g><g class="cls-44"><path class="cls-43" d="M246.16,114.73l1.74,0.72a0.33,0.33,0,0,1-.25.6l-1.74-.72a0.33,0.33,0,0,1-.6-0.25l-1.23-.51a0.33,0.33,0,1,1,.25-0.6l1.23,0.51,0.73-1.77,2.85,1.18a0.33,0.33,0,0,1-.25.6l-2.25-.93Z"/><path class="cls-43" d="M246.79,120.42a0.65,0.65,0,0,1-.85.35l-3.48-1.44a0.64,0.64,0,0,1-.35-0.85l0.73-1.77a0.64,0.64,0,0,1,.85-0.35l3.48,1.44a0.65,0.65,0,0,1,.35.85Zm-4.08-1.69,3.48,1.44,0.73-1.77L243.45,117Z"/><path class="cls-43" d="M242.57,123.39l1.74,0.72a0.33,0.33,0,1,1-.25.6l-1.74-.72a0.33,0.33,0,0,1-.6-0.25l-1.23-.51a0.33,0.33,0,1,1,.25-0.6l1.23,0.51,0.73-1.77,2.85,1.18a0.33,0.33,0,1,1-.25.6l-2.25-.93Z"/></g><g class="cls-44"><path class="cls-43" d="M243.05,77.77l1.74-.72a0.33,0.33,0,1,1,.25.6l-1.74.72a0.33,0.33,0,1,1-.6.25l-1.23.51a0.33,0.33,0,0,1-.25-0.6l1.23-.51-0.73-1.77,2.85-1.18a0.33,0.33,0,1,1,.25.6l-2.25.93Z"/><path class="cls-43" d="M247.52,81.35a0.65,0.65,0,0,1-.35.85l-3.48,1.44a0.64,0.64,0,0,1-.85-0.35l-0.73-1.77a0.64,0.64,0,0,1,.35-0.85l3.48-1.44a0.65,0.65,0,0,1,.85.35ZM243.45,83l3.48-1.44-0.73-1.77-3.48,1.44Z"/><path class="cls-43" d="M246.64,86.44l1.74-.72a0.33,0.33,0,1,1,.25.6l-1.74.72a0.33,0.33,0,1,1-.6.25l-1.23.51a0.33,0.33,0,0,1-.25-0.6l1.23-.51-0.73-1.77,2.85-1.18a0.33,0.33,0,1,1,.25.6l-2.25.93Z"/></g><g class="cls-44"><path class="cls-43" d="M214.73,53.84l0.72-1.74a0.33,0.33,0,0,1,.6.25l-0.72,1.74a0.33,0.33,0,1,1-.25.6l-0.51,1.23a0.33,0.33,0,0,1-.6-0.25l0.51-1.23-1.77-.73,1.18-2.85a0.33,0.33,0,0,1,.6.25l-0.93,2.25Z"/><path class="cls-43" d="M220.42,53.21a0.65,0.65,0,0,1,.35.85l-1.44,3.48a0.64,0.64,0,0,1-.85.35l-1.77-.73a0.64,0.64,0,0,1-.35-0.85l1.44-3.48a0.65,0.65,0,0,1,.85-0.35Zm-1.69,4.08,1.44-3.48-1.77-.73L217,56.55Z"/><path class="cls-43" d="M223.39,57.43l0.72-1.74a0.33,0.33,0,1,1,.6.25L224,57.68a0.33,0.33,0,0,1-.25.6l-0.51,1.23a0.33,0.33,0,1,1-.6-0.25L223.14,58l-1.77-.73,1.18-2.85a0.33,0.33,0,0,1,.6.25l-0.93,2.25Z"/></g></svg>