<?xml version="1.0" encoding="utf-8"?>
<!-- Generator: Adobe Illustrator 19.2.0, SVG Export Plug-In . SVG Version: 6.00 Build 0)  -->
<svg version="1.1" id="Layer_1" xmlns="http://www.w3.org/2000/svg" xmlns:xlink="http://www.w3.org/1999/xlink" x="0px" y="0px"
	 viewBox="0 0 60 60" style="enable-background:new 0 0 60 60;" xml:space="preserve">
<style type="text/css">
	.st0{fill:#FFFFFF;}
</style>
<title>if_github-square-social-media_764894</title>
<g id="soical">
	<g id="social">
		<g id="icon">
			<path id="github" class="st0" d="M25.4,47.5c0-0.5,0-1.6,0-3.2c-5.1,1.1-6.2-2.5-6.2-2.5c-0.3-1.1-1.1-2.1-2.1-2.8
				c-1.7-1.2,0.1-1.2,0.1-1.2c1.2,0.2,2.3,0.9,2.8,2c1,1.9,3.3,2.6,5.2,1.6c0,0,0.1,0,0.1-0.1c0.1-1,0.5-1.8,1.2-2.5
				c-4.1-0.5-8.4-2.1-8.4-9.4c0-1.9,0.6-3.7,1.9-5.1c-0.6-1.6-0.5-3.4,0.2-5c0,0,1.5-0.5,5.1,1.9c3-0.8,6.2-0.8,9.2,0
				c3.5-2.5,5.1-1.9,5.1-1.9c0.7,1.6,0.7,3.4,0.2,5c1.3,1.4,1.9,3.2,1.9,5.1c0,7.3-4.3,8.9-8.4,9.3c0.9,0.9,1.4,2.2,1.2,3.5
				c0,2.5,0,4.6,0,5.2c0,0.5,0.4,0.9,0.9,1c0.1,0,0.3,0,0.4-0.1c7.6-2.7,12.7-9.9,12.6-18c0.1-10.3-8.1-18.8-18.5-18.9l0,0
				C19.6,11.5,11.3,20,11.4,30.3c-0.1,8.1,5,15.3,12.6,18c0.5,0.2,1-0.1,1.2-0.5C25.4,47.8,25.4,47.7,25.4,47.5z"/>
		</g>
	</g>
</g>
</svg>
