<?xml version="1.0" encoding="utf-8"?>
<!-- Generator: Adobe Illustrator 19.2.0, SVG Export Plug-In . SVG Version: 6.00 Build 0)  -->
<svg version="1.1" id="Layer_1" xmlns="http://www.w3.org/2000/svg" xmlns:xlink="http://www.w3.org/1999/xlink" x="0px" y="0px"
	 viewBox="0 0 60 60" style="enable-background:new 0 0 60 60;" xml:space="preserve">
<style type="text/css">
	.st0{fill:#EEEFF7;}
</style>
<title>if_github-square-social-media_764894</title>
<g id="soical">
	<g id="social">
		<g id="icon">
			<path id="linkedin" class="st0" d="M21.9,43.8V25.5h-5.6v18.3H21.9L21.9,43.8z M21.9,19c0.1-1.5-1.1-2.8-2.7-2.9
				c-0.1,0-0.1,0-0.2,0c-1.5-0.1-2.9,1.1-2.9,2.6c0,0.1,0,0.2,0,0.2c-0.1,1.5,1.1,2.8,2.7,2.9c0.1,0,0.1,0,0.2,0l0,0
				c1.5,0.1,2.9-1.1,3-2.6C21.9,19.2,21.9,19.1,21.9,19L21.9,19z M31.1,43.8V33.4c0-0.5,0-1,0.2-1.5c0.5-1.4,1.7-2.3,3.2-2.3
				c2.2,0,3.7,1.3,3.7,3.8v10.4h5.7V33.1c0-5.7-3.1-8.4-7.1-8.4c-2.3-0.1-4.5,1.1-5.6,3.1v-2.5h-5.6c0.1,1.8,0,18.4,0,18.4
				L31.1,43.8L31.1,43.8z"/>
		</g>
	</g>
</g>
</svg>
