<svg id="Layer_1" data-name="Layer 1" xmlns="http://www.w3.org/2000/svg" viewBox="0 0 60 60"><defs><style>.cls-1{fill:#eeeff7;}.cls-2{fill:#1c1d21;}</style></defs><title>if_github-square-social-media_764894</title><g id="soical"><g id="social"><g id="square-black"><path id="square-7" class="cls-1" d="M3,0H57a3,3,0,0,1,3,3V57a3,3,0,0,1-3,3H3a3,3,0,0,1-3-3V3A3,3,0,0,1,3,0Z"/></g><g id="icon"><path id="linkedin" class="cls-2" d="M21.88,43.82V25.52H16.23v18.3h5.66Zm0-24.78A2.78,2.78,0,0,0,19,16.15,2.79,2.79,0,0,0,16.05,19a2.77,2.77,0,0,0,2.86,2.88h0A2.79,2.79,0,0,0,21.88,19Zm9.23,24.78V33.4a4.24,4.24,0,0,1,.2-1.51,3.4,3.4,0,0,1,3.18-2.27c2.25,0,3.65,1.27,3.65,3.78V43.82h5.69V33.12c0-5.73-3.06-8.4-7.14-8.4a6.18,6.18,0,0,0-5.63,3.15l0-2.45H25.43c0.08,1.75,0,18.41,0,18.41h5.68Z"/></g></g></g></svg>