<svg id="Layer_1" data-name="Layer 1" xmlns="http://www.w3.org/2000/svg" viewBox="0 0 793.64 793.64"><defs><style>.cls-1{fill:#fff;}.cls-2{fill:#1c1d21;}</style></defs><title>logo</title><circle class="cls-1" cx="396.82" cy="396.82" r="396.82"/><rect class="cls-2" x="126.55" y="197.32" width="120.6" height="397.99" rx="12.06" ry="12.06"/><path class="cls-2" d="M252.27,207c-3.32-5.74-11.46-10.41-18.09-10.37l-95.57.6a12.28,12.28,0,0,0-12.14,12.14l-0.05,8.67a52.65,52.65,0,0,0,6,22.5L331.89,586.12a12.1,12.1,0,0,0,16.47,4.41l83.56-48.24a12.1,12.1,0,0,0,4.41-16.47Z"/><rect class="cls-2" x="331.47" y="197.07" width="120.6" height="397.99" rx="12.06" ry="12.06"/><path class="cls-2" d="M457.19,206.76c-3.32-5.74-11.46-10.41-18.09-10.37l-95.57.6a12.28,12.28,0,0,0-12.14,12.14l0,8.69a52.65,52.65,0,0,0,6,22.5L536.82,585.87c3.32,5.74,11.46,10.4,18.09,10.34l114.42-1c6.63-.06,9.35-4.81,6-10.55Z"/></svg>