<svg id="Layer_1" data-name="Layer 1" xmlns="http://www.w3.org/2000/svg" viewBox="0 0 793.64 793.64"><defs><style>.cls-1{fill:#eeeff7;}.cls-2{fill:#1c1d21;}</style></defs><title>logo</title><circle class="cls-1" cx="396.82" cy="396.82" r="396.82"/><rect class="cls-2" x="126.55" y="197.32" width="120.6" height="397.99" rx="12.06" ry="12.06"/><path class="cls-2" d="M255.45,210.19c-3.32-5.74-11.46-10.41-18.09-10.37l-95.57.6a12.28,12.28,0,0,0-12.14,12.14l-0.05,8.67a52.65,52.65,0,0,0,6,22.5L335.07,589.3a12.1,12.1,0,0,0,16.47,4.41l83.56-48.24A12.1,12.1,0,0,0,439.51,529Z" transform="translate(-3.18 -3.18)"/><rect class="cls-2" x="331.47" y="197.07" width="120.6" height="397.99" rx="12.06" ry="12.06"/><path class="cls-2" d="M460.37,209.94c-3.32-5.74-11.46-10.41-18.09-10.37l-95.57.6a12.28,12.28,0,0,0-12.14,12.14L334.52,221a52.65,52.65,0,0,0,6,22.5L540,589.05c3.32,5.74,11.46,10.4,18.09,10.34l114.42-1c6.63-.06,9.35-4.81,6-10.55Z" transform="translate(-3.18 -3.18)"/></svg>