<?xml version="1.0" encoding="utf-8"?>
<!-- Generator: Adobe Illustrator 19.2.0, SVG Export Plug-In . SVG Version: 6.00 Build 0)  -->
<svg version="1.1" xmlns="http://www.w3.org/2000/svg" xmlns:xlink="http://www.w3.org/1999/xlink" x="0px" y="0px"
	 viewBox="0 0 400 250" style="enable-background:new 0 0 400 250;" xml:space="preserve">
<style type="text/css">
	.st0{fill:#225378;}
	.st1{fill:#ACF0F2;}
	.st2{fill:#1695A3;}
	.st3{fill:#7CD9F2;}
	.st4{fill:none;stroke:#117580;stroke-width:0.9644;stroke-miterlimit:10;}
	.st5{fill:none;stroke:#117580;stroke-miterlimit:10;}
	.st6{fill:#599CAD;}
	.st7{fill:#F3FFE2;}
	.st8{fill:#EB7F00;}
</style>
<g id="Layer_1">
	<rect class="st0" width="400" height="250"/>
</g>
<g id="Layer_2">
	<path class="st1" d="M117,208v-30h4v-28.1c0-19.2-15.5-34.9-34.7-34.9h0.2C67.3,115,52,130.7,52,149.9V228h69v-20H117z"/>
	<path class="st2" d="M117.8,177.8v30h-31c-8,0-14.5-6.5-14.5-14.5v-1.1c0-8,6.5-14.5,14.5-14.5H117.8z"/>
	<path class="st3" d="M127.1,148.5v13.3c0,4.6-3.7,8.4-8.4,8.4H93.1c-8.3,0-15-6.7-15-15v0c0-8.3,6.7-15,15-15h25.5
		C123.3,140.2,127.1,143.9,127.1,148.5z"/>
	<path class="st0" d="M124.2,149.4v11.6c0,3.8-3.1,6.9-6.9,6.9H97.1c-6.8,0-12.4-5.5-12.4-12.4v-0.6c0-6.8,5.5-12.4,12.4-12.4h20.1
		C121.1,142.5,124.2,145.6,124.2,149.4z"/>
	<g>
		<circle class="st1" cx="112.6" cy="155.2" r="10"/>
	</g>
	<rect x="45.4" y="219.5" class="st3" width="82" height="9"/>
	<g>
		<circle class="st1" cx="96.7" cy="155.2" r="10"/>
	</g>
	<rect x="96.3" y="151.7" class="st0" width="6.9" height="6.9"/>
	<rect x="112.2" y="151.7" class="st0" width="6.9" height="6.9"/>
	<line class="st4" x1="117.8" y1="187.8" x2="74.8" y2="187.8"/>
	<line class="st5" x1="112.2" y1="177.9" x2="112.2" y2="207.8"/>
	<line class="st5" x1="99.1" y1="177.8" x2="99.1" y2="207.8"/>
	<line class="st5" x1="84.7" y1="177.8" x2="84.7" y2="207.8"/>
	<line class="st4" x1="117.8" y1="197.8" x2="74.8" y2="197.8"/>
	<path class="st1" d="M147.6,280H25.9v-31.2c0-11.3,9.1-20.4,20.4-20.4h81c11.3,0,20.4,9.1,20.4,20.4V280z"/>
	<circle class="st1" cx="301" cy="134.3" r="39.7"/>
	<path class="st3" d="M340.4,148h-79c-4.6,0-8.3-3.7-8.3-8.3v-10.9c0-4.6,3.7-8.3,8.3-8.3h79c4.6,0,8.3,3.7,8.3,8.3v10.9
		C348.7,144.3,345,148,340.4,148z"/>
	<path class="st0" d="M335.2,142.1h-68.6c-2.1,0-3.7-1.7-3.7-3.7v-8.3c0-2.1,1.7-3.7,3.7-3.7h68.6c2.1,0,3.7,1.7,3.7,3.7v8.3
		C339,140.5,337.3,142.1,335.2,142.1z"/>
	<polygon class="st1" points="313.6,115.8 272.6,77.8 344.4,60.6 290.8,80.7 	"/>
	<polygon class="st1" points="291.4,161.2 310,160.8 316.1,178.4 301.3,189.7 286,179 	"/>
	<path class="st3" d="M325.8,250.2h-49.6c-8.2,0-14.9-6.7-14.9-14.9v-41.8c0-8.2,6.7-14.9,14.9-14.9h49.6c8.2,0,14.9,6.7,14.9,14.9
		v41.8C340.7,243.5,334,250.2,325.8,250.2z"/>
	<polygon class="st1" points="280.2,250 245.8,280 319,280 279.6,269 290.4,250 	"/>
	<polygon class="st1" points="316.2,250 281.8,280 355,280 315.6,269 326.4,250 	"/>
	<path class="st0" d="M326.6,242h-51.3c-0.9,0-1.7-0.7-1.7-1.7v-1.1c0-0.9,0.7-1.7,1.7-1.7h51.3c0.9,0,1.7,0.7,1.7,1.7v1.1
		C328.3,241.2,327.5,242,326.6,242z"/>
	<path class="st0" d="M326.6,234.1h-51.3c-0.9,0-1.7-0.7-1.7-1.7v-1.1c0-0.9,0.7-1.7,1.7-1.7h51.3c0.9,0,1.7,0.7,1.7,1.7v1.1
		C328.3,233.4,327.5,234.1,326.6,234.1z"/>
	<path class="st0" d="M326.6,226.2h-51.3c-0.9,0-1.7-0.7-1.7-1.7v-1.1c0-0.9,0.7-1.7,1.7-1.7h51.3c0.9,0,1.7,0.7,1.7,1.7v1.1
		C328.3,225.4,327.5,226.2,326.6,226.2z"/>
	<path class="st0" d="M129.6,265.9v13.2c0,0.5-0.4,0.9-0.9,0.9h-2.7c-0.5,0-0.9-0.4-0.9-0.9v-13.2c0-0.5,0.4-0.9,0.9-0.9h2.7
		C129.2,265,129.6,265.4,129.6,265.9z"/>
	<path class="st0" d="M49.9,265.9v13.2c0,0.5-0.4,0.9-0.9,0.9h-2.7c-0.5,0-0.9-0.4-0.9-0.9v-13.2c0-0.5,0.4-0.9,0.9-0.9H49
		C49.5,265,49.9,265.4,49.9,265.9z"/>
	<circle class="st6" cx="276.5" cy="195.6" r="2.8"/>
	<circle class="st6" cx="301" cy="195.6" r="2.8"/>
	<circle class="st3" cx="82.3" cy="111.8" r="7.1"/>
	<circle class="st6" cx="325.5" cy="195.6" r="2.8"/>
	<g>
		<path class="st7" d="M205.9,165.5h-67.7c-2.9,0-5.2-2.3-5.2-5.2v-31.4c0-2.9,2.3-5.2,5.2-5.2h67.7c2.9,0,5.2,2.3,5.2,5.2v31.4
			C211.2,163.1,208.8,165.5,205.9,165.5z"/>
		<rect x="140.7" y="133.3" class="st8" width="38.4" height="3.1"/>
		<rect x="140.7" y="142.7" class="st8" width="20.5" height="3.1"/>
		<rect x="183" y="152.7" class="st8" width="20.5" height="3.1"/>
		<rect x="156.8" y="152.7" class="st8" width="20.5" height="3.1"/>
		<rect x="140.7" y="152.7" class="st8" width="10.2" height="3.1"/>
		<rect x="184.2" y="133.3" class="st8" width="10.2" height="3.1"/>
		<rect x="198.4" y="133.3" class="st8" width="5.1" height="3.1"/>
		<rect x="193.3" y="142.7" class="st8" width="10.2" height="3.1"/>
		<rect x="168.9" y="142.7" class="st8" width="20.5" height="3.1"/>
		<polygon class="st7" points="145.8,165.5 131.8,180.6 133,160.2 		"/>
	</g>
	<g>
		<path class="st7" d="M172,117.5h67.7c2.9,0,5.2-2.3,5.2-5.2V80.8c0-2.9-2.3-5.2-5.2-5.2H172c-2.9,0-5.2,2.3-5.2,5.2v31.4
			C166.8,115.1,169.1,117.5,172,117.5z"/>
		
			<rect x="198.8" y="85.3" transform="matrix(-1 -4.490376e-11 4.490376e-11 -1 436.0729 173.6414)" class="st8" width="38.4" height="3.1"/>
		
			<rect x="216.8" y="94.7" transform="matrix(-1 -4.489976e-11 4.489976e-11 -1 454.0368 192.4584)" class="st8" width="20.5" height="3.1"/>
		
			<rect x="174.4" y="104.7" transform="matrix(-1 -4.489976e-11 4.489976e-11 -1 369.3472 212.4982)" class="st8" width="20.5" height="3.1"/>
		
			<rect x="200.7" y="104.7" transform="matrix(-1 -4.489976e-11 4.489976e-11 -1 421.9213 212.4982)" class="st8" width="20.5" height="3.1"/>
		
			<rect x="227" y="104.7" transform="matrix(-1 -4.489976e-11 4.489976e-11 -1 464.2661 212.4982)" class="st8" width="10.2" height="3.1"/>
		
			<rect x="183.5" y="85.3" transform="matrix(-1 -4.489976e-11 4.489976e-11 -1 377.1916 173.6414)" class="st8" width="10.2" height="3.1"/>
		
			<rect x="174.4" y="85.3" transform="matrix(-1 -4.481094e-11 4.481094e-11 -1 354.0032 173.6414)" class="st8" width="5.1" height="3.1"/>
		
			<rect x="174.4" y="94.7" transform="matrix(-1 -4.489976e-11 4.489976e-11 -1 359.1179 192.4584)" class="st8" width="10.2" height="3.1"/>
		
			<rect x="188.6" y="94.7" transform="matrix(-1 -4.489976e-11 4.489976e-11 -1 397.6503 192.4584)" class="st8" width="20.5" height="3.1"/>
		<polygon class="st7" points="232.1,117.5 246.2,132.6 244.9,112.2 		"/>
	</g>
</g>
</svg>
