<?xml version="1.0" encoding="utf-8"?>
<!-- Generator: Adobe Illustrator 19.2.0, SVG Export Plug-In . SVG Version: 6.00 Build 0)  -->
<svg version="1.1" xmlns="http://www.w3.org/2000/svg" xmlns:xlink="http://www.w3.org/1999/xlink" x="0px" y="0px"
	 viewBox="0 0 400 250" style="enable-background:new 0 0 400 250;" xml:space="preserve">
<style type="text/css">
	.st0{fill:#3E454C;}
	.st1{fill:none;stroke:#FFF6E5;stroke-width:0.9349;stroke-miterlimit:10;}
	.st2{fill:#7ECEFD;}
	.st3{fill:#2185C5;}
	.st4{fill:#FF7F66;}
</style>
<g id="Layer_1">
	<rect class="st0" width="400" height="250"/>
</g>
<g id="Layer_2">
	<line class="st1" x1="242.8" y1="211" x2="297.1" y2="173.6"/>
	<line class="st1" x1="242.8" y1="183.7" x2="297.1" y2="70.3"/>
	<line class="st1" x1="173.8" y1="98.8" x2="242.8" y2="183.7"/>
	<line class="st1" x1="102.8" y1="78.4" x2="173.8" y2="62"/>
	<line class="st1" x1="173.8" y1="184.2" x2="242.8" y2="39.1"/>
	<line class="st1" x1="173.8" y1="98.8" x2="242.8" y2="39.1"/>
	<polyline class="st1" points="173.8,62 242.8,39.1 297.1,70.3 	"/>
	<line class="st1" x1="173.8" y1="184.2" x2="242.8" y2="211"/>
	<polyline class="st1" points="102.8,167.9 173.8,184.2 242.8,183.7 	"/>
	<line class="st1" x1="102.8" y1="167.9" x2="173.8" y2="98.8"/>
	<polyline class="st1" points="102.8,43.4 173.8,98.8 242.8,98.3 297.1,70.3 	"/>
	<ellipse class="st2" cx="102.8" cy="123.1" rx="14.7" ry="13.3"/>
	<ellipse class="st2" cx="102.8" cy="78.4" rx="14.7" ry="13.3"/>
	<ellipse class="st2" cx="173.8" cy="147.4" rx="14.7" ry="13.3"/>
	<ellipse class="st3" cx="173.8" cy="98.8" rx="14.7" ry="13.3"/>
	<ellipse class="st3" cx="173.8" cy="62" rx="9" ry="8.2"/>
	<ellipse class="st2" cx="102.8" cy="43.4" rx="9" ry="8.2"/>
	<ellipse class="st2" cx="102.8" cy="207.6" rx="9" ry="8.2"/>
	<ellipse class="st3" cx="173.8" cy="184.2" rx="9" ry="8.2"/>
	<ellipse class="st2" cx="173.8" cy="39.5" rx="4.3" ry="3.9"/>
	<ellipse class="st2" cx="173.8" cy="211.5" rx="4.3" ry="3.9"/>
	<ellipse class="st3" cx="102.8" cy="167.9" rx="14.7" ry="13.3"/>
	<ellipse class="st2" cx="297.1" cy="123.1" rx="14.7" ry="13.3"/>
	<ellipse class="st4" cx="297.1" cy="70.3" rx="14.7" ry="13.3"/>
	<ellipse class="st2" cx="297.1" cy="176" rx="14.7" ry="13.3"/>
	<ellipse class="st2" cx="242.8" cy="147" rx="14.7" ry="13.3"/>
	<ellipse class="st2" cx="242.8" cy="98.3" rx="14.7" ry="13.3"/>
	<ellipse class="st2" cx="242.8" cy="61.6" rx="9" ry="8.2"/>
	<ellipse class="st3" cx="242.8" cy="183.7" rx="9" ry="8.2"/>
	<ellipse class="st3" cx="242.8" cy="39.1" rx="4.3" ry="3.9"/>
	<ellipse class="st3" cx="242.8" cy="211" rx="4.3" ry="3.9"/>
</g>
</svg>
