<?xml version="1.0" encoding="utf-8"?>
<!-- Generator: Adobe Illustrator 19.2.0, SVG Export Plug-In . SVG Version: 6.00 Build 0)  -->
<svg version="1.1" xmlns="http://www.w3.org/2000/svg" xmlns:xlink="http://www.w3.org/1999/xlink" x="0px" y="0px"
	 viewBox="0 0 1200 400" style="enable-background:new 0 0 1200 400;" xml:space="preserve">
<style type="text/css">
	.st0{fill:#1C1D21;}
	.st1{fill:#FFFFFF;}
	.st2{opacity:0.5;fill:#FFFFFF;}
	.st3{opacity:0.25;fill:#FFFFFF;}
	.st4{opacity:2.000000e-02;fill:#FFFFFF;}
	.st5{display:none;}
	.st6{display:inline;opacity:0.33;fill:#FFFFFF;}
	.st7{display:inline;opacity:0.33;fill:#4D4D4D;}
	.st8{display:inline;opacity:0.33;fill:#4D4D4D;fill-opacity:0.33;}
	.st9{display:inline;opacity:0.33;fill:#4D4D4D;fill-opacity:0.1;}
</style>
<g id="Layer_1">
	<rect class="st0" width="1200" height="173.9"/>
</g>
<g id="Layer_2">
	<path class="st1" d="M0,43.9c0,0,103.4-34.3,174.3-25.5s134.9,71.3,200,59.9s167.4-55.5,300-40.5s160.1,110,327.9,73.1
		C1150.3,78.3,1200,32.5,1200,32.5V0H0V43.9z"/>
	<path class="st2" d="M-19,50c0,0,105-34.3,177.1-25.5s137,71.3,203.2,59.9S531.3,28.9,666,43.8s162.7,110,333.1,73.1
		C1149.5,84.3,1200,38.6,1200,38.6V6H-19V50z"/>
	<path class="st3" d="M-36,60.6c0,0,106.5-34.3,179.5-25.5s138.9,71.3,206,59.9s172.5-55.5,309-40.5s164.9,110,337.7,73.1
		C1148.8,94.9,1200,49.2,1200,49.2V17H-36V60.6z"/>
	<path class="st4" d="M-26,58c0,0,105.7-45.3,178.2-33.7s137.8,94.2,204.4,79.1S527.6,30.1,663,49.9S826.6,195.2,998,146.4
		c151.3-43,202-103.5,202-103.5V0H-26V58z"/>
</g>
<g id="Layer_3" class="st5">
	<polygon class="st6" points="55.4,215.2 60.6,224.9 70.3,230.1 60.6,235.4 55.4,245 50.1,235.4 40.5,230.1 50.1,224.9 	"/>
	<polygon class="st7" points="1072.4,346.2 1077.6,355.9 1087.3,361.1 1077.6,366.4 1072.4,376 1067.1,366.4 1057.5,361.1 
		1067.1,355.9 	"/>
	<polygon class="st6" points="347.9,346.2 350.6,351 355.4,353.7 350.6,356.3 347.9,361.1 345.3,356.3 340.5,353.7 345.3,351 	"/>
	<polygon class="st6" points="1181.9,150.2 1184.6,155 1189.4,157.7 1184.6,160.3 1181.9,165.1 1179.3,160.3 1174.5,157.7 
		1179.3,155 	"/>
	<polygon class="st7" points="104.5,338.7 106.5,342.3 110,344.3 106.5,346.2 104.5,349.8 102.6,346.2 99,344.3 102.6,342.3 	"/>
	<polygon class="st8" points="218.5,214.7 220.5,218.3 224,220.3 220.5,222.2 218.5,225.8 216.6,222.2 213,220.3 216.6,218.3 	"/>
	<polygon class="st7" points="780.5,375.7 782.5,379.3 786,381.3 782.5,383.2 780.5,386.8 778.6,383.2 775,381.3 778.6,379.3 	"/>
	<polygon class="st7" points="1181.5,272.7 1183.5,276.3 1187,278.3 1183.5,280.2 1181.5,283.8 1179.6,280.2 1176,278.3 
		1179.6,276.3 	"/>
	
		<rect x="-28.3" y="309.3" transform="matrix(0.9471 -0.3209 0.3209 0.9471 -124.6075 40.5432)" class="st9" width="178" height="178"/>
	<rect x="42" y="242.2" transform="matrix(0.9471 -0.3209 0.3209 0.9471 -99.3482 59.5503)" class="st9" width="178" height="178"/>
	
		<rect x="92.4" y="165.1" transform="matrix(0.9471 -0.3209 0.3209 0.9471 -71.9284 71.6578)" class="st9" width="178" height="178"/>
	
		<rect x="352.4" y="298.7" transform="matrix(0.9471 -0.3209 0.3209 0.9471 -101.0742 162.1306)" class="st9" width="178" height="178"/>
	
		<rect x="319.8" y="216.2" transform="matrix(0.9471 -0.3209 0.3209 0.9471 -76.3058 147.3187)" class="st9" width="178" height="178"/>
	
		<rect x="398.1" y="189.3" transform="matrix(0.9471 -0.3209 0.3209 0.9471 -63.5277 171.0173)" class="st9" width="178" height="178"/>
	
		<rect x="205.3" y="277.9" transform="matrix(0.9471 -0.3209 0.3209 0.9471 -102.1747 113.8392)" class="st9" width="178" height="178"/>
	
		<rect x="847.5" y="260.8" transform="matrix(0.9471 -0.3209 0.3209 0.9471 -62.7133 318.998)" class="st9" width="178" height="178"/>
	
		<rect x="869.6" y="230.2" transform="matrix(0.9471 -0.3209 0.3209 0.9471 -51.7311 324.4477)" class="st9" width="178" height="178"/>
	
		<rect x="640.1" y="209.2" transform="matrix(0.5377 -0.8431 0.8431 0.5377 85.5879 752.6209)" class="st9" width="178" height="178"/>
	
		<rect x="640.1" y="306.6" transform="matrix(0.5377 -0.8431 0.8431 0.5377 3.4732 797.6432)" class="st9" width="178" height="178"/>
	
		<rect x="1034.3" y="338" transform="matrix(0.5377 -0.8431 0.8431 0.5377 159.2231 1144.5009)" class="st9" width="178" height="178"/>
	
		<rect x="1111" y="287" transform="matrix(0.5377 -0.8431 0.8431 0.5377 237.7045 1185.5558)" class="st9" width="178" height="178"/>
	
		<rect x="540.1" y="257.2" transform="matrix(0.5377 -0.8431 0.8431 0.5377 -1.0793 690.4821)" class="st9" width="178" height="178"/>
	
		<rect x="998.3" y="233.9" transform="matrix(0.5377 -0.8431 0.8431 0.5377 230.3575 1065.96)" class="st9" width="178" height="178"/>
</g>
</svg>
