<?xml version="1.0" encoding="utf-8"?>
<!-- Generator: Adobe Illustrator 19.2.0, SVG Export Plug-In . SVG Version: 6.00 Build 0)  -->
<svg version="1.1" xmlns="http://www.w3.org/2000/svg" xmlns:xlink="http://www.w3.org/1999/xlink" x="0px" y="0px"
	 viewBox="0 0 800 400" style="enable-background:new 0 0 800 400;" xml:space="preserve">
<style type="text/css">
	.st0{fill:#0B0C1F;}
	.st1{fill:url(#SVGID_1_);}
	.st2{fill:#1A1A1A;}
	.st3{fill:url(#SVGID_2_);}
	.st4{fill:#E74C3C;}
	.st5{fill:#CE413A;}
	.st6{fill:#2C3E50;}
	.st7{fill:#3D566B;}
	.st8{fill:#AF342E;}
	.st9{opacity:0.1;}
	.st10{fill:#ECF0F1;}
	.st11{fill:#334856;}
	.st12{fill:none;stroke:#3C5366;stroke-width:1.1529;stroke-miterlimit:10;}
	.st13{fill:none;stroke:#2C3E50;stroke-width:0.4035;stroke-miterlimit:10;}
	.st14{fill:#3C5366;}
	
		.st15{fill:none;stroke:#ECF0F1;stroke-width:0.5233;stroke-linecap:round;stroke-linejoin:round;stroke-miterlimit:10;stroke-dasharray:3.14;}
	.st16{fill:#34C7DB;}
	.st17{fill:#34BBC9;}
	.st18{fill:#34C7DB;fill-opacity:0.36;}
	.st19{fill:#34C7DB;fill-opacity:0.19;}
	.st20{opacity:0.31;}
	.st21{fill:#2C464F;}
	.st22{fill:none;stroke:#ECF0F1;stroke-width:0.5233;stroke-miterlimit:10;}
	.st23{fill:none;stroke:#ECF0F1;stroke-width:0.5233;stroke-miterlimit:10;stroke-dasharray:2.9762,2.9762;}
	.st24{opacity:0.23;fill:#2C3E50;enable-background:new    ;}
	.st25{opacity:0.21;fill:#E74C3C;enable-background:new    ;}
	.st26{opacity:0.18;fill:#E74C3C;enable-background:new    ;}
	.st27{opacity:0.25;fill:#E74C3C;enable-background:new    ;}
	.st28{opacity:0.36;fill:#E74C3C;enable-background:new    ;}
	.st29{opacity:0.17;}
	.st30{fill:url(#SVGID_3_);}
	.st31{fill:#C8CBCC;}
	.st32{fill:#B3B3B3;}
	.st33{fill:#231F20;}
	.st34{fill:#999999;}
	.st35{fill:#662D91;}
	.st36{fill:#3498DB;}
	.st37{fill:#E7E7E0;}
	.st38{fill:#2980B9;}
	.st39{fill:none;stroke:#3FA9F5;stroke-width:3;stroke-miterlimit:10;stroke-dasharray:13,13;}
	.st40{fill:#3FA9F5;}
</style>
<g id="Layer_2">
	<rect class="st0" width="800" height="400"/>
	<linearGradient id="SVGID_1_" gradientUnits="userSpaceOnUse" x1="541.2303" y1="248" x2="541.2303" y2="174.42">
		<stop  offset="0" style="stop-color:#FFFFFF;stop-opacity:0"/>
		<stop  offset="0.5347" style="stop-color:#FFFFFF;stop-opacity:0.8809"/>
		<stop  offset="1" style="stop-color:#FFFFFF"/>
	</linearGradient>
	<rect x="384.2" y="174.4" class="st1" width="314" height="73.6"/>
	<rect x="499.4" y="182" class="st2" width="99" height="8"/>
	<rect x="397.9" y="195" class="st2" width="73" height="7"/>
	<rect x="397.9" y="207.5" class="st2" width="50.1" height="3.2"/>
	<rect x="431" y="217" class="st2" width="50.1" height="3.2"/>
	<rect x="456.1" y="207.5" class="st2" width="25.1" height="3.2"/>
	<rect x="486.9" y="217" class="st2" width="25.1" height="3.2"/>
	<rect x="397.9" y="217" class="st2" width="25.1" height="3.2"/>
	<rect x="486.9" y="207.5" class="st2" width="43" height="3.2"/>
	<rect x="518.4" y="217" class="st2" width="43" height="3.2"/>
	<circle class="st0" cx="666.6" cy="209.1" r="14.9"/>
</g>
<g id="Layer_3">
	<g id="Sky_1_">
		
			<linearGradient id="SVGID_2_" gradientUnits="userSpaceOnUse" x1="541.2303" y1="227.58" x2="541.2303" y2="332.2467" gradientTransform="matrix(1 0 0 -1 0 402)">
			<stop  offset="0" style="stop-color:#339999"/>
			<stop  offset="0.6905" style="stop-color:#3399BC"/>
			<stop  offset="0.9811" style="stop-color:#3399CC"/>
		</linearGradient>
		<rect x="384.2" y="69.8" class="st3" width="314" height="104.7"/>
	</g>
	<g id="Layer_2_2_">
		<polygon class="st4" points="384.3,141.9 392.7,133.6 418.5,151.3 435,145.5 451.4,157.3 482.7,162.8 502.2,157.4 524.7,162.9 
			566.1,162.9 573.1,159.5 578,162.9 593.6,162.9 635.5,148.3 660.7,160.7 698.2,160.4 698.2,174.4 384.2,174.4 		"/>
		<polyline class="st5" points="410.6,149.4 425.8,161.3 454.4,164.5 502.8,164.5 513.8,155.7 522,164.5 585.6,163.1 653.7,160.9 
			676.3,163.1 695.4,147.3 698.2,152.7 698.2,172.9 384.2,172.9 384.3,166.1 		"/>
		<g>
			<path class="st6" d="M687.4,162.2c0,3.8-5.1,2.7-11.3,2.7c-6.2,0-11.3,1.1-11.3-2.7s5.1-6.8,11.3-6.8S687.4,158.4,687.4,162.2z"
				/>
			<ellipse class="st7" cx="676.2" cy="156.9" rx="4.4" ry="0.9"/>
			<rect x="664.9" y="162.4" class="st7" width="22.6" height="4.9"/>
		</g>
		<g>
			<path class="st6" d="M587.4,164.1c0,1.5-2,1.1-4.6,1.1c-2.5,0-4.6,0.4-4.6-1.1s2-2.7,4.6-2.7
				C585.3,161.3,587.4,162.6,587.4,164.1z"/>
			<ellipse class="st7" cx="582.8" cy="161.9" rx="1.8" ry="0.4"/>
			<rect x="578.3" y="164.2" class="st7" width="9.1" height="2"/>
		</g>
		<g>
			<path class="st6" d="M427.2,165.2c0,1.5-2,1.1-4.6,1.1s-4.6,0.4-4.6-1.1s2-2.7,4.6-2.7S427.2,163.7,427.2,165.2z"/>
			<ellipse class="st7" cx="422.7" cy="163" rx="1.8" ry="0.4"/>
			<rect x="418.1" y="165.3" class="st7" width="9.1" height="2"/>
		</g>
		<polygon class="st8" points="384.2,149.4 393.3,140.2 419.8,166 594.1,166 607.8,155.5 636.7,154.9 654.3,166 681.7,166 
			698.2,154.3 698.2,174.4 384.2,174.4 		"/>
	</g>
	<g id="Layer_3_2_">
		<g class="st9">
			<ellipse class="st10" cx="539.9" cy="160.8" rx="3.4" ry="2.8"/>
			<ellipse class="st10" cx="542.6" cy="163.9" rx="3.4" ry="2.8"/>
			<ellipse class="st10" cx="546.5" cy="162" rx="3.4" ry="2.8"/>
			<ellipse class="st10" cx="550" cy="164.3" rx="3.4" ry="2.8"/>
			<ellipse class="st10" cx="553" cy="161.1" rx="3.4" ry="2.8"/>
			<ellipse class="st10" cx="557.4" cy="158.7" rx="3.4" ry="2.8"/>
			<ellipse class="st10" cx="536" cy="160.6" rx="3.4" ry="2.8"/>
			<ellipse class="st10" cx="540.7" cy="157.4" rx="3.4" ry="2.8"/>
			<ellipse class="st10" cx="546.6" cy="157.7" rx="2.4" ry="2"/>
			<ellipse class="st10" cx="557" cy="164.6" rx="3.4" ry="2.8"/>
			<ellipse class="st10" cx="559.4" cy="161.5" rx="3.4" ry="2.8"/>
			<ellipse class="st10" cx="562.1" cy="158.3" rx="3.4" ry="2.8"/>
			<ellipse class="st10" cx="557.8" cy="156.2" rx="3.4" ry="2.8"/>
			<ellipse class="st10" cx="544.1" cy="154.3" rx="3.4" ry="2.8"/>
			<ellipse class="st10" cx="549.8" cy="154.3" rx="3.4" ry="2.8"/>
			<ellipse class="st10" cx="554" cy="153.6" rx="3.4" ry="2.8"/>
			<ellipse class="st10" cx="548.9" cy="151.4" rx="3.4" ry="2.8"/>
		</g>
		<g>
			
				<rect x="425.6" y="90.3" transform="matrix(0.7236 -0.6903 0.6903 0.7236 55.1543 320.4256)" class="st11" width="4.1" height="2.2"/>
			<g>
				<path class="st11" d="M425.7,96.1c-0.1,0.1-0.1,0.1-0.2,0l-2.7-2.8c-0.1-0.1-0.1-0.1,0-0.2l1-0.9c0.1-0.1,0.1-0.1,0.2,0l2.7,2.8
					c0.1,0.1,0.1,0.1,0,0.2L425.7,96.1z"/>
			</g>
			<line class="st12" x1="425" y1="90.7" x2="420.9" y2="86.4"/>
			<g>
				<path class="st7" d="M422.4,89.8l-4.8-5c-0.3-0.3-0.2-0.7,0-1l0.9-0.9c0.3-0.3,0.7-0.2,1,0l4.8,5c0.3,0.3,0.2,0.7,0,1l-0.9,0.9
					C423.1,90.1,422.6,90.1,422.4,89.8z"/>
				<line class="st13" x1="418.5" y1="83.1" x2="424.2" y2="89.1"/>
				<line class="st13" x1="417.6" y1="83.8" x2="423.4" y2="89.8"/>
				<line class="st13" x1="421.9" y1="85.5" x2="420" y2="87.3"/>
				<line class="st13" x1="424.3" y1="88" x2="422.4" y2="89.8"/>
			</g>
			<line class="st13" x1="419.5" y1="83.1" x2="417.6" y2="84.9"/>
			<g>
				<path class="st14" d="M426.7,96c-0.1,0.1-0.1,0.1-0.2,0l-3.6-3.7c-0.1-0.1-0.1-0.1,0-0.2l3.4-3.2c0.1-0.1,0.1-0.1,0.2,0l3.5,3.7
					c0.1,0.1,0.1,0.1,0,0.2L426.7,96z"/>
			</g>
			<line class="st12" x1="428.1" y1="94" x2="432.2" y2="98.3"/>
			<g>
				<path class="st7" d="M428.9,96.7l4.8,5c0.3,0.3,0.7,0.3,1,0l0.9-0.9c0.3-0.3,0.3-0.7,0-1l-4.8-5c-0.3-0.3-0.7-0.3-1,0l-0.9,0.9
					C428.6,96,428.6,96.4,428.9,96.7z"/>
				<line class="st13" x1="435.4" y1="100.9" x2="429.7" y2="94.9"/>
				<line class="st13" x1="434.6" y1="101.7" x2="428.9" y2="95.7"/>
				<line class="st13" x1="433.1" y1="97.4" x2="431.3" y2="99.2"/>
				<line class="st13" x1="430.8" y1="94.9" x2="428.9" y2="96.7"/>
			</g>
			<line class="st13" x1="435.5" y1="99.9" x2="433.6" y2="101.7"/>
			<path class="st10" d="M431.6,90.8c-0.6,0.5-1.8,0.2-2.6-0.7c-0.9-0.9-1.2-2.1-0.6-2.7s0.9,0.6,1.8,1.5
				C431.1,89.8,432.2,90.2,431.6,90.8z"/>
			<g>
				
					<ellipse transform="matrix(0.7236 -0.6903 0.6903 0.7236 57.6577 321.5803)" class="st11" cx="430.3" cy="88.8" rx="0.5" ry="0.5"/>
			</g>
			<g>
				<path class="st11" d="M424.7,96.3c-0.1,0.1-0.1,0.1-0.2,0l-2-2.1c-0.1-0.1-0.1-0.1,0-0.2l0.7-0.7c0.1-0.1,0.1-0.1,0.2,0l2,2.1
					c0.1,0.1,0.1,0.1,0,0.2L424.7,96.3z"/>
			</g>
		</g>
		<g>
			<path class="st15" d="M420.5,98.3l-11.3,7c-0.2,0.2-0.3,0.4-0.1,0.7l14.5,14.4c0.2,0.2,0.2,0.5,0,0.8l-18.1,19.2"/>
		</g>
		<polygon class="st16" points="667.1,86.8 667.9,88.3 669.4,89.1 667.9,90 667.1,91.5 666.3,90 664.8,89.1 666.3,88.3 		"/>
		<polygon class="st17" points="386.8,95.6 387.1,96 387.5,96.2 387.1,96.4 386.8,96.8 386.6,96.4 386.2,96.2 386.6,96 		"/>
		<polygon class="st17" points="405.7,73.3 405.9,73.7 406.3,73.9 405.9,74.2 405.7,74.6 405.5,74.2 405.1,73.9 405.5,73.7 		"/>
		<polygon class="st17" points="424,139.5 424.2,139.9 424.6,140.1 424.2,140.4 424,140.8 423.8,140.4 423.4,140.1 423.8,139.9 		
			"/>
		<polygon class="st17" points="530.5,153.4 530.7,153.8 531.1,154 530.7,154.2 530.5,154.6 530.3,154.2 529.9,154 530.3,153.8 		
			"/>
		<polygon class="st17" points="597.8,156.8 598,157.2 598.4,157.4 598,157.6 597.8,158 597.5,157.6 597.1,157.4 597.5,157.2 		"/>
		<polygon class="st16" points="479.5,79.2 480.1,80.2 481.2,80.8 480.1,81.4 479.5,82.4 479,81.4 477.9,80.8 479,80.2 		"/>
		<polygon class="st16" points="611.4,133.5 611.6,134.1 612.2,134.4 611.6,134.7 611.4,135.2 611,134.7 610.5,134.4 611,134.1 		
			"/>
		<polygon class="st16" points="449.3,122 449.7,122.9 450.6,123.3 449.7,123.8 449.3,124.6 448.8,123.8 448,123.3 448.8,122.9 		
			"/>
		<polygon class="st18" points="569.1,111.6 569.6,112.4 570.4,112.8 569.6,113.3 569.1,114.1 568.7,113.3 567.9,112.8 568.7,112.4 
					"/>
		<polygon class="st18" points="661.8,134.1 662.2,134.9 663,135.4 662.2,135.8 661.8,136.6 661.3,135.8 660.5,135.4 661.3,134.9 		
			"/>
		<polygon class="st19" points="485.4,140.9 485.8,141.7 486.7,142.2 485.8,142.6 485.4,143.4 484.9,142.6 484.1,142.2 484.9,141.7 
					"/>
		<polygon class="st19" points="610.5,81.2 610.9,82.1 611.7,82.5 610.9,82.9 610.5,83.8 610,82.9 609.2,82.5 610,82.1 		"/>
		<polygon class="st19" points="512.6,95.6 513,96.4 513.9,96.9 513,97.3 512.6,98.1 512.2,97.3 511.3,96.9 512.2,96.4 		"/>
		<g class="st20">
			<path class="st21" d="M547.5,147.2"/>
			<path class="st21" d="M548.6,149.1"/>
			<g>
				<g>
					<rect x="546.8" y="127.2" class="st21" width="3.6" height="17.8"/>
					<ellipse class="st21" cx="548.6" cy="127.4" rx="1.8" ry="2.2"/>
				</g>
				<g>
					<path class="st21" d="M547.2,140.6c0-0.1-0.1-0.1-0.1,0l-2.7,6.7c0,0.1,0,0.1,0,0l2.7-3c0.1-0.1,0.1-0.2,0.1-0.2V140.6
						L547.2,140.6z"/>
				</g>
				<g>
					<path class="st21" d="M549.9,140.4C549.9,140.3,549.9,140.3,549.9,140.4l2.7,6.7c0,0.1,0,0.1-0.1,0l-2.6-3
						c-0.1-0.1-0.1-0.2-0.1-0.2V140.4L549.9,140.4z"/>
				</g>
			</g>
		</g>
		<g class="st20">
			<g>
				<line class="st22" x1="548.6" y1="148" x2="548.6" y2="149.6"/>
				<line class="st23" x1="548.6" y1="152.5" x2="548.6" y2="157"/>
				<line class="st22" x1="548.6" y1="158.5" x2="548.6" y2="160.1"/>
			</g>
		</g>
		<rect x="542" y="161.8" class="st24" width="13.1" height="1.1"/>
		<polygon class="st25" points="450.4,171.8 450.5,170.5 446.8,168 442.8,169.9 442.7,171.8 		"/>
		<polygon class="st26" points="614,170.8 614.1,169.8 609.5,167.6 604.5,169.2 604.3,170.8 		"/>
		<polygon class="st25" points="692.8,170.8 692.1,169.7 691.3,168.7 693,168.3 694.8,167.9 693.8,169.3 		"/>
		<polygon class="st27" points="507.7,168.8 507.8,169.7 507.8,170.5 506.3,170.2 504.8,169.9 506.2,169.4 		"/>
		<polygon class="st27" points="649.5,166.4 649.6,167.3 649.7,168.1 648.1,167.9 646.6,167.6 648.1,167 		"/>
		<polygon class="st28" points="404.9,166.5 405.6,165 406.3,163.5 407,164.7 407.7,166 406.3,166.3 		"/>
	</g>
</g>
<g id="Layer_1">
	<g class="st29">
		<linearGradient id="SVGID_3_" gradientUnits="userSpaceOnUse" x1="174.9321" y1="402.5759" x2="319.0564" y2="258.4515">
			<stop  offset="0" style="stop-color:#FFFFFF"/>
			<stop  offset="1" style="stop-color:#000000"/>
		</linearGradient>
		<path class="st30" d="M384.2,324.9c-0.7-0.6-2-0.9-2.9-0.9H97.7c-0.9,0-1.1,0.3-0.4,0.9l12.5,11.2c0.7,0.6,2,0.9,2.9,0.9h283.5
			c0.9,0,1.1-0.3,0.4-0.9L384.2,324.9z"/>
	</g>
	<g>
		<path class="st10" d="M364,321.9c0,1.2-0.9,2.1-2.1,2.1H118.1c-1.2,0-2.1-0.9-2.1-2.1V145.1c0-1.2,0.9-2.1,2.1-2.1h243.8
			c1.2,0,2.1,0.9,2.1,2.1V321.9z"/>
	</g>
	<g>
		<path class="st31" d="M384.4,322.9c-0.3,1.1-1.4,2.1-2.6,2.1H99.2c-1.2,0-2.3-1-2.6-2.1l-4-17.6c-0.3-1.1,0.5-2.2,1.6-2.2h292.7
			c1.2,0,1.9,1.1,1.6,2.2L384.4,322.9z"/>
	</g>
	<polygon class="st32" points="284.5,309 196.5,309 195,303 286,303 	"/>
	<g>
		<path class="st6" d="M350,293.8c0,1.2-1,2.2-2.2,2.2H132.2c-1.2,0-2.2-1-2.2-2.2V157.2c0-1.2,1-2.2,2.2-2.2h215.6
			c1.2,0,2.2,1,2.2,2.2V293.8z"/>
	</g>
	<g>
		<path class="st31" d="M334,283.9c0,1.2-0.9,2.1-2.1,2.1H149.1c-1.2,0-2.1-0.9-2.1-2.1V169.1c0-1.2,0.9-2.1,2.1-2.1h182.8
			c1.2,0,2.1,0.9,2.1,2.1V283.9z"/>
	</g>
	<rect x="147" y="182" class="st33" width="187" height="105"/>
	<ellipse class="st34" cx="155.2" cy="175.4" rx="2.9" ry="3.3"/>
	<ellipse class="st34" cx="164.2" cy="175.4" rx="2.9" ry="3.3"/>
	<ellipse class="st34" cx="172.4" cy="175.4" rx="2.9" ry="3.3"/>
	<rect x="147" y="182" class="st35" width="42" height="105"/>
	<rect x="152" y="197" class="st36" width="20" height="3"/>
	<rect x="195" y="190" class="st37" width="20" height="3"/>
	<rect x="203" y="199" class="st37" width="37" height="3"/>
	<rect x="203" y="211" class="st37" width="21" height="3"/>
	<rect x="203" y="235" class="st37" width="21" height="3"/>
	<rect x="203" y="265" class="st37" width="31" height="3"/>
	<rect x="203" y="274" class="st37" width="23" height="3"/>
	<rect x="203" y="245" class="st37" width="47" height="3"/>
	<rect x="195" y="224" class="st37" width="20" height="3"/>
	<rect x="162" y="227" class="st38" width="10" height="2"/>
	<rect x="162" y="206" class="st38" width="20" height="2"/>
	<rect x="162" y="253" class="st38" width="15" height="2"/>
	<rect x="152" y="239" class="st36" width="20" height="3"/>
	<rect x="162" y="268" class="st36" width="23" height="2"/>
	<rect x="162" y="214" class="st36" width="15" height="3"/>
	<rect x="195" y="255" class="st37" width="20" height="3"/>
	<g>
		<g>
			<path class="st39" d="M230.8,129.6c0,0-19.5-48.8,107.6-48.8"/>
			<g>
				<polygon class="st40" points="325.5,96.8 322.8,93.9 336.9,80.8 322.8,67.7 325.5,64.9 342.6,80.8 				"/>
			</g>
		</g>
	</g>
</g>
</svg>
